M48
;GenerationSoftware,Autodesk,EAGLE,9.0.0*%
;CreationDate,2018-05-04T17:12:10Z*%
FMAT,2
ICI,OFF
METRIC,TZ,000.000
T5C0.350
T4C0.813
T3C1.000
T2C1.016
T1C2.900
%
G90
M71
T1
X32000Y2750
X12000Y26250
T2
X19520Y3290
X16980Y3290
X14440Y3290
X41400Y10230
X22060Y3290
X24600Y3290
X27140Y3290
X41400Y2610
X41400Y5150
X41400Y7690
X41400Y12770
X41400Y15310
X41400Y17850
X41400Y20390
X8830Y3300
X11370Y3300
T3
X3220Y18070
X3220Y20610
X3220Y23150
X5760Y25690
X5760Y20610
X5760Y18070
X3220Y25690
X5760Y23150
T4
X32250Y15250
X32250Y23490
X32250Y26030
X24630Y23490
X24630Y9860
X24630Y7320
X32250Y7320
X32250Y9860
X24630Y15250
X24630Y12710
X32250Y12710
X24630Y20640
X24630Y18100
X32250Y18100
X32250Y20640
X24630Y26030
T5
X20900Y18400
X18000Y10700
X21500Y19500
X21700Y17300
X14500Y20100
X21600Y14000
X13200Y15500
X8600Y18400
X8700Y16300
X15300Y23600
X15800Y9300
M30