G04 EAGLE Gerber X2 export*
G75*
%MOMM*%
%FSLAX34Y34*%
%LPD*%
%AMOC8*
5,1,8,0,0,1.08239X$1,22.5*%
G01*
%ADD10C,0.254000*%


D10*
X0Y62500D02*
X32500Y62500D01*
X35115Y62386D01*
X37709Y62044D01*
X40265Y61478D01*
X42761Y60691D01*
X45179Y59689D01*
X47500Y58481D01*
X49707Y57075D01*
X51784Y55481D01*
X53713Y53713D01*
X55481Y51784D01*
X57075Y49707D01*
X58481Y47500D01*
X59689Y45179D01*
X60691Y42761D01*
X61478Y40265D01*
X62044Y37709D01*
X62386Y35115D01*
X62500Y32500D01*
X62500Y0D01*
X430000Y0D01*
X430872Y38D01*
X431736Y152D01*
X432588Y341D01*
X433420Y603D01*
X434226Y937D01*
X435000Y1340D01*
X435736Y1808D01*
X436428Y2340D01*
X437071Y2929D01*
X437660Y3572D01*
X438192Y4264D01*
X438660Y5000D01*
X439063Y5774D01*
X439397Y6580D01*
X439659Y7412D01*
X439848Y8264D01*
X439962Y9128D01*
X440000Y10000D01*
X440000Y227500D01*
X407500Y227500D01*
X404885Y227614D01*
X402291Y227956D01*
X399735Y228522D01*
X397239Y229309D01*
X394821Y230311D01*
X392500Y231519D01*
X390293Y232925D01*
X388216Y234519D01*
X386287Y236287D01*
X384519Y238216D01*
X382925Y240293D01*
X381519Y242500D01*
X380311Y244821D01*
X379309Y247239D01*
X378522Y249735D01*
X377956Y252291D01*
X377614Y254885D01*
X377500Y257500D01*
X377500Y290000D01*
X10000Y290000D01*
X9128Y289962D01*
X8264Y289848D01*
X7412Y289659D01*
X6580Y289397D01*
X5774Y289063D01*
X5000Y288660D01*
X4264Y288192D01*
X3572Y287660D01*
X2929Y287071D01*
X2340Y286428D01*
X1808Y285736D01*
X1340Y285000D01*
X937Y284226D01*
X603Y283420D01*
X341Y282588D01*
X152Y281736D01*
X38Y280872D01*
X0Y280000D01*
X0Y62500D01*
X134500Y261982D02*
X134426Y260949D01*
X134279Y259924D01*
X134059Y258912D01*
X133767Y257918D01*
X133405Y256948D01*
X132975Y256005D01*
X132478Y255096D01*
X131918Y254225D01*
X131298Y253396D01*
X130619Y252613D01*
X129887Y251881D01*
X129104Y251203D01*
X128275Y250582D01*
X127404Y250022D01*
X126495Y249525D01*
X125552Y249095D01*
X124582Y248733D01*
X123588Y248441D01*
X122576Y248221D01*
X121551Y248074D01*
X120518Y248000D01*
X119482Y248000D01*
X118449Y248074D01*
X117424Y248221D01*
X116412Y248441D01*
X115418Y248733D01*
X114448Y249095D01*
X113505Y249525D01*
X112596Y250022D01*
X111725Y250582D01*
X110896Y251203D01*
X110113Y251881D01*
X109381Y252613D01*
X108703Y253396D01*
X108082Y254225D01*
X107522Y255096D01*
X107025Y256005D01*
X106595Y256948D01*
X106233Y257918D01*
X105941Y258912D01*
X105721Y259924D01*
X105574Y260949D01*
X105500Y261982D01*
X105500Y263018D01*
X105574Y264051D01*
X105721Y265076D01*
X105941Y266088D01*
X106233Y267082D01*
X106595Y268052D01*
X107025Y268995D01*
X107522Y269904D01*
X108082Y270775D01*
X108703Y271604D01*
X109381Y272387D01*
X110113Y273119D01*
X110896Y273798D01*
X111725Y274418D01*
X112596Y274978D01*
X113505Y275475D01*
X114448Y275905D01*
X115418Y276267D01*
X116412Y276559D01*
X117424Y276779D01*
X118449Y276926D01*
X119482Y277000D01*
X120518Y277000D01*
X121551Y276926D01*
X122576Y276779D01*
X123588Y276559D01*
X124582Y276267D01*
X125552Y275905D01*
X126495Y275475D01*
X127404Y274978D01*
X128275Y274418D01*
X129104Y273798D01*
X129887Y273119D01*
X130619Y272387D01*
X131298Y271604D01*
X131918Y270775D01*
X132478Y269904D01*
X132975Y268995D01*
X133405Y268052D01*
X133767Y267082D01*
X134059Y266088D01*
X134279Y265076D01*
X134426Y264051D01*
X134500Y263018D01*
X134500Y261982D01*
X334500Y26982D02*
X334426Y25949D01*
X334279Y24924D01*
X334059Y23912D01*
X333767Y22918D01*
X333405Y21948D01*
X332975Y21005D01*
X332478Y20096D01*
X331918Y19225D01*
X331298Y18396D01*
X330619Y17613D01*
X329887Y16881D01*
X329104Y16203D01*
X328275Y15582D01*
X327404Y15022D01*
X326495Y14525D01*
X325552Y14095D01*
X324582Y13733D01*
X323588Y13441D01*
X322576Y13221D01*
X321551Y13074D01*
X320518Y13000D01*
X319482Y13000D01*
X318449Y13074D01*
X317424Y13221D01*
X316412Y13441D01*
X315418Y13733D01*
X314448Y14095D01*
X313505Y14525D01*
X312596Y15022D01*
X311725Y15582D01*
X310896Y16203D01*
X310113Y16881D01*
X309381Y17613D01*
X308703Y18396D01*
X308082Y19225D01*
X307522Y20096D01*
X307025Y21005D01*
X306595Y21948D01*
X306233Y22918D01*
X305941Y23912D01*
X305721Y24924D01*
X305574Y25949D01*
X305500Y26982D01*
X305500Y28018D01*
X305574Y29051D01*
X305721Y30076D01*
X305941Y31088D01*
X306233Y32082D01*
X306595Y33052D01*
X307025Y33995D01*
X307522Y34904D01*
X308082Y35775D01*
X308703Y36604D01*
X309381Y37387D01*
X310113Y38119D01*
X310896Y38798D01*
X311725Y39418D01*
X312596Y39978D01*
X313505Y40475D01*
X314448Y40905D01*
X315418Y41267D01*
X316412Y41559D01*
X317424Y41779D01*
X318449Y41926D01*
X319482Y42000D01*
X320518Y42000D01*
X321551Y41926D01*
X322576Y41779D01*
X323588Y41559D01*
X324582Y41267D01*
X325552Y40905D01*
X326495Y40475D01*
X327404Y39978D01*
X328275Y39418D01*
X329104Y38798D01*
X329887Y38119D01*
X330619Y37387D01*
X331298Y36604D01*
X331918Y35775D01*
X332478Y34904D01*
X332975Y33995D01*
X333405Y33052D01*
X333767Y32082D01*
X334059Y31088D01*
X334279Y30076D01*
X334426Y29051D01*
X334500Y28018D01*
X334500Y26982D01*
X134500Y261982D02*
X134426Y260949D01*
X134279Y259924D01*
X134059Y258912D01*
X133767Y257918D01*
X133405Y256948D01*
X132975Y256005D01*
X132478Y255096D01*
X131918Y254225D01*
X131298Y253396D01*
X130619Y252613D01*
X129887Y251881D01*
X129104Y251203D01*
X128275Y250582D01*
X127404Y250022D01*
X126495Y249525D01*
X125552Y249095D01*
X124582Y248733D01*
X123588Y248441D01*
X122576Y248221D01*
X121551Y248074D01*
X120518Y248000D01*
X119482Y248000D01*
X118449Y248074D01*
X117424Y248221D01*
X116412Y248441D01*
X115418Y248733D01*
X114448Y249095D01*
X113505Y249525D01*
X112596Y250022D01*
X111725Y250582D01*
X110896Y251203D01*
X110113Y251881D01*
X109381Y252613D01*
X108703Y253396D01*
X108082Y254225D01*
X107522Y255096D01*
X107025Y256005D01*
X106595Y256948D01*
X106233Y257918D01*
X105941Y258912D01*
X105721Y259924D01*
X105574Y260949D01*
X105500Y261982D01*
X105500Y263018D01*
X105574Y264051D01*
X105721Y265076D01*
X105941Y266088D01*
X106233Y267082D01*
X106595Y268052D01*
X107025Y268995D01*
X107522Y269904D01*
X108082Y270775D01*
X108703Y271604D01*
X109381Y272387D01*
X110113Y273119D01*
X110896Y273798D01*
X111725Y274418D01*
X112596Y274978D01*
X113505Y275475D01*
X114448Y275905D01*
X115418Y276267D01*
X116412Y276559D01*
X117424Y276779D01*
X118449Y276926D01*
X119482Y277000D01*
X120518Y277000D01*
X121551Y276926D01*
X122576Y276779D01*
X123588Y276559D01*
X124582Y276267D01*
X125552Y275905D01*
X126495Y275475D01*
X127404Y274978D01*
X128275Y274418D01*
X129104Y273798D01*
X129887Y273119D01*
X130619Y272387D01*
X131298Y271604D01*
X131918Y270775D01*
X132478Y269904D01*
X132975Y268995D01*
X133405Y268052D01*
X133767Y267082D01*
X134059Y266088D01*
X134279Y265076D01*
X134426Y264051D01*
X134500Y263018D01*
X134500Y261982D01*
X334500Y26982D02*
X334426Y25949D01*
X334279Y24924D01*
X334059Y23912D01*
X333767Y22918D01*
X333405Y21948D01*
X332975Y21005D01*
X332478Y20096D01*
X331918Y19225D01*
X331298Y18396D01*
X330619Y17613D01*
X329887Y16881D01*
X329104Y16203D01*
X328275Y15582D01*
X327404Y15022D01*
X326495Y14525D01*
X325552Y14095D01*
X324582Y13733D01*
X323588Y13441D01*
X322576Y13221D01*
X321551Y13074D01*
X320518Y13000D01*
X319482Y13000D01*
X318449Y13074D01*
X317424Y13221D01*
X316412Y13441D01*
X315418Y13733D01*
X314448Y14095D01*
X313505Y14525D01*
X312596Y15022D01*
X311725Y15582D01*
X310896Y16203D01*
X310113Y16881D01*
X309381Y17613D01*
X308703Y18396D01*
X308082Y19225D01*
X307522Y20096D01*
X307025Y21005D01*
X306595Y21948D01*
X306233Y22918D01*
X305941Y23912D01*
X305721Y24924D01*
X305574Y25949D01*
X305500Y26982D01*
X305500Y28018D01*
X305574Y29051D01*
X305721Y30076D01*
X305941Y31088D01*
X306233Y32082D01*
X306595Y33052D01*
X307025Y33995D01*
X307522Y34904D01*
X308082Y35775D01*
X308703Y36604D01*
X309381Y37387D01*
X310113Y38119D01*
X310896Y38798D01*
X311725Y39418D01*
X312596Y39978D01*
X313505Y40475D01*
X314448Y40905D01*
X315418Y41267D01*
X316412Y41559D01*
X317424Y41779D01*
X318449Y41926D01*
X319482Y42000D01*
X320518Y42000D01*
X321551Y41926D01*
X322576Y41779D01*
X323588Y41559D01*
X324582Y41267D01*
X325552Y40905D01*
X326495Y40475D01*
X327404Y39978D01*
X328275Y39418D01*
X329104Y38798D01*
X329887Y38119D01*
X330619Y37387D01*
X331298Y36604D01*
X331918Y35775D01*
X332478Y34904D01*
X332975Y33995D01*
X333405Y33052D01*
X333767Y32082D01*
X334059Y31088D01*
X334279Y30076D01*
X334426Y29051D01*
X334500Y28018D01*
X334500Y26982D01*
M02*
