G04 EAGLE Gerber X2 export*
G75*
%MOMM*%
%FSLAX34Y34*%
%LPD*%
%AMOC8*
5,1,8,0,0,1.08239X$1,22.5*%
G01*
%ADD10C,0.101600*%
%ADD11C,0.076200*%
%ADD12C,0.152400*%
%ADD13C,0.050800*%

G36*
X-61140Y106472D02*
X-61140Y106472D01*
X-61192Y106477D01*
X-61214Y106491D01*
X-61225Y106493D01*
X-61233Y106502D01*
X-61262Y106520D01*
X-62151Y107282D01*
X-62152Y107283D01*
X-62154Y107285D01*
X-63297Y108301D01*
X-63300Y108305D01*
X-63308Y108311D01*
X-64197Y109200D01*
X-64200Y109204D01*
X-64207Y109211D01*
X-65223Y110354D01*
X-65239Y110386D01*
X-65253Y110402D01*
X-65255Y110418D01*
X-65279Y110457D01*
X-65279Y110470D01*
X-65284Y110481D01*
X-65277Y110540D01*
X-65276Y110598D01*
X-65268Y110613D01*
X-65267Y110621D01*
X-65259Y110631D01*
X-65239Y110671D01*
X-61653Y115617D01*
X-62459Y116998D01*
X-62460Y117004D01*
X-62467Y117013D01*
X-62975Y118029D01*
X-62977Y118041D01*
X-62991Y118069D01*
X-63372Y119339D01*
X-63372Y119340D01*
X-63373Y119342D01*
X-63836Y120966D01*
X-69901Y121956D01*
X-69960Y121984D01*
X-70020Y122010D01*
X-70023Y122014D01*
X-70028Y122017D01*
X-70063Y122072D01*
X-70100Y122126D01*
X-70101Y122133D01*
X-70103Y122136D01*
X-70103Y122145D01*
X-70113Y122206D01*
X-70113Y127794D01*
X-70095Y127857D01*
X-70079Y127921D01*
X-70076Y127924D01*
X-70074Y127929D01*
X-70025Y127973D01*
X-69978Y128018D01*
X-69971Y128020D01*
X-69969Y128023D01*
X-69960Y128024D01*
X-69901Y128044D01*
X-63815Y129038D01*
X-63496Y129783D01*
X-63119Y131163D01*
X-63113Y131173D01*
X-63105Y131202D01*
X-62343Y132853D01*
X-62337Y132860D01*
X-62330Y132877D01*
X-61652Y134008D01*
X-65116Y139081D01*
X-65136Y139140D01*
X-65159Y139199D01*
X-65157Y139207D01*
X-65160Y139215D01*
X-65145Y139276D01*
X-65134Y139337D01*
X-65127Y139346D01*
X-65126Y139352D01*
X-65117Y139360D01*
X-65086Y139403D01*
X-64457Y140033D01*
X-63445Y141170D01*
X-63441Y141173D01*
X-63435Y141181D01*
X-62165Y142451D01*
X-62156Y142456D01*
X-62141Y142472D01*
X-60998Y143361D01*
X-60951Y143380D01*
X-60908Y143406D01*
X-60887Y143405D01*
X-60868Y143413D01*
X-60818Y143404D01*
X-60767Y143403D01*
X-60741Y143389D01*
X-60729Y143387D01*
X-60720Y143379D01*
X-60694Y143366D01*
X-55747Y139779D01*
X-54111Y140714D01*
X-54100Y140716D01*
X-54079Y140729D01*
X-52809Y141237D01*
X-52804Y141238D01*
X-52795Y141242D01*
X-51035Y141829D01*
X-50044Y147775D01*
X-50021Y147822D01*
X-50005Y147873D01*
X-49991Y147885D01*
X-49983Y147902D01*
X-49938Y147930D01*
X-49898Y147964D01*
X-49873Y147971D01*
X-49863Y147977D01*
X-49851Y147976D01*
X-49819Y147985D01*
X-48549Y148112D01*
X-48541Y148111D01*
X-48524Y148113D01*
X-45603Y148113D01*
X-45596Y148111D01*
X-45582Y148112D01*
X-44058Y147985D01*
X-44008Y147966D01*
X-43957Y147955D01*
X-43944Y147942D01*
X-43926Y147935D01*
X-43895Y147893D01*
X-43857Y147855D01*
X-43849Y147831D01*
X-43842Y147822D01*
X-43841Y147810D01*
X-43830Y147779D01*
X-42717Y141721D01*
X-41738Y141503D01*
X-41727Y141497D01*
X-41690Y141487D01*
X-39404Y140471D01*
X-39398Y140467D01*
X-39384Y140461D01*
X-38380Y139904D01*
X-33303Y143495D01*
X-33261Y143509D01*
X-33224Y143532D01*
X-33196Y143532D01*
X-33170Y143541D01*
X-33127Y143531D01*
X-33083Y143530D01*
X-33045Y143512D01*
X-33033Y143509D01*
X-33027Y143502D01*
X-33010Y143494D01*
X-32121Y142859D01*
X-32116Y142853D01*
X-32101Y142844D01*
X-31085Y141955D01*
X-31082Y141950D01*
X-31073Y141943D01*
X-29803Y140673D01*
X-29799Y140665D01*
X-29784Y140652D01*
X-28768Y139382D01*
X-28748Y139334D01*
X-28721Y139290D01*
X-28722Y139270D01*
X-28714Y139252D01*
X-28723Y139201D01*
X-28724Y139149D01*
X-28736Y139124D01*
X-28738Y139113D01*
X-28746Y139104D01*
X-28760Y139076D01*
X-32227Y134248D01*
X-32172Y134138D01*
X-31287Y132621D01*
X-31285Y132612D01*
X-31275Y132598D01*
X-30640Y131201D01*
X-30639Y131191D01*
X-30629Y131170D01*
X-30166Y129666D01*
X-24094Y128551D01*
X-24049Y128528D01*
X-24000Y128513D01*
X-23987Y128497D01*
X-23968Y128488D01*
X-23942Y128444D01*
X-23909Y128406D01*
X-23901Y128378D01*
X-23895Y128367D01*
X-23896Y128356D01*
X-23888Y128327D01*
X-23761Y127057D01*
X-23761Y127056D01*
X-23761Y127055D01*
X-23634Y125658D01*
X-23635Y125650D01*
X-23633Y125635D01*
X-23633Y122714D01*
X-23650Y122653D01*
X-23664Y122592D01*
X-23670Y122586D01*
X-23672Y122579D01*
X-23719Y122537D01*
X-23764Y122492D01*
X-23773Y122489D01*
X-23777Y122485D01*
X-23788Y122483D01*
X-23840Y122465D01*
X-29903Y121351D01*
X-30371Y119478D01*
X-30375Y119472D01*
X-30377Y119459D01*
X-30885Y117935D01*
X-30892Y117924D01*
X-30906Y117887D01*
X-31714Y116502D01*
X-28123Y111301D01*
X-28107Y111255D01*
X-28084Y111213D01*
X-28085Y111190D01*
X-28078Y111167D01*
X-28089Y111121D01*
X-28092Y111073D01*
X-28109Y111043D01*
X-28112Y111030D01*
X-28119Y111023D01*
X-28131Y111002D01*
X-29020Y109859D01*
X-29025Y109855D01*
X-29031Y109846D01*
X-30047Y108703D01*
X-30051Y108700D01*
X-30057Y108692D01*
X-30946Y107803D01*
X-30951Y107800D01*
X-30958Y107791D01*
X-31974Y106902D01*
X-32025Y106879D01*
X-32072Y106849D01*
X-32088Y106849D01*
X-32102Y106843D01*
X-32157Y106850D01*
X-32213Y106850D01*
X-32232Y106859D01*
X-32242Y106861D01*
X-32252Y106869D01*
X-32286Y106886D01*
X-37224Y110342D01*
X-38605Y109422D01*
X-38617Y109418D01*
X-38648Y109399D01*
X-40172Y108764D01*
X-40189Y108762D01*
X-40205Y108753D01*
X-40258Y108754D01*
X-40312Y108748D01*
X-40328Y108756D01*
X-40345Y108757D01*
X-40390Y108786D01*
X-40438Y108810D01*
X-40448Y108825D01*
X-40463Y108835D01*
X-40504Y108904D01*
X-44441Y118810D01*
X-44447Y118874D01*
X-44457Y118937D01*
X-44454Y118943D01*
X-44455Y118951D01*
X-44426Y119008D01*
X-44401Y119066D01*
X-44394Y119072D01*
X-44391Y119077D01*
X-44382Y119082D01*
X-44340Y119119D01*
X-43197Y119828D01*
X-42242Y120737D01*
X-41492Y121822D01*
X-40979Y123037D01*
X-40725Y124331D01*
X-40739Y125649D01*
X-41023Y126937D01*
X-41563Y128140D01*
X-42337Y129207D01*
X-43312Y130095D01*
X-44448Y130765D01*
X-45696Y131189D01*
X-47004Y131349D01*
X-48357Y131230D01*
X-49652Y130823D01*
X-50829Y130149D01*
X-51835Y129238D01*
X-52623Y128133D01*
X-53156Y126885D01*
X-53409Y125552D01*
X-53371Y124195D01*
X-53044Y122878D01*
X-52442Y121662D01*
X-51593Y120603D01*
X-50538Y119750D01*
X-49300Y119130D01*
X-49249Y119083D01*
X-49197Y119036D01*
X-49197Y119035D01*
X-49196Y119035D01*
X-49178Y118967D01*
X-49160Y118900D01*
X-49160Y118899D01*
X-49160Y118897D01*
X-49174Y118820D01*
X-52730Y108660D01*
X-52750Y108633D01*
X-52760Y108601D01*
X-52790Y108577D01*
X-52812Y108546D01*
X-52843Y108533D01*
X-52869Y108511D01*
X-52907Y108507D01*
X-52942Y108492D01*
X-52975Y108498D01*
X-53009Y108494D01*
X-53075Y108516D01*
X-53081Y108517D01*
X-53082Y108518D01*
X-53086Y108519D01*
X-55873Y109973D01*
X-60954Y106503D01*
X-61005Y106486D01*
X-61052Y106463D01*
X-61071Y106465D01*
X-61088Y106459D01*
X-61140Y106472D01*
G37*
D10*
X-372808Y18987D02*
X-372810Y19086D01*
X-372816Y19186D01*
X-372825Y19285D01*
X-372838Y19383D01*
X-372855Y19481D01*
X-372876Y19579D01*
X-372901Y19675D01*
X-372929Y19770D01*
X-372961Y19864D01*
X-372996Y19957D01*
X-373035Y20049D01*
X-373078Y20139D01*
X-373123Y20227D01*
X-373173Y20314D01*
X-373225Y20398D01*
X-373281Y20481D01*
X-373339Y20561D01*
X-373401Y20639D01*
X-373466Y20714D01*
X-373534Y20787D01*
X-373604Y20857D01*
X-373677Y20925D01*
X-373752Y20990D01*
X-373830Y21052D01*
X-373910Y21110D01*
X-373993Y21166D01*
X-374077Y21218D01*
X-374164Y21268D01*
X-374252Y21313D01*
X-374342Y21356D01*
X-374434Y21395D01*
X-374527Y21430D01*
X-374621Y21462D01*
X-374716Y21490D01*
X-374812Y21515D01*
X-374910Y21536D01*
X-375008Y21553D01*
X-375106Y21566D01*
X-375205Y21575D01*
X-375305Y21581D01*
X-375404Y21583D01*
X-372808Y18987D02*
X-372810Y18843D01*
X-372816Y18698D01*
X-372825Y18554D01*
X-372838Y18411D01*
X-372855Y18267D01*
X-372876Y18124D01*
X-372901Y17982D01*
X-372929Y17841D01*
X-372961Y17700D01*
X-372997Y17560D01*
X-373036Y17421D01*
X-373079Y17283D01*
X-373126Y17147D01*
X-373176Y17011D01*
X-373230Y16877D01*
X-373287Y16745D01*
X-373348Y16614D01*
X-373412Y16485D01*
X-373480Y16357D01*
X-373550Y16231D01*
X-373625Y16107D01*
X-373702Y15986D01*
X-373783Y15866D01*
X-373866Y15748D01*
X-373953Y15633D01*
X-374043Y15520D01*
X-374136Y15409D01*
X-374231Y15301D01*
X-374330Y15195D01*
X-374431Y15092D01*
X-381896Y15417D02*
X-381995Y15419D01*
X-382095Y15425D01*
X-382194Y15434D01*
X-382292Y15447D01*
X-382390Y15464D01*
X-382488Y15485D01*
X-382584Y15510D01*
X-382679Y15538D01*
X-382773Y15570D01*
X-382866Y15605D01*
X-382958Y15644D01*
X-383048Y15687D01*
X-383136Y15732D01*
X-383223Y15782D01*
X-383307Y15834D01*
X-383390Y15890D01*
X-383470Y15948D01*
X-383548Y16010D01*
X-383623Y16075D01*
X-383696Y16143D01*
X-383766Y16213D01*
X-383834Y16286D01*
X-383899Y16361D01*
X-383961Y16439D01*
X-384019Y16519D01*
X-384075Y16602D01*
X-384127Y16686D01*
X-384177Y16773D01*
X-384222Y16861D01*
X-384265Y16951D01*
X-384304Y17043D01*
X-384339Y17136D01*
X-384371Y17230D01*
X-384399Y17325D01*
X-384424Y17422D01*
X-384445Y17519D01*
X-384462Y17617D01*
X-384475Y17715D01*
X-384484Y17814D01*
X-384490Y17914D01*
X-384492Y18013D01*
X-384490Y18149D01*
X-384484Y18285D01*
X-384475Y18421D01*
X-384462Y18557D01*
X-384444Y18692D01*
X-384424Y18826D01*
X-384399Y18960D01*
X-384371Y19094D01*
X-384338Y19226D01*
X-384303Y19357D01*
X-384263Y19488D01*
X-384220Y19617D01*
X-384174Y19745D01*
X-384123Y19871D01*
X-384070Y19997D01*
X-384012Y20120D01*
X-383952Y20242D01*
X-383888Y20362D01*
X-383820Y20481D01*
X-383750Y20597D01*
X-383676Y20711D01*
X-383599Y20824D01*
X-383518Y20934D01*
X-379624Y16714D02*
X-379677Y16628D01*
X-379734Y16544D01*
X-379793Y16462D01*
X-379856Y16382D01*
X-379922Y16305D01*
X-379990Y16230D01*
X-380062Y16158D01*
X-380136Y16089D01*
X-380213Y16023D01*
X-380292Y15960D01*
X-380374Y15900D01*
X-380458Y15843D01*
X-380544Y15789D01*
X-380632Y15739D01*
X-380722Y15692D01*
X-380813Y15648D01*
X-380907Y15609D01*
X-381001Y15572D01*
X-381097Y15540D01*
X-381195Y15511D01*
X-381293Y15486D01*
X-381392Y15465D01*
X-381492Y15447D01*
X-381592Y15434D01*
X-381693Y15424D01*
X-381795Y15418D01*
X-381896Y15416D01*
X-377676Y20285D02*
X-377623Y20371D01*
X-377566Y20455D01*
X-377507Y20537D01*
X-377444Y20617D01*
X-377378Y20694D01*
X-377310Y20769D01*
X-377238Y20841D01*
X-377164Y20910D01*
X-377087Y20976D01*
X-377008Y21039D01*
X-376926Y21099D01*
X-376842Y21156D01*
X-376756Y21210D01*
X-376668Y21260D01*
X-376578Y21307D01*
X-376487Y21351D01*
X-376393Y21390D01*
X-376299Y21427D01*
X-376203Y21459D01*
X-376105Y21488D01*
X-376007Y21513D01*
X-375908Y21534D01*
X-375808Y21552D01*
X-375708Y21565D01*
X-375607Y21575D01*
X-375505Y21581D01*
X-375404Y21583D01*
X-377676Y20285D02*
X-379624Y16715D01*
X-384492Y26409D02*
X-372808Y26409D01*
X-380597Y26409D02*
X-380597Y29655D01*
X-380595Y29742D01*
X-380589Y29830D01*
X-380579Y29916D01*
X-380566Y30003D01*
X-380548Y30088D01*
X-380527Y30173D01*
X-380502Y30257D01*
X-380473Y30339D01*
X-380440Y30420D01*
X-380404Y30500D01*
X-380365Y30578D01*
X-380321Y30654D01*
X-380275Y30728D01*
X-380225Y30799D01*
X-380172Y30869D01*
X-380116Y30936D01*
X-380057Y31000D01*
X-379995Y31062D01*
X-379931Y31121D01*
X-379864Y31177D01*
X-379794Y31230D01*
X-379723Y31280D01*
X-379649Y31326D01*
X-379573Y31370D01*
X-379495Y31409D01*
X-379415Y31445D01*
X-379334Y31478D01*
X-379252Y31507D01*
X-379168Y31532D01*
X-379083Y31553D01*
X-378998Y31571D01*
X-378911Y31584D01*
X-378825Y31594D01*
X-378737Y31600D01*
X-378650Y31602D01*
X-372808Y31602D01*
X-374755Y37077D02*
X-380597Y37077D01*
X-374755Y37077D02*
X-374668Y37079D01*
X-374580Y37085D01*
X-374494Y37095D01*
X-374407Y37108D01*
X-374322Y37126D01*
X-374237Y37147D01*
X-374153Y37172D01*
X-374071Y37201D01*
X-373990Y37234D01*
X-373910Y37270D01*
X-373832Y37309D01*
X-373756Y37353D01*
X-373682Y37399D01*
X-373611Y37449D01*
X-373541Y37502D01*
X-373474Y37558D01*
X-373410Y37617D01*
X-373348Y37679D01*
X-373289Y37743D01*
X-373233Y37810D01*
X-373180Y37880D01*
X-373130Y37951D01*
X-373084Y38025D01*
X-373040Y38101D01*
X-373001Y38179D01*
X-372965Y38259D01*
X-372932Y38340D01*
X-372903Y38422D01*
X-372878Y38506D01*
X-372857Y38591D01*
X-372839Y38676D01*
X-372826Y38763D01*
X-372816Y38849D01*
X-372810Y38937D01*
X-372808Y39024D01*
X-372808Y42270D01*
X-380597Y42270D01*
X-380597Y46397D02*
X-380597Y50291D01*
X-384492Y47695D02*
X-374755Y47695D01*
X-374668Y47697D01*
X-374580Y47703D01*
X-374494Y47713D01*
X-374407Y47726D01*
X-374322Y47744D01*
X-374237Y47765D01*
X-374153Y47790D01*
X-374071Y47819D01*
X-373990Y47852D01*
X-373910Y47888D01*
X-373832Y47927D01*
X-373756Y47971D01*
X-373682Y48017D01*
X-373611Y48067D01*
X-373541Y48120D01*
X-373474Y48176D01*
X-373410Y48235D01*
X-373348Y48297D01*
X-373289Y48361D01*
X-373233Y48428D01*
X-373180Y48498D01*
X-373130Y48569D01*
X-373084Y48643D01*
X-373040Y48719D01*
X-373001Y48797D01*
X-372965Y48877D01*
X-372932Y48958D01*
X-372903Y49040D01*
X-372878Y49124D01*
X-372857Y49209D01*
X-372839Y49294D01*
X-372826Y49381D01*
X-372816Y49467D01*
X-372810Y49555D01*
X-372808Y49642D01*
X-372808Y50291D01*
X-380597Y53636D02*
X-380597Y57530D01*
X-384492Y54934D02*
X-374755Y54934D01*
X-374668Y54936D01*
X-374580Y54942D01*
X-374494Y54952D01*
X-374407Y54965D01*
X-374322Y54983D01*
X-374237Y55004D01*
X-374153Y55029D01*
X-374071Y55058D01*
X-373990Y55091D01*
X-373910Y55127D01*
X-373832Y55166D01*
X-373756Y55210D01*
X-373682Y55256D01*
X-373611Y55306D01*
X-373541Y55359D01*
X-373474Y55415D01*
X-373410Y55474D01*
X-373348Y55536D01*
X-373289Y55600D01*
X-373233Y55667D01*
X-373180Y55737D01*
X-373130Y55808D01*
X-373084Y55882D01*
X-373040Y55958D01*
X-373001Y56036D01*
X-372965Y56116D01*
X-372932Y56197D01*
X-372903Y56279D01*
X-372878Y56363D01*
X-372857Y56448D01*
X-372839Y56533D01*
X-372826Y56620D01*
X-372816Y56706D01*
X-372810Y56794D01*
X-372808Y56881D01*
X-372808Y57530D01*
X-372808Y63789D02*
X-372808Y67035D01*
X-372808Y63789D02*
X-372810Y63702D01*
X-372816Y63614D01*
X-372826Y63528D01*
X-372839Y63441D01*
X-372857Y63356D01*
X-372878Y63271D01*
X-372903Y63187D01*
X-372932Y63105D01*
X-372965Y63024D01*
X-373001Y62944D01*
X-373040Y62866D01*
X-373084Y62790D01*
X-373130Y62716D01*
X-373180Y62645D01*
X-373233Y62575D01*
X-373289Y62508D01*
X-373348Y62444D01*
X-373410Y62382D01*
X-373474Y62323D01*
X-373541Y62267D01*
X-373611Y62214D01*
X-373682Y62164D01*
X-373756Y62118D01*
X-373832Y62074D01*
X-373910Y62035D01*
X-373990Y61999D01*
X-374071Y61966D01*
X-374153Y61937D01*
X-374237Y61912D01*
X-374322Y61891D01*
X-374407Y61873D01*
X-374494Y61860D01*
X-374580Y61850D01*
X-374668Y61844D01*
X-374755Y61842D01*
X-378001Y61842D01*
X-378102Y61844D01*
X-378202Y61850D01*
X-378302Y61860D01*
X-378402Y61873D01*
X-378501Y61891D01*
X-378600Y61912D01*
X-378697Y61937D01*
X-378794Y61966D01*
X-378889Y61999D01*
X-378983Y62035D01*
X-379075Y62075D01*
X-379166Y62118D01*
X-379255Y62165D01*
X-379342Y62215D01*
X-379428Y62269D01*
X-379511Y62326D01*
X-379591Y62386D01*
X-379670Y62449D01*
X-379746Y62516D01*
X-379819Y62585D01*
X-379889Y62657D01*
X-379957Y62731D01*
X-380022Y62808D01*
X-380083Y62888D01*
X-380142Y62970D01*
X-380197Y63054D01*
X-380249Y63140D01*
X-380298Y63228D01*
X-380343Y63318D01*
X-380385Y63410D01*
X-380423Y63503D01*
X-380457Y63598D01*
X-380488Y63693D01*
X-380515Y63790D01*
X-380538Y63888D01*
X-380558Y63987D01*
X-380573Y64087D01*
X-380585Y64187D01*
X-380593Y64287D01*
X-380597Y64388D01*
X-380597Y64488D01*
X-380593Y64589D01*
X-380585Y64689D01*
X-380573Y64789D01*
X-380558Y64889D01*
X-380538Y64988D01*
X-380515Y65086D01*
X-380488Y65183D01*
X-380457Y65278D01*
X-380423Y65373D01*
X-380385Y65466D01*
X-380343Y65558D01*
X-380298Y65648D01*
X-380249Y65736D01*
X-380197Y65822D01*
X-380142Y65906D01*
X-380083Y65988D01*
X-380022Y66068D01*
X-379957Y66145D01*
X-379889Y66219D01*
X-379819Y66291D01*
X-379746Y66360D01*
X-379670Y66427D01*
X-379591Y66490D01*
X-379511Y66550D01*
X-379428Y66607D01*
X-379342Y66661D01*
X-379255Y66711D01*
X-379166Y66758D01*
X-379075Y66801D01*
X-378983Y66841D01*
X-378889Y66877D01*
X-378794Y66910D01*
X-378697Y66939D01*
X-378600Y66964D01*
X-378501Y66985D01*
X-378402Y67003D01*
X-378302Y67016D01*
X-378202Y67026D01*
X-378102Y67032D01*
X-378001Y67034D01*
X-378001Y67035D02*
X-376703Y67035D01*
X-376703Y61842D01*
X-372808Y72195D02*
X-380597Y72195D01*
X-380597Y76090D01*
X-379299Y76090D01*
X-384492Y86452D02*
X-372808Y86452D01*
X-378001Y90346D02*
X-384492Y86452D01*
X-378001Y90346D02*
X-384492Y94241D01*
X-372808Y94241D01*
X-375404Y99561D02*
X-378001Y99561D01*
X-378102Y99563D01*
X-378202Y99569D01*
X-378302Y99579D01*
X-378402Y99592D01*
X-378501Y99610D01*
X-378600Y99631D01*
X-378697Y99656D01*
X-378794Y99685D01*
X-378889Y99718D01*
X-378983Y99754D01*
X-379075Y99794D01*
X-379166Y99837D01*
X-379255Y99884D01*
X-379342Y99934D01*
X-379428Y99988D01*
X-379511Y100045D01*
X-379591Y100105D01*
X-379670Y100168D01*
X-379746Y100235D01*
X-379819Y100304D01*
X-379889Y100376D01*
X-379957Y100450D01*
X-380022Y100527D01*
X-380083Y100607D01*
X-380142Y100689D01*
X-380197Y100773D01*
X-380249Y100859D01*
X-380298Y100947D01*
X-380343Y101037D01*
X-380385Y101129D01*
X-380423Y101222D01*
X-380457Y101317D01*
X-380488Y101412D01*
X-380515Y101509D01*
X-380538Y101607D01*
X-380558Y101706D01*
X-380573Y101806D01*
X-380585Y101906D01*
X-380593Y102006D01*
X-380597Y102107D01*
X-380597Y102207D01*
X-380593Y102308D01*
X-380585Y102408D01*
X-380573Y102508D01*
X-380558Y102608D01*
X-380538Y102707D01*
X-380515Y102805D01*
X-380488Y102902D01*
X-380457Y102997D01*
X-380423Y103092D01*
X-380385Y103185D01*
X-380343Y103277D01*
X-380298Y103367D01*
X-380249Y103455D01*
X-380197Y103541D01*
X-380142Y103625D01*
X-380083Y103707D01*
X-380022Y103787D01*
X-379957Y103864D01*
X-379889Y103938D01*
X-379819Y104010D01*
X-379746Y104079D01*
X-379670Y104146D01*
X-379591Y104209D01*
X-379511Y104269D01*
X-379428Y104326D01*
X-379342Y104380D01*
X-379255Y104430D01*
X-379166Y104477D01*
X-379075Y104520D01*
X-378983Y104560D01*
X-378889Y104596D01*
X-378794Y104629D01*
X-378697Y104658D01*
X-378600Y104683D01*
X-378501Y104704D01*
X-378402Y104722D01*
X-378302Y104735D01*
X-378202Y104745D01*
X-378102Y104751D01*
X-378001Y104753D01*
X-378001Y104754D02*
X-375404Y104754D01*
X-375404Y104753D02*
X-375303Y104751D01*
X-375203Y104745D01*
X-375103Y104735D01*
X-375003Y104722D01*
X-374904Y104704D01*
X-374805Y104683D01*
X-374708Y104658D01*
X-374611Y104629D01*
X-374516Y104596D01*
X-374422Y104560D01*
X-374330Y104520D01*
X-374239Y104477D01*
X-374150Y104430D01*
X-374063Y104380D01*
X-373977Y104326D01*
X-373894Y104269D01*
X-373814Y104209D01*
X-373735Y104146D01*
X-373659Y104079D01*
X-373586Y104010D01*
X-373516Y103938D01*
X-373448Y103864D01*
X-373383Y103787D01*
X-373322Y103707D01*
X-373263Y103625D01*
X-373208Y103541D01*
X-373156Y103455D01*
X-373107Y103367D01*
X-373062Y103277D01*
X-373020Y103185D01*
X-372982Y103092D01*
X-372948Y102997D01*
X-372917Y102902D01*
X-372890Y102805D01*
X-372867Y102707D01*
X-372847Y102608D01*
X-372832Y102508D01*
X-372820Y102408D01*
X-372812Y102308D01*
X-372808Y102207D01*
X-372808Y102107D01*
X-372812Y102006D01*
X-372820Y101906D01*
X-372832Y101806D01*
X-372847Y101706D01*
X-372867Y101607D01*
X-372890Y101509D01*
X-372917Y101412D01*
X-372948Y101317D01*
X-372982Y101222D01*
X-373020Y101129D01*
X-373062Y101037D01*
X-373107Y100947D01*
X-373156Y100859D01*
X-373208Y100773D01*
X-373263Y100689D01*
X-373322Y100607D01*
X-373383Y100527D01*
X-373448Y100450D01*
X-373516Y100376D01*
X-373586Y100304D01*
X-373659Y100235D01*
X-373735Y100168D01*
X-373814Y100105D01*
X-373894Y100045D01*
X-373977Y99988D01*
X-374063Y99934D01*
X-374150Y99884D01*
X-374239Y99837D01*
X-374330Y99794D01*
X-374422Y99754D01*
X-374516Y99718D01*
X-374611Y99685D01*
X-374708Y99656D01*
X-374805Y99631D01*
X-374904Y99610D01*
X-375003Y99592D01*
X-375103Y99579D01*
X-375203Y99569D01*
X-375303Y99563D01*
X-375404Y99561D01*
X-380597Y108500D02*
X-380597Y112394D01*
X-384492Y109798D02*
X-374755Y109798D01*
X-374668Y109800D01*
X-374580Y109806D01*
X-374494Y109816D01*
X-374407Y109829D01*
X-374322Y109847D01*
X-374237Y109868D01*
X-374153Y109893D01*
X-374071Y109922D01*
X-373990Y109955D01*
X-373910Y109991D01*
X-373832Y110030D01*
X-373756Y110074D01*
X-373682Y110120D01*
X-373611Y110170D01*
X-373541Y110223D01*
X-373474Y110279D01*
X-373410Y110338D01*
X-373348Y110400D01*
X-373289Y110464D01*
X-373233Y110531D01*
X-373180Y110601D01*
X-373130Y110672D01*
X-373084Y110746D01*
X-373040Y110822D01*
X-373001Y110900D01*
X-372965Y110980D01*
X-372932Y111061D01*
X-372903Y111143D01*
X-372878Y111227D01*
X-372857Y111312D01*
X-372839Y111397D01*
X-372826Y111484D01*
X-372816Y111570D01*
X-372810Y111658D01*
X-372808Y111745D01*
X-372808Y112394D01*
X-375404Y116706D02*
X-378001Y116706D01*
X-378102Y116708D01*
X-378202Y116714D01*
X-378302Y116724D01*
X-378402Y116737D01*
X-378501Y116755D01*
X-378600Y116776D01*
X-378697Y116801D01*
X-378794Y116830D01*
X-378889Y116863D01*
X-378983Y116899D01*
X-379075Y116939D01*
X-379166Y116982D01*
X-379255Y117029D01*
X-379342Y117079D01*
X-379428Y117133D01*
X-379511Y117190D01*
X-379591Y117250D01*
X-379670Y117313D01*
X-379746Y117380D01*
X-379819Y117449D01*
X-379889Y117521D01*
X-379957Y117595D01*
X-380022Y117672D01*
X-380083Y117752D01*
X-380142Y117834D01*
X-380197Y117918D01*
X-380249Y118004D01*
X-380298Y118092D01*
X-380343Y118182D01*
X-380385Y118274D01*
X-380423Y118367D01*
X-380457Y118462D01*
X-380488Y118557D01*
X-380515Y118654D01*
X-380538Y118752D01*
X-380558Y118851D01*
X-380573Y118951D01*
X-380585Y119051D01*
X-380593Y119151D01*
X-380597Y119252D01*
X-380597Y119352D01*
X-380593Y119453D01*
X-380585Y119553D01*
X-380573Y119653D01*
X-380558Y119753D01*
X-380538Y119852D01*
X-380515Y119950D01*
X-380488Y120047D01*
X-380457Y120142D01*
X-380423Y120237D01*
X-380385Y120330D01*
X-380343Y120422D01*
X-380298Y120512D01*
X-380249Y120600D01*
X-380197Y120686D01*
X-380142Y120770D01*
X-380083Y120852D01*
X-380022Y120932D01*
X-379957Y121009D01*
X-379889Y121083D01*
X-379819Y121155D01*
X-379746Y121224D01*
X-379670Y121291D01*
X-379591Y121354D01*
X-379511Y121414D01*
X-379428Y121471D01*
X-379342Y121525D01*
X-379255Y121575D01*
X-379166Y121622D01*
X-379075Y121665D01*
X-378983Y121705D01*
X-378889Y121741D01*
X-378794Y121774D01*
X-378697Y121803D01*
X-378600Y121828D01*
X-378501Y121849D01*
X-378402Y121867D01*
X-378302Y121880D01*
X-378202Y121890D01*
X-378102Y121896D01*
X-378001Y121898D01*
X-378001Y121899D02*
X-375404Y121899D01*
X-375404Y121898D02*
X-375303Y121896D01*
X-375203Y121890D01*
X-375103Y121880D01*
X-375003Y121867D01*
X-374904Y121849D01*
X-374805Y121828D01*
X-374708Y121803D01*
X-374611Y121774D01*
X-374516Y121741D01*
X-374422Y121705D01*
X-374330Y121665D01*
X-374239Y121622D01*
X-374150Y121575D01*
X-374063Y121525D01*
X-373977Y121471D01*
X-373894Y121414D01*
X-373814Y121354D01*
X-373735Y121291D01*
X-373659Y121224D01*
X-373586Y121155D01*
X-373516Y121083D01*
X-373448Y121009D01*
X-373383Y120932D01*
X-373322Y120852D01*
X-373263Y120770D01*
X-373208Y120686D01*
X-373156Y120600D01*
X-373107Y120512D01*
X-373062Y120422D01*
X-373020Y120330D01*
X-372982Y120237D01*
X-372948Y120142D01*
X-372917Y120047D01*
X-372890Y119950D01*
X-372867Y119852D01*
X-372847Y119753D01*
X-372832Y119653D01*
X-372820Y119553D01*
X-372812Y119453D01*
X-372808Y119352D01*
X-372808Y119252D01*
X-372812Y119151D01*
X-372820Y119051D01*
X-372832Y118951D01*
X-372847Y118851D01*
X-372867Y118752D01*
X-372890Y118654D01*
X-372917Y118557D01*
X-372948Y118462D01*
X-372982Y118367D01*
X-373020Y118274D01*
X-373062Y118182D01*
X-373107Y118092D01*
X-373156Y118004D01*
X-373208Y117918D01*
X-373263Y117834D01*
X-373322Y117752D01*
X-373383Y117672D01*
X-373448Y117595D01*
X-373516Y117521D01*
X-373586Y117449D01*
X-373659Y117380D01*
X-373735Y117313D01*
X-373814Y117250D01*
X-373894Y117190D01*
X-373977Y117133D01*
X-374063Y117079D01*
X-374150Y117029D01*
X-374239Y116982D01*
X-374330Y116939D01*
X-374422Y116899D01*
X-374516Y116863D01*
X-374611Y116830D01*
X-374708Y116801D01*
X-374805Y116776D01*
X-374904Y116755D01*
X-375003Y116737D01*
X-375103Y116724D01*
X-375203Y116714D01*
X-375303Y116708D01*
X-375404Y116706D01*
X-372808Y127059D02*
X-380597Y127059D01*
X-380597Y130954D01*
X-379299Y130954D01*
X-384492Y141276D02*
X-372808Y141276D01*
X-384492Y141276D02*
X-384492Y144522D01*
X-384490Y144635D01*
X-384484Y144748D01*
X-384474Y144861D01*
X-384460Y144974D01*
X-384443Y145086D01*
X-384421Y145197D01*
X-384396Y145307D01*
X-384366Y145417D01*
X-384333Y145525D01*
X-384296Y145632D01*
X-384256Y145738D01*
X-384211Y145842D01*
X-384163Y145945D01*
X-384112Y146046D01*
X-384057Y146145D01*
X-383999Y146242D01*
X-383937Y146337D01*
X-383872Y146430D01*
X-383804Y146520D01*
X-383733Y146608D01*
X-383658Y146694D01*
X-383581Y146777D01*
X-383501Y146857D01*
X-383418Y146934D01*
X-383332Y147009D01*
X-383244Y147080D01*
X-383154Y147148D01*
X-383061Y147213D01*
X-382966Y147275D01*
X-382869Y147333D01*
X-382770Y147388D01*
X-382669Y147439D01*
X-382566Y147487D01*
X-382462Y147532D01*
X-382356Y147572D01*
X-382249Y147609D01*
X-382141Y147642D01*
X-382031Y147672D01*
X-381921Y147697D01*
X-381810Y147719D01*
X-381698Y147736D01*
X-381585Y147750D01*
X-381472Y147760D01*
X-381359Y147766D01*
X-381246Y147768D01*
X-381133Y147766D01*
X-381020Y147760D01*
X-380907Y147750D01*
X-380794Y147736D01*
X-380682Y147719D01*
X-380571Y147697D01*
X-380461Y147672D01*
X-380351Y147642D01*
X-380243Y147609D01*
X-380136Y147572D01*
X-380030Y147532D01*
X-379926Y147487D01*
X-379823Y147439D01*
X-379722Y147388D01*
X-379623Y147333D01*
X-379526Y147275D01*
X-379431Y147213D01*
X-379338Y147148D01*
X-379248Y147080D01*
X-379160Y147009D01*
X-379074Y146934D01*
X-378991Y146857D01*
X-378911Y146777D01*
X-378834Y146694D01*
X-378759Y146608D01*
X-378688Y146520D01*
X-378620Y146430D01*
X-378555Y146337D01*
X-378493Y146242D01*
X-378435Y146145D01*
X-378380Y146046D01*
X-378329Y145945D01*
X-378281Y145842D01*
X-378236Y145738D01*
X-378196Y145632D01*
X-378159Y145525D01*
X-378126Y145417D01*
X-378096Y145307D01*
X-378071Y145197D01*
X-378049Y145086D01*
X-378032Y144974D01*
X-378018Y144861D01*
X-378008Y144748D01*
X-378002Y144635D01*
X-378000Y144522D01*
X-378001Y144522D02*
X-378001Y141276D01*
X-378001Y145171D02*
X-372808Y147768D01*
X-372808Y154467D02*
X-372808Y157713D01*
X-372808Y154467D02*
X-372810Y154380D01*
X-372816Y154292D01*
X-372826Y154206D01*
X-372839Y154119D01*
X-372857Y154034D01*
X-372878Y153949D01*
X-372903Y153865D01*
X-372932Y153783D01*
X-372965Y153702D01*
X-373001Y153622D01*
X-373040Y153544D01*
X-373084Y153468D01*
X-373130Y153394D01*
X-373180Y153323D01*
X-373233Y153253D01*
X-373289Y153186D01*
X-373348Y153122D01*
X-373410Y153060D01*
X-373474Y153001D01*
X-373541Y152945D01*
X-373611Y152892D01*
X-373682Y152842D01*
X-373756Y152796D01*
X-373832Y152752D01*
X-373910Y152713D01*
X-373990Y152677D01*
X-374071Y152644D01*
X-374153Y152615D01*
X-374237Y152590D01*
X-374322Y152569D01*
X-374407Y152551D01*
X-374494Y152538D01*
X-374580Y152528D01*
X-374668Y152522D01*
X-374755Y152520D01*
X-378001Y152520D01*
X-378102Y152522D01*
X-378202Y152528D01*
X-378302Y152538D01*
X-378402Y152551D01*
X-378501Y152569D01*
X-378600Y152590D01*
X-378697Y152615D01*
X-378794Y152644D01*
X-378889Y152677D01*
X-378983Y152713D01*
X-379075Y152753D01*
X-379166Y152796D01*
X-379255Y152843D01*
X-379342Y152893D01*
X-379428Y152947D01*
X-379511Y153004D01*
X-379591Y153064D01*
X-379670Y153127D01*
X-379746Y153194D01*
X-379819Y153263D01*
X-379889Y153335D01*
X-379957Y153409D01*
X-380022Y153486D01*
X-380083Y153566D01*
X-380142Y153648D01*
X-380197Y153732D01*
X-380249Y153818D01*
X-380298Y153906D01*
X-380343Y153996D01*
X-380385Y154088D01*
X-380423Y154181D01*
X-380457Y154276D01*
X-380488Y154371D01*
X-380515Y154468D01*
X-380538Y154566D01*
X-380558Y154665D01*
X-380573Y154765D01*
X-380585Y154865D01*
X-380593Y154965D01*
X-380597Y155066D01*
X-380597Y155166D01*
X-380593Y155267D01*
X-380585Y155367D01*
X-380573Y155467D01*
X-380558Y155567D01*
X-380538Y155666D01*
X-380515Y155764D01*
X-380488Y155861D01*
X-380457Y155956D01*
X-380423Y156051D01*
X-380385Y156144D01*
X-380343Y156236D01*
X-380298Y156326D01*
X-380249Y156414D01*
X-380197Y156500D01*
X-380142Y156584D01*
X-380083Y156666D01*
X-380022Y156746D01*
X-379957Y156823D01*
X-379889Y156897D01*
X-379819Y156969D01*
X-379746Y157038D01*
X-379670Y157105D01*
X-379591Y157168D01*
X-379511Y157228D01*
X-379428Y157285D01*
X-379342Y157339D01*
X-379255Y157389D01*
X-379166Y157436D01*
X-379075Y157479D01*
X-378983Y157519D01*
X-378889Y157555D01*
X-378794Y157588D01*
X-378697Y157617D01*
X-378600Y157642D01*
X-378501Y157663D01*
X-378402Y157681D01*
X-378302Y157694D01*
X-378202Y157704D01*
X-378102Y157710D01*
X-378001Y157712D01*
X-378001Y157713D02*
X-376703Y157713D01*
X-376703Y152520D01*
X-380597Y163033D02*
X-372808Y163033D01*
X-380597Y163033D02*
X-380597Y168875D01*
X-380595Y168962D01*
X-380589Y169050D01*
X-380579Y169136D01*
X-380566Y169223D01*
X-380548Y169308D01*
X-380527Y169393D01*
X-380502Y169477D01*
X-380473Y169559D01*
X-380440Y169640D01*
X-380404Y169720D01*
X-380365Y169798D01*
X-380321Y169874D01*
X-380275Y169948D01*
X-380225Y170019D01*
X-380172Y170089D01*
X-380116Y170156D01*
X-380057Y170220D01*
X-379995Y170282D01*
X-379931Y170341D01*
X-379864Y170397D01*
X-379794Y170450D01*
X-379723Y170500D01*
X-379649Y170546D01*
X-379573Y170590D01*
X-379495Y170629D01*
X-379415Y170665D01*
X-379334Y170698D01*
X-379252Y170727D01*
X-379168Y170752D01*
X-379083Y170773D01*
X-378998Y170791D01*
X-378911Y170804D01*
X-378825Y170814D01*
X-378737Y170820D01*
X-378650Y170822D01*
X-372808Y170822D01*
X-372808Y166927D02*
X-380597Y166927D01*
X-378001Y176142D02*
X-375404Y176142D01*
X-378001Y176142D02*
X-378102Y176144D01*
X-378202Y176150D01*
X-378302Y176160D01*
X-378402Y176173D01*
X-378501Y176191D01*
X-378600Y176212D01*
X-378697Y176237D01*
X-378794Y176266D01*
X-378889Y176299D01*
X-378983Y176335D01*
X-379075Y176375D01*
X-379166Y176418D01*
X-379255Y176465D01*
X-379342Y176515D01*
X-379428Y176569D01*
X-379511Y176626D01*
X-379591Y176686D01*
X-379670Y176749D01*
X-379746Y176816D01*
X-379819Y176885D01*
X-379889Y176957D01*
X-379957Y177031D01*
X-380022Y177108D01*
X-380083Y177188D01*
X-380142Y177270D01*
X-380197Y177354D01*
X-380249Y177440D01*
X-380298Y177528D01*
X-380343Y177618D01*
X-380385Y177710D01*
X-380423Y177803D01*
X-380457Y177898D01*
X-380488Y177993D01*
X-380515Y178090D01*
X-380538Y178188D01*
X-380558Y178287D01*
X-380573Y178387D01*
X-380585Y178487D01*
X-380593Y178587D01*
X-380597Y178688D01*
X-380597Y178788D01*
X-380593Y178889D01*
X-380585Y178989D01*
X-380573Y179089D01*
X-380558Y179189D01*
X-380538Y179288D01*
X-380515Y179386D01*
X-380488Y179483D01*
X-380457Y179578D01*
X-380423Y179673D01*
X-380385Y179766D01*
X-380343Y179858D01*
X-380298Y179948D01*
X-380249Y180036D01*
X-380197Y180122D01*
X-380142Y180206D01*
X-380083Y180288D01*
X-380022Y180368D01*
X-379957Y180445D01*
X-379889Y180519D01*
X-379819Y180591D01*
X-379746Y180660D01*
X-379670Y180727D01*
X-379591Y180790D01*
X-379511Y180850D01*
X-379428Y180907D01*
X-379342Y180961D01*
X-379255Y181011D01*
X-379166Y181058D01*
X-379075Y181101D01*
X-378983Y181141D01*
X-378889Y181177D01*
X-378794Y181210D01*
X-378697Y181239D01*
X-378600Y181264D01*
X-378501Y181285D01*
X-378402Y181303D01*
X-378302Y181316D01*
X-378202Y181326D01*
X-378102Y181332D01*
X-378001Y181334D01*
X-378001Y181335D02*
X-375404Y181335D01*
X-375404Y181334D02*
X-375303Y181332D01*
X-375203Y181326D01*
X-375103Y181316D01*
X-375003Y181303D01*
X-374904Y181285D01*
X-374805Y181264D01*
X-374708Y181239D01*
X-374611Y181210D01*
X-374516Y181177D01*
X-374422Y181141D01*
X-374330Y181101D01*
X-374239Y181058D01*
X-374150Y181011D01*
X-374063Y180961D01*
X-373977Y180907D01*
X-373894Y180850D01*
X-373814Y180790D01*
X-373735Y180727D01*
X-373659Y180660D01*
X-373586Y180591D01*
X-373516Y180519D01*
X-373448Y180445D01*
X-373383Y180368D01*
X-373322Y180288D01*
X-373263Y180206D01*
X-373208Y180122D01*
X-373156Y180036D01*
X-373107Y179948D01*
X-373062Y179858D01*
X-373020Y179766D01*
X-372982Y179673D01*
X-372948Y179578D01*
X-372917Y179483D01*
X-372890Y179386D01*
X-372867Y179288D01*
X-372847Y179189D01*
X-372832Y179089D01*
X-372820Y178989D01*
X-372812Y178889D01*
X-372808Y178788D01*
X-372808Y178688D01*
X-372812Y178587D01*
X-372820Y178487D01*
X-372832Y178387D01*
X-372847Y178287D01*
X-372867Y178188D01*
X-372890Y178090D01*
X-372917Y177993D01*
X-372948Y177898D01*
X-372982Y177803D01*
X-373020Y177710D01*
X-373062Y177618D01*
X-373107Y177528D01*
X-373156Y177440D01*
X-373208Y177354D01*
X-373263Y177270D01*
X-373322Y177188D01*
X-373383Y177108D01*
X-373448Y177031D01*
X-373516Y176957D01*
X-373586Y176885D01*
X-373659Y176816D01*
X-373735Y176749D01*
X-373814Y176686D01*
X-373894Y176626D01*
X-373977Y176569D01*
X-374063Y176515D01*
X-374150Y176465D01*
X-374239Y176418D01*
X-374330Y176375D01*
X-374422Y176335D01*
X-374516Y176299D01*
X-374611Y176266D01*
X-374708Y176237D01*
X-374805Y176212D01*
X-374904Y176191D01*
X-375003Y176173D01*
X-375103Y176160D01*
X-375203Y176150D01*
X-375303Y176144D01*
X-375404Y176142D01*
X-380597Y185081D02*
X-380597Y188975D01*
X-384492Y186379D02*
X-374755Y186379D01*
X-374668Y186381D01*
X-374580Y186387D01*
X-374494Y186397D01*
X-374407Y186410D01*
X-374322Y186428D01*
X-374237Y186449D01*
X-374153Y186474D01*
X-374071Y186503D01*
X-373990Y186536D01*
X-373910Y186572D01*
X-373832Y186611D01*
X-373756Y186655D01*
X-373682Y186701D01*
X-373611Y186751D01*
X-373541Y186804D01*
X-373474Y186860D01*
X-373410Y186919D01*
X-373348Y186981D01*
X-373289Y187045D01*
X-373233Y187112D01*
X-373180Y187182D01*
X-373130Y187253D01*
X-373084Y187327D01*
X-373040Y187403D01*
X-373001Y187481D01*
X-372965Y187561D01*
X-372932Y187642D01*
X-372903Y187724D01*
X-372878Y187808D01*
X-372857Y187893D01*
X-372839Y187978D01*
X-372826Y188065D01*
X-372816Y188151D01*
X-372810Y188239D01*
X-372808Y188326D01*
X-372808Y188975D01*
X-372808Y195234D02*
X-372808Y198480D01*
X-372808Y195234D02*
X-372810Y195147D01*
X-372816Y195059D01*
X-372826Y194973D01*
X-372839Y194886D01*
X-372857Y194801D01*
X-372878Y194716D01*
X-372903Y194632D01*
X-372932Y194550D01*
X-372965Y194469D01*
X-373001Y194389D01*
X-373040Y194311D01*
X-373084Y194235D01*
X-373130Y194161D01*
X-373180Y194090D01*
X-373233Y194020D01*
X-373289Y193953D01*
X-373348Y193889D01*
X-373410Y193827D01*
X-373474Y193768D01*
X-373541Y193712D01*
X-373611Y193659D01*
X-373682Y193609D01*
X-373756Y193563D01*
X-373832Y193519D01*
X-373910Y193480D01*
X-373990Y193444D01*
X-374071Y193411D01*
X-374153Y193382D01*
X-374237Y193357D01*
X-374322Y193336D01*
X-374407Y193318D01*
X-374494Y193305D01*
X-374580Y193295D01*
X-374668Y193289D01*
X-374755Y193287D01*
X-378001Y193287D01*
X-378102Y193289D01*
X-378202Y193295D01*
X-378302Y193305D01*
X-378402Y193318D01*
X-378501Y193336D01*
X-378600Y193357D01*
X-378697Y193382D01*
X-378794Y193411D01*
X-378889Y193444D01*
X-378983Y193480D01*
X-379075Y193520D01*
X-379166Y193563D01*
X-379255Y193610D01*
X-379342Y193660D01*
X-379428Y193714D01*
X-379511Y193771D01*
X-379591Y193831D01*
X-379670Y193894D01*
X-379746Y193961D01*
X-379819Y194030D01*
X-379889Y194102D01*
X-379957Y194176D01*
X-380022Y194253D01*
X-380083Y194333D01*
X-380142Y194415D01*
X-380197Y194499D01*
X-380249Y194585D01*
X-380298Y194673D01*
X-380343Y194763D01*
X-380385Y194855D01*
X-380423Y194948D01*
X-380457Y195043D01*
X-380488Y195138D01*
X-380515Y195235D01*
X-380538Y195333D01*
X-380558Y195432D01*
X-380573Y195532D01*
X-380585Y195632D01*
X-380593Y195732D01*
X-380597Y195833D01*
X-380597Y195933D01*
X-380593Y196034D01*
X-380585Y196134D01*
X-380573Y196234D01*
X-380558Y196334D01*
X-380538Y196433D01*
X-380515Y196531D01*
X-380488Y196628D01*
X-380457Y196723D01*
X-380423Y196818D01*
X-380385Y196911D01*
X-380343Y197003D01*
X-380298Y197093D01*
X-380249Y197181D01*
X-380197Y197267D01*
X-380142Y197351D01*
X-380083Y197433D01*
X-380022Y197513D01*
X-379957Y197590D01*
X-379889Y197664D01*
X-379819Y197736D01*
X-379746Y197805D01*
X-379670Y197872D01*
X-379591Y197935D01*
X-379511Y197995D01*
X-379428Y198052D01*
X-379342Y198106D01*
X-379255Y198156D01*
X-379166Y198203D01*
X-379075Y198246D01*
X-378983Y198286D01*
X-378889Y198322D01*
X-378794Y198355D01*
X-378697Y198384D01*
X-378600Y198409D01*
X-378501Y198430D01*
X-378402Y198448D01*
X-378302Y198461D01*
X-378202Y198471D01*
X-378102Y198477D01*
X-378001Y198479D01*
X-378001Y198480D02*
X-376703Y198480D01*
X-376703Y193287D01*
X-365442Y15092D02*
X-353758Y15092D01*
X-365442Y15092D02*
X-365442Y18337D01*
X-365440Y18450D01*
X-365434Y18563D01*
X-365424Y18676D01*
X-365410Y18789D01*
X-365393Y18901D01*
X-365371Y19012D01*
X-365346Y19122D01*
X-365316Y19232D01*
X-365283Y19340D01*
X-365246Y19447D01*
X-365206Y19553D01*
X-365161Y19657D01*
X-365113Y19760D01*
X-365062Y19861D01*
X-365007Y19960D01*
X-364949Y20057D01*
X-364887Y20152D01*
X-364822Y20245D01*
X-364754Y20335D01*
X-364683Y20423D01*
X-364608Y20509D01*
X-364531Y20592D01*
X-364451Y20672D01*
X-364368Y20749D01*
X-364282Y20824D01*
X-364194Y20895D01*
X-364104Y20963D01*
X-364011Y21028D01*
X-363916Y21090D01*
X-363819Y21148D01*
X-363720Y21203D01*
X-363619Y21254D01*
X-363516Y21302D01*
X-363412Y21347D01*
X-363306Y21387D01*
X-363199Y21424D01*
X-363091Y21457D01*
X-362981Y21487D01*
X-362871Y21512D01*
X-362760Y21534D01*
X-362648Y21551D01*
X-362535Y21565D01*
X-362422Y21575D01*
X-362309Y21581D01*
X-362196Y21583D01*
X-362083Y21581D01*
X-361970Y21575D01*
X-361857Y21565D01*
X-361744Y21551D01*
X-361632Y21534D01*
X-361521Y21512D01*
X-361411Y21487D01*
X-361301Y21457D01*
X-361193Y21424D01*
X-361086Y21387D01*
X-360980Y21347D01*
X-360876Y21302D01*
X-360773Y21254D01*
X-360672Y21203D01*
X-360573Y21148D01*
X-360476Y21090D01*
X-360381Y21028D01*
X-360288Y20963D01*
X-360198Y20895D01*
X-360110Y20824D01*
X-360024Y20749D01*
X-359941Y20672D01*
X-359861Y20592D01*
X-359784Y20509D01*
X-359709Y20423D01*
X-359638Y20335D01*
X-359570Y20245D01*
X-359505Y20152D01*
X-359443Y20057D01*
X-359385Y19960D01*
X-359330Y19861D01*
X-359279Y19760D01*
X-359231Y19657D01*
X-359186Y19553D01*
X-359146Y19447D01*
X-359109Y19340D01*
X-359076Y19232D01*
X-359046Y19122D01*
X-359021Y19012D01*
X-358999Y18901D01*
X-358982Y18789D01*
X-358968Y18676D01*
X-358958Y18563D01*
X-358952Y18450D01*
X-358950Y18337D01*
X-358951Y18337D02*
X-358951Y15092D01*
X-358951Y18987D02*
X-353758Y21583D01*
X-353758Y28283D02*
X-353758Y31528D01*
X-353758Y28283D02*
X-353760Y28196D01*
X-353766Y28108D01*
X-353776Y28022D01*
X-353789Y27935D01*
X-353807Y27850D01*
X-353828Y27765D01*
X-353853Y27681D01*
X-353882Y27599D01*
X-353915Y27518D01*
X-353951Y27438D01*
X-353990Y27360D01*
X-354034Y27284D01*
X-354080Y27210D01*
X-354130Y27139D01*
X-354183Y27069D01*
X-354239Y27002D01*
X-354298Y26938D01*
X-354360Y26876D01*
X-354424Y26817D01*
X-354491Y26761D01*
X-354561Y26708D01*
X-354632Y26658D01*
X-354706Y26612D01*
X-354782Y26568D01*
X-354860Y26529D01*
X-354940Y26493D01*
X-355021Y26460D01*
X-355103Y26431D01*
X-355187Y26406D01*
X-355272Y26385D01*
X-355357Y26367D01*
X-355444Y26354D01*
X-355530Y26344D01*
X-355618Y26338D01*
X-355705Y26336D01*
X-355705Y26335D02*
X-358951Y26335D01*
X-358951Y26336D02*
X-359052Y26338D01*
X-359152Y26344D01*
X-359252Y26354D01*
X-359352Y26367D01*
X-359451Y26385D01*
X-359550Y26406D01*
X-359647Y26431D01*
X-359744Y26460D01*
X-359839Y26493D01*
X-359933Y26529D01*
X-360025Y26569D01*
X-360116Y26612D01*
X-360205Y26659D01*
X-360292Y26709D01*
X-360378Y26763D01*
X-360461Y26820D01*
X-360541Y26880D01*
X-360620Y26943D01*
X-360696Y27010D01*
X-360769Y27079D01*
X-360839Y27151D01*
X-360907Y27225D01*
X-360972Y27302D01*
X-361033Y27382D01*
X-361092Y27464D01*
X-361147Y27548D01*
X-361199Y27634D01*
X-361248Y27722D01*
X-361293Y27812D01*
X-361335Y27904D01*
X-361373Y27997D01*
X-361407Y28092D01*
X-361438Y28187D01*
X-361465Y28284D01*
X-361488Y28382D01*
X-361508Y28481D01*
X-361523Y28581D01*
X-361535Y28681D01*
X-361543Y28781D01*
X-361547Y28882D01*
X-361547Y28982D01*
X-361543Y29083D01*
X-361535Y29183D01*
X-361523Y29283D01*
X-361508Y29383D01*
X-361488Y29482D01*
X-361465Y29580D01*
X-361438Y29677D01*
X-361407Y29772D01*
X-361373Y29867D01*
X-361335Y29960D01*
X-361293Y30052D01*
X-361248Y30142D01*
X-361199Y30230D01*
X-361147Y30316D01*
X-361092Y30400D01*
X-361033Y30482D01*
X-360972Y30562D01*
X-360907Y30639D01*
X-360839Y30713D01*
X-360769Y30785D01*
X-360696Y30854D01*
X-360620Y30921D01*
X-360541Y30984D01*
X-360461Y31044D01*
X-360378Y31101D01*
X-360292Y31155D01*
X-360205Y31205D01*
X-360116Y31252D01*
X-360025Y31295D01*
X-359933Y31335D01*
X-359839Y31371D01*
X-359744Y31404D01*
X-359647Y31433D01*
X-359550Y31458D01*
X-359451Y31479D01*
X-359352Y31497D01*
X-359252Y31510D01*
X-359152Y31520D01*
X-359052Y31526D01*
X-358951Y31528D01*
X-357653Y31528D01*
X-357653Y26335D01*
X-353758Y38202D02*
X-353758Y40798D01*
X-353758Y38202D02*
X-353760Y38115D01*
X-353766Y38027D01*
X-353776Y37941D01*
X-353789Y37854D01*
X-353807Y37769D01*
X-353828Y37684D01*
X-353853Y37600D01*
X-353882Y37518D01*
X-353915Y37437D01*
X-353951Y37357D01*
X-353990Y37279D01*
X-354034Y37203D01*
X-354080Y37129D01*
X-354130Y37058D01*
X-354183Y36988D01*
X-354239Y36921D01*
X-354298Y36857D01*
X-354360Y36795D01*
X-354424Y36736D01*
X-354491Y36680D01*
X-354561Y36627D01*
X-354632Y36577D01*
X-354706Y36531D01*
X-354782Y36487D01*
X-354860Y36448D01*
X-354940Y36412D01*
X-355021Y36379D01*
X-355103Y36350D01*
X-355187Y36325D01*
X-355272Y36304D01*
X-355357Y36286D01*
X-355444Y36273D01*
X-355530Y36263D01*
X-355618Y36257D01*
X-355705Y36255D01*
X-359600Y36255D01*
X-359687Y36257D01*
X-359775Y36263D01*
X-359861Y36273D01*
X-359948Y36286D01*
X-360033Y36304D01*
X-360118Y36325D01*
X-360202Y36350D01*
X-360284Y36379D01*
X-360365Y36412D01*
X-360445Y36448D01*
X-360523Y36487D01*
X-360599Y36531D01*
X-360673Y36577D01*
X-360744Y36627D01*
X-360814Y36680D01*
X-360881Y36736D01*
X-360945Y36795D01*
X-361007Y36857D01*
X-361066Y36921D01*
X-361122Y36988D01*
X-361175Y37058D01*
X-361225Y37129D01*
X-361271Y37203D01*
X-361315Y37279D01*
X-361354Y37357D01*
X-361390Y37437D01*
X-361423Y37518D01*
X-361452Y37600D01*
X-361477Y37684D01*
X-361498Y37769D01*
X-361516Y37854D01*
X-361529Y37941D01*
X-361539Y38027D01*
X-361545Y38115D01*
X-361547Y38202D01*
X-361547Y40798D01*
X-353758Y46952D02*
X-353758Y50197D01*
X-353758Y46952D02*
X-353760Y46865D01*
X-353766Y46777D01*
X-353776Y46691D01*
X-353789Y46604D01*
X-353807Y46519D01*
X-353828Y46434D01*
X-353853Y46350D01*
X-353882Y46268D01*
X-353915Y46187D01*
X-353951Y46107D01*
X-353990Y46029D01*
X-354034Y45953D01*
X-354080Y45879D01*
X-354130Y45808D01*
X-354183Y45738D01*
X-354239Y45671D01*
X-354298Y45607D01*
X-354360Y45545D01*
X-354424Y45486D01*
X-354491Y45430D01*
X-354561Y45377D01*
X-354632Y45327D01*
X-354706Y45281D01*
X-354782Y45237D01*
X-354860Y45198D01*
X-354940Y45162D01*
X-355021Y45129D01*
X-355103Y45100D01*
X-355187Y45075D01*
X-355272Y45054D01*
X-355357Y45036D01*
X-355444Y45023D01*
X-355530Y45013D01*
X-355618Y45007D01*
X-355705Y45005D01*
X-355705Y45004D02*
X-358951Y45004D01*
X-358951Y45005D02*
X-359052Y45007D01*
X-359152Y45013D01*
X-359252Y45023D01*
X-359352Y45036D01*
X-359451Y45054D01*
X-359550Y45075D01*
X-359647Y45100D01*
X-359744Y45129D01*
X-359839Y45162D01*
X-359933Y45198D01*
X-360025Y45238D01*
X-360116Y45281D01*
X-360205Y45328D01*
X-360292Y45378D01*
X-360378Y45432D01*
X-360461Y45489D01*
X-360541Y45549D01*
X-360620Y45612D01*
X-360696Y45679D01*
X-360769Y45748D01*
X-360839Y45820D01*
X-360907Y45894D01*
X-360972Y45971D01*
X-361033Y46051D01*
X-361092Y46133D01*
X-361147Y46217D01*
X-361199Y46303D01*
X-361248Y46391D01*
X-361293Y46481D01*
X-361335Y46573D01*
X-361373Y46666D01*
X-361407Y46761D01*
X-361438Y46856D01*
X-361465Y46953D01*
X-361488Y47051D01*
X-361508Y47150D01*
X-361523Y47250D01*
X-361535Y47350D01*
X-361543Y47450D01*
X-361547Y47551D01*
X-361547Y47651D01*
X-361543Y47752D01*
X-361535Y47852D01*
X-361523Y47952D01*
X-361508Y48052D01*
X-361488Y48151D01*
X-361465Y48249D01*
X-361438Y48346D01*
X-361407Y48441D01*
X-361373Y48536D01*
X-361335Y48629D01*
X-361293Y48721D01*
X-361248Y48811D01*
X-361199Y48899D01*
X-361147Y48985D01*
X-361092Y49069D01*
X-361033Y49151D01*
X-360972Y49231D01*
X-360907Y49308D01*
X-360839Y49382D01*
X-360769Y49454D01*
X-360696Y49523D01*
X-360620Y49590D01*
X-360541Y49653D01*
X-360461Y49713D01*
X-360378Y49770D01*
X-360292Y49824D01*
X-360205Y49874D01*
X-360116Y49921D01*
X-360025Y49964D01*
X-359933Y50004D01*
X-359839Y50040D01*
X-359744Y50073D01*
X-359647Y50102D01*
X-359550Y50127D01*
X-359451Y50148D01*
X-359352Y50166D01*
X-359252Y50179D01*
X-359152Y50189D01*
X-359052Y50195D01*
X-358951Y50197D01*
X-357653Y50197D01*
X-357653Y45004D01*
X-361547Y54840D02*
X-353758Y54840D01*
X-364793Y54515D02*
X-365442Y54515D01*
X-365442Y55164D01*
X-364793Y55164D01*
X-364793Y54515D01*
X-361547Y59101D02*
X-353758Y61698D01*
X-361547Y64294D01*
X-353758Y70574D02*
X-353758Y73819D01*
X-353758Y70574D02*
X-353760Y70487D01*
X-353766Y70399D01*
X-353776Y70313D01*
X-353789Y70226D01*
X-353807Y70141D01*
X-353828Y70056D01*
X-353853Y69972D01*
X-353882Y69890D01*
X-353915Y69809D01*
X-353951Y69729D01*
X-353990Y69651D01*
X-354034Y69575D01*
X-354080Y69501D01*
X-354130Y69430D01*
X-354183Y69360D01*
X-354239Y69293D01*
X-354298Y69229D01*
X-354360Y69167D01*
X-354424Y69108D01*
X-354491Y69052D01*
X-354561Y68999D01*
X-354632Y68949D01*
X-354706Y68903D01*
X-354782Y68859D01*
X-354860Y68820D01*
X-354940Y68784D01*
X-355021Y68751D01*
X-355103Y68722D01*
X-355187Y68697D01*
X-355272Y68676D01*
X-355357Y68658D01*
X-355444Y68645D01*
X-355530Y68635D01*
X-355618Y68629D01*
X-355705Y68627D01*
X-355705Y68626D02*
X-358951Y68626D01*
X-358951Y68627D02*
X-359052Y68629D01*
X-359152Y68635D01*
X-359252Y68645D01*
X-359352Y68658D01*
X-359451Y68676D01*
X-359550Y68697D01*
X-359647Y68722D01*
X-359744Y68751D01*
X-359839Y68784D01*
X-359933Y68820D01*
X-360025Y68860D01*
X-360116Y68903D01*
X-360205Y68950D01*
X-360292Y69000D01*
X-360378Y69054D01*
X-360461Y69111D01*
X-360541Y69171D01*
X-360620Y69234D01*
X-360696Y69301D01*
X-360769Y69370D01*
X-360839Y69442D01*
X-360907Y69516D01*
X-360972Y69593D01*
X-361033Y69673D01*
X-361092Y69755D01*
X-361147Y69839D01*
X-361199Y69925D01*
X-361248Y70013D01*
X-361293Y70103D01*
X-361335Y70195D01*
X-361373Y70288D01*
X-361407Y70383D01*
X-361438Y70478D01*
X-361465Y70575D01*
X-361488Y70673D01*
X-361508Y70772D01*
X-361523Y70872D01*
X-361535Y70972D01*
X-361543Y71072D01*
X-361547Y71173D01*
X-361547Y71273D01*
X-361543Y71374D01*
X-361535Y71474D01*
X-361523Y71574D01*
X-361508Y71674D01*
X-361488Y71773D01*
X-361465Y71871D01*
X-361438Y71968D01*
X-361407Y72063D01*
X-361373Y72158D01*
X-361335Y72251D01*
X-361293Y72343D01*
X-361248Y72433D01*
X-361199Y72521D01*
X-361147Y72607D01*
X-361092Y72691D01*
X-361033Y72773D01*
X-360972Y72853D01*
X-360907Y72930D01*
X-360839Y73004D01*
X-360769Y73076D01*
X-360696Y73145D01*
X-360620Y73212D01*
X-360541Y73275D01*
X-360461Y73335D01*
X-360378Y73392D01*
X-360292Y73446D01*
X-360205Y73496D01*
X-360116Y73543D01*
X-360025Y73586D01*
X-359933Y73626D01*
X-359839Y73662D01*
X-359744Y73695D01*
X-359647Y73724D01*
X-359550Y73749D01*
X-359451Y73770D01*
X-359352Y73788D01*
X-359252Y73801D01*
X-359152Y73811D01*
X-359052Y73817D01*
X-358951Y73819D01*
X-357653Y73819D01*
X-357653Y68626D01*
X-353758Y78980D02*
X-361547Y78980D01*
X-361547Y82874D01*
X-360249Y82874D01*
X-358302Y92855D02*
X-358302Y100644D01*
X-361547Y110712D02*
X-361547Y114607D01*
X-365442Y112010D02*
X-355705Y112010D01*
X-355705Y112011D02*
X-355618Y112013D01*
X-355530Y112019D01*
X-355444Y112029D01*
X-355357Y112042D01*
X-355272Y112060D01*
X-355187Y112081D01*
X-355103Y112106D01*
X-355021Y112135D01*
X-354940Y112168D01*
X-354860Y112204D01*
X-354782Y112243D01*
X-354706Y112287D01*
X-354632Y112333D01*
X-354561Y112383D01*
X-354491Y112436D01*
X-354424Y112492D01*
X-354360Y112551D01*
X-354298Y112613D01*
X-354239Y112677D01*
X-354183Y112744D01*
X-354130Y112814D01*
X-354080Y112885D01*
X-354034Y112959D01*
X-353990Y113035D01*
X-353951Y113113D01*
X-353915Y113193D01*
X-353882Y113274D01*
X-353853Y113356D01*
X-353828Y113440D01*
X-353807Y113525D01*
X-353789Y113610D01*
X-353776Y113697D01*
X-353766Y113783D01*
X-353760Y113871D01*
X-353758Y113958D01*
X-353758Y114607D01*
X-356354Y118918D02*
X-358951Y118918D01*
X-358951Y118919D02*
X-359052Y118921D01*
X-359152Y118927D01*
X-359252Y118937D01*
X-359352Y118950D01*
X-359451Y118968D01*
X-359550Y118989D01*
X-359647Y119014D01*
X-359744Y119043D01*
X-359839Y119076D01*
X-359933Y119112D01*
X-360025Y119152D01*
X-360116Y119195D01*
X-360205Y119242D01*
X-360292Y119292D01*
X-360378Y119346D01*
X-360461Y119403D01*
X-360541Y119463D01*
X-360620Y119526D01*
X-360696Y119593D01*
X-360769Y119662D01*
X-360839Y119734D01*
X-360907Y119808D01*
X-360972Y119885D01*
X-361033Y119965D01*
X-361092Y120047D01*
X-361147Y120131D01*
X-361199Y120217D01*
X-361248Y120305D01*
X-361293Y120395D01*
X-361335Y120487D01*
X-361373Y120580D01*
X-361407Y120675D01*
X-361438Y120770D01*
X-361465Y120867D01*
X-361488Y120965D01*
X-361508Y121064D01*
X-361523Y121164D01*
X-361535Y121264D01*
X-361543Y121364D01*
X-361547Y121465D01*
X-361547Y121565D01*
X-361543Y121666D01*
X-361535Y121766D01*
X-361523Y121866D01*
X-361508Y121966D01*
X-361488Y122065D01*
X-361465Y122163D01*
X-361438Y122260D01*
X-361407Y122355D01*
X-361373Y122450D01*
X-361335Y122543D01*
X-361293Y122635D01*
X-361248Y122725D01*
X-361199Y122813D01*
X-361147Y122899D01*
X-361092Y122983D01*
X-361033Y123065D01*
X-360972Y123145D01*
X-360907Y123222D01*
X-360839Y123296D01*
X-360769Y123368D01*
X-360696Y123437D01*
X-360620Y123504D01*
X-360541Y123567D01*
X-360461Y123627D01*
X-360378Y123684D01*
X-360292Y123738D01*
X-360205Y123788D01*
X-360116Y123835D01*
X-360025Y123878D01*
X-359933Y123918D01*
X-359839Y123954D01*
X-359744Y123987D01*
X-359647Y124016D01*
X-359550Y124041D01*
X-359451Y124062D01*
X-359352Y124080D01*
X-359252Y124093D01*
X-359152Y124103D01*
X-359052Y124109D01*
X-358951Y124111D01*
X-356354Y124111D01*
X-356253Y124109D01*
X-356153Y124103D01*
X-356053Y124093D01*
X-355953Y124080D01*
X-355854Y124062D01*
X-355755Y124041D01*
X-355658Y124016D01*
X-355561Y123987D01*
X-355466Y123954D01*
X-355372Y123918D01*
X-355280Y123878D01*
X-355189Y123835D01*
X-355100Y123788D01*
X-355013Y123738D01*
X-354927Y123684D01*
X-354844Y123627D01*
X-354764Y123567D01*
X-354685Y123504D01*
X-354609Y123437D01*
X-354536Y123368D01*
X-354466Y123296D01*
X-354398Y123222D01*
X-354333Y123145D01*
X-354272Y123065D01*
X-354213Y122983D01*
X-354158Y122899D01*
X-354106Y122813D01*
X-354057Y122725D01*
X-354012Y122635D01*
X-353970Y122543D01*
X-353932Y122450D01*
X-353898Y122355D01*
X-353867Y122260D01*
X-353840Y122163D01*
X-353817Y122065D01*
X-353797Y121966D01*
X-353782Y121866D01*
X-353770Y121766D01*
X-353762Y121666D01*
X-353758Y121565D01*
X-353758Y121465D01*
X-353762Y121364D01*
X-353770Y121264D01*
X-353782Y121164D01*
X-353797Y121064D01*
X-353817Y120965D01*
X-353840Y120867D01*
X-353867Y120770D01*
X-353898Y120675D01*
X-353932Y120580D01*
X-353970Y120487D01*
X-354012Y120395D01*
X-354057Y120305D01*
X-354106Y120217D01*
X-354158Y120131D01*
X-354213Y120047D01*
X-354272Y119965D01*
X-354333Y119885D01*
X-354398Y119808D01*
X-354466Y119734D01*
X-354536Y119662D01*
X-354609Y119593D01*
X-354685Y119526D01*
X-354764Y119463D01*
X-354844Y119403D01*
X-354927Y119346D01*
X-355013Y119292D01*
X-355100Y119242D01*
X-355189Y119195D01*
X-355280Y119152D01*
X-355372Y119112D01*
X-355466Y119076D01*
X-355561Y119043D01*
X-355658Y119014D01*
X-355755Y118989D01*
X-355854Y118968D01*
X-355953Y118950D01*
X-356053Y118937D01*
X-356153Y118927D01*
X-356253Y118921D01*
X-356354Y118919D01*
X-353758Y129431D02*
X-361547Y129431D01*
X-361547Y135273D01*
X-361545Y135360D01*
X-361539Y135448D01*
X-361529Y135534D01*
X-361516Y135621D01*
X-361498Y135706D01*
X-361477Y135791D01*
X-361452Y135875D01*
X-361423Y135957D01*
X-361390Y136038D01*
X-361354Y136118D01*
X-361315Y136196D01*
X-361271Y136272D01*
X-361225Y136346D01*
X-361175Y136417D01*
X-361122Y136487D01*
X-361066Y136554D01*
X-361007Y136618D01*
X-360945Y136680D01*
X-360881Y136739D01*
X-360814Y136795D01*
X-360744Y136848D01*
X-360673Y136898D01*
X-360599Y136944D01*
X-360523Y136988D01*
X-360445Y137027D01*
X-360365Y137063D01*
X-360284Y137096D01*
X-360202Y137125D01*
X-360118Y137150D01*
X-360033Y137171D01*
X-359948Y137189D01*
X-359861Y137202D01*
X-359775Y137212D01*
X-359687Y137218D01*
X-359600Y137220D01*
X-353758Y137220D01*
X-353758Y133326D02*
X-361547Y133326D01*
X-361547Y142470D02*
X-353758Y142470D01*
X-364793Y142145D02*
X-365442Y142145D01*
X-365442Y142794D01*
X-364793Y142794D01*
X-364793Y142145D01*
X-365442Y147629D02*
X-353758Y147629D01*
X-357653Y147629D02*
X-361547Y152822D01*
X-359275Y149901D02*
X-353758Y152822D01*
X-358302Y159231D02*
X-358302Y162152D01*
X-358302Y159231D02*
X-358300Y159137D01*
X-358294Y159043D01*
X-358285Y158950D01*
X-358271Y158857D01*
X-358254Y158765D01*
X-358232Y158673D01*
X-358208Y158583D01*
X-358179Y158493D01*
X-358147Y158405D01*
X-358111Y158318D01*
X-358071Y158233D01*
X-358028Y158150D01*
X-357982Y158068D01*
X-357932Y157988D01*
X-357879Y157911D01*
X-357823Y157836D01*
X-357764Y157763D01*
X-357702Y157692D01*
X-357637Y157624D01*
X-357569Y157559D01*
X-357498Y157497D01*
X-357425Y157438D01*
X-357350Y157382D01*
X-357273Y157329D01*
X-357193Y157279D01*
X-357111Y157233D01*
X-357028Y157190D01*
X-356943Y157150D01*
X-356856Y157114D01*
X-356768Y157082D01*
X-356678Y157053D01*
X-356588Y157029D01*
X-356496Y157007D01*
X-356404Y156990D01*
X-356311Y156976D01*
X-356218Y156967D01*
X-356124Y156961D01*
X-356030Y156959D01*
X-355936Y156961D01*
X-355842Y156967D01*
X-355749Y156976D01*
X-355656Y156990D01*
X-355564Y157007D01*
X-355472Y157029D01*
X-355382Y157053D01*
X-355292Y157082D01*
X-355204Y157114D01*
X-355117Y157150D01*
X-355032Y157190D01*
X-354949Y157233D01*
X-354867Y157279D01*
X-354787Y157329D01*
X-354710Y157382D01*
X-354635Y157438D01*
X-354562Y157497D01*
X-354491Y157559D01*
X-354423Y157624D01*
X-354358Y157692D01*
X-354296Y157763D01*
X-354237Y157836D01*
X-354181Y157911D01*
X-354128Y157988D01*
X-354078Y158068D01*
X-354032Y158150D01*
X-353989Y158233D01*
X-353949Y158318D01*
X-353913Y158405D01*
X-353881Y158493D01*
X-353852Y158583D01*
X-353828Y158673D01*
X-353806Y158765D01*
X-353789Y158857D01*
X-353775Y158950D01*
X-353766Y159043D01*
X-353760Y159137D01*
X-353758Y159231D01*
X-353758Y162152D01*
X-359600Y162152D01*
X-359687Y162150D01*
X-359775Y162144D01*
X-359861Y162134D01*
X-359948Y162121D01*
X-360033Y162103D01*
X-360118Y162082D01*
X-360202Y162057D01*
X-360284Y162028D01*
X-360365Y161995D01*
X-360445Y161959D01*
X-360523Y161920D01*
X-360599Y161876D01*
X-360673Y161830D01*
X-360744Y161780D01*
X-360814Y161727D01*
X-360881Y161671D01*
X-360945Y161612D01*
X-361007Y161550D01*
X-361066Y161486D01*
X-361122Y161419D01*
X-361175Y161349D01*
X-361225Y161278D01*
X-361271Y161204D01*
X-361315Y161128D01*
X-361354Y161050D01*
X-361390Y160970D01*
X-361423Y160889D01*
X-361452Y160807D01*
X-361477Y160723D01*
X-361498Y160638D01*
X-361516Y160553D01*
X-361529Y160466D01*
X-361539Y160380D01*
X-361545Y160292D01*
X-361547Y160205D01*
X-361547Y157608D01*
X-358302Y169518D02*
X-358302Y172439D01*
X-358302Y169518D02*
X-358300Y169424D01*
X-358294Y169330D01*
X-358285Y169237D01*
X-358271Y169144D01*
X-358254Y169052D01*
X-358232Y168960D01*
X-358208Y168870D01*
X-358179Y168780D01*
X-358147Y168692D01*
X-358111Y168605D01*
X-358071Y168520D01*
X-358028Y168437D01*
X-357982Y168355D01*
X-357932Y168275D01*
X-357879Y168198D01*
X-357823Y168123D01*
X-357764Y168050D01*
X-357702Y167979D01*
X-357637Y167911D01*
X-357569Y167846D01*
X-357498Y167784D01*
X-357425Y167725D01*
X-357350Y167669D01*
X-357273Y167616D01*
X-357193Y167566D01*
X-357111Y167520D01*
X-357028Y167477D01*
X-356943Y167437D01*
X-356856Y167401D01*
X-356768Y167369D01*
X-356678Y167340D01*
X-356588Y167316D01*
X-356496Y167294D01*
X-356404Y167277D01*
X-356311Y167263D01*
X-356218Y167254D01*
X-356124Y167248D01*
X-356030Y167246D01*
X-355936Y167248D01*
X-355842Y167254D01*
X-355749Y167263D01*
X-355656Y167277D01*
X-355564Y167294D01*
X-355472Y167316D01*
X-355382Y167340D01*
X-355292Y167369D01*
X-355204Y167401D01*
X-355117Y167437D01*
X-355032Y167477D01*
X-354949Y167520D01*
X-354867Y167566D01*
X-354787Y167616D01*
X-354710Y167669D01*
X-354635Y167725D01*
X-354562Y167784D01*
X-354491Y167846D01*
X-354423Y167911D01*
X-354358Y167979D01*
X-354296Y168050D01*
X-354237Y168123D01*
X-354181Y168198D01*
X-354128Y168275D01*
X-354078Y168355D01*
X-354032Y168437D01*
X-353989Y168520D01*
X-353949Y168605D01*
X-353913Y168692D01*
X-353881Y168780D01*
X-353852Y168870D01*
X-353828Y168960D01*
X-353806Y169052D01*
X-353789Y169144D01*
X-353775Y169237D01*
X-353766Y169330D01*
X-353760Y169424D01*
X-353758Y169518D01*
X-353758Y172439D01*
X-359600Y172439D01*
X-359687Y172437D01*
X-359775Y172431D01*
X-359861Y172421D01*
X-359948Y172408D01*
X-360033Y172390D01*
X-360118Y172369D01*
X-360202Y172344D01*
X-360284Y172315D01*
X-360365Y172282D01*
X-360445Y172246D01*
X-360523Y172207D01*
X-360599Y172163D01*
X-360673Y172117D01*
X-360744Y172067D01*
X-360814Y172014D01*
X-360881Y171958D01*
X-360945Y171899D01*
X-361007Y171837D01*
X-361066Y171773D01*
X-361122Y171706D01*
X-361175Y171636D01*
X-361225Y171565D01*
X-361271Y171491D01*
X-361315Y171415D01*
X-361354Y171337D01*
X-361390Y171257D01*
X-361423Y171176D01*
X-361452Y171094D01*
X-361477Y171010D01*
X-361498Y170925D01*
X-361516Y170840D01*
X-361529Y170753D01*
X-361539Y170667D01*
X-361545Y170579D01*
X-361547Y170492D01*
X-361547Y167895D01*
X-357004Y177705D02*
X-357117Y177707D01*
X-357230Y177713D01*
X-357343Y177723D01*
X-357456Y177737D01*
X-357568Y177754D01*
X-357679Y177776D01*
X-357789Y177801D01*
X-357899Y177831D01*
X-358007Y177864D01*
X-358114Y177901D01*
X-358220Y177941D01*
X-358324Y177986D01*
X-358427Y178034D01*
X-358528Y178085D01*
X-358627Y178140D01*
X-358724Y178198D01*
X-358819Y178260D01*
X-358912Y178325D01*
X-359002Y178393D01*
X-359090Y178464D01*
X-359176Y178539D01*
X-359259Y178616D01*
X-359339Y178696D01*
X-359416Y178779D01*
X-359491Y178865D01*
X-359562Y178953D01*
X-359630Y179043D01*
X-359695Y179136D01*
X-359757Y179231D01*
X-359815Y179328D01*
X-359870Y179427D01*
X-359921Y179528D01*
X-359969Y179631D01*
X-360014Y179735D01*
X-360054Y179841D01*
X-360091Y179948D01*
X-360124Y180056D01*
X-360154Y180166D01*
X-360179Y180276D01*
X-360201Y180387D01*
X-360218Y180499D01*
X-360232Y180612D01*
X-360242Y180725D01*
X-360248Y180838D01*
X-360250Y180951D01*
X-360248Y181064D01*
X-360242Y181177D01*
X-360232Y181290D01*
X-360218Y181403D01*
X-360201Y181515D01*
X-360179Y181626D01*
X-360154Y181736D01*
X-360124Y181846D01*
X-360091Y181954D01*
X-360054Y182061D01*
X-360014Y182167D01*
X-359969Y182271D01*
X-359921Y182374D01*
X-359870Y182475D01*
X-359815Y182574D01*
X-359757Y182671D01*
X-359695Y182766D01*
X-359630Y182859D01*
X-359562Y182949D01*
X-359491Y183037D01*
X-359416Y183123D01*
X-359339Y183206D01*
X-359259Y183286D01*
X-359176Y183363D01*
X-359090Y183438D01*
X-359002Y183509D01*
X-358912Y183577D01*
X-358819Y183642D01*
X-358724Y183704D01*
X-358627Y183762D01*
X-358528Y183817D01*
X-358427Y183868D01*
X-358324Y183916D01*
X-358220Y183961D01*
X-358114Y184001D01*
X-358007Y184038D01*
X-357899Y184071D01*
X-357789Y184101D01*
X-357679Y184126D01*
X-357568Y184148D01*
X-357456Y184165D01*
X-357343Y184179D01*
X-357230Y184189D01*
X-357117Y184195D01*
X-357004Y184197D01*
X-356891Y184195D01*
X-356778Y184189D01*
X-356665Y184179D01*
X-356552Y184165D01*
X-356440Y184148D01*
X-356329Y184126D01*
X-356219Y184101D01*
X-356109Y184071D01*
X-356001Y184038D01*
X-355894Y184001D01*
X-355788Y183961D01*
X-355684Y183916D01*
X-355581Y183868D01*
X-355480Y183817D01*
X-355381Y183762D01*
X-355284Y183704D01*
X-355189Y183642D01*
X-355096Y183577D01*
X-355006Y183509D01*
X-354918Y183438D01*
X-354832Y183363D01*
X-354749Y183286D01*
X-354669Y183206D01*
X-354592Y183123D01*
X-354517Y183037D01*
X-354446Y182949D01*
X-354378Y182859D01*
X-354313Y182766D01*
X-354251Y182671D01*
X-354193Y182574D01*
X-354138Y182475D01*
X-354087Y182374D01*
X-354039Y182271D01*
X-353994Y182167D01*
X-353954Y182061D01*
X-353917Y181954D01*
X-353884Y181846D01*
X-353854Y181736D01*
X-353829Y181626D01*
X-353807Y181515D01*
X-353790Y181403D01*
X-353776Y181290D01*
X-353766Y181177D01*
X-353760Y181064D01*
X-353758Y180951D01*
X-353760Y180838D01*
X-353766Y180725D01*
X-353776Y180612D01*
X-353790Y180499D01*
X-353807Y180387D01*
X-353829Y180276D01*
X-353854Y180166D01*
X-353884Y180056D01*
X-353917Y179948D01*
X-353954Y179841D01*
X-353994Y179735D01*
X-354039Y179631D01*
X-354087Y179528D01*
X-354138Y179427D01*
X-354193Y179328D01*
X-354251Y179231D01*
X-354313Y179136D01*
X-354378Y179043D01*
X-354446Y178953D01*
X-354517Y178865D01*
X-354592Y178779D01*
X-354669Y178696D01*
X-354749Y178616D01*
X-354832Y178539D01*
X-354918Y178464D01*
X-355006Y178393D01*
X-355096Y178325D01*
X-355189Y178260D01*
X-355284Y178198D01*
X-355381Y178140D01*
X-355480Y178085D01*
X-355581Y178034D01*
X-355684Y177986D01*
X-355788Y177941D01*
X-355894Y177901D01*
X-356001Y177864D01*
X-356109Y177831D01*
X-356219Y177801D01*
X-356329Y177776D01*
X-356440Y177754D01*
X-356552Y177737D01*
X-356665Y177723D01*
X-356778Y177713D01*
X-356891Y177707D01*
X-357004Y177705D01*
X-362846Y178355D02*
X-362947Y178357D01*
X-363047Y178363D01*
X-363147Y178373D01*
X-363247Y178386D01*
X-363346Y178404D01*
X-363445Y178425D01*
X-363542Y178450D01*
X-363639Y178479D01*
X-363734Y178512D01*
X-363828Y178548D01*
X-363920Y178588D01*
X-364011Y178631D01*
X-364100Y178678D01*
X-364187Y178728D01*
X-364273Y178782D01*
X-364356Y178839D01*
X-364436Y178899D01*
X-364515Y178962D01*
X-364591Y179029D01*
X-364664Y179098D01*
X-364734Y179170D01*
X-364802Y179244D01*
X-364867Y179321D01*
X-364928Y179401D01*
X-364987Y179483D01*
X-365042Y179567D01*
X-365094Y179653D01*
X-365143Y179741D01*
X-365188Y179831D01*
X-365230Y179923D01*
X-365268Y180016D01*
X-365302Y180111D01*
X-365333Y180206D01*
X-365360Y180303D01*
X-365383Y180401D01*
X-365403Y180500D01*
X-365418Y180600D01*
X-365430Y180700D01*
X-365438Y180800D01*
X-365442Y180901D01*
X-365442Y181001D01*
X-365438Y181102D01*
X-365430Y181202D01*
X-365418Y181302D01*
X-365403Y181402D01*
X-365383Y181501D01*
X-365360Y181599D01*
X-365333Y181696D01*
X-365302Y181791D01*
X-365268Y181886D01*
X-365230Y181979D01*
X-365188Y182071D01*
X-365143Y182161D01*
X-365094Y182249D01*
X-365042Y182335D01*
X-364987Y182419D01*
X-364928Y182501D01*
X-364867Y182581D01*
X-364802Y182658D01*
X-364734Y182732D01*
X-364664Y182804D01*
X-364591Y182873D01*
X-364515Y182940D01*
X-364436Y183003D01*
X-364356Y183063D01*
X-364273Y183120D01*
X-364187Y183174D01*
X-364100Y183224D01*
X-364011Y183271D01*
X-363920Y183314D01*
X-363828Y183354D01*
X-363734Y183390D01*
X-363639Y183423D01*
X-363542Y183452D01*
X-363445Y183477D01*
X-363346Y183498D01*
X-363247Y183516D01*
X-363147Y183529D01*
X-363047Y183539D01*
X-362947Y183545D01*
X-362846Y183547D01*
X-362745Y183545D01*
X-362645Y183539D01*
X-362545Y183529D01*
X-362445Y183516D01*
X-362346Y183498D01*
X-362247Y183477D01*
X-362150Y183452D01*
X-362053Y183423D01*
X-361958Y183390D01*
X-361864Y183354D01*
X-361772Y183314D01*
X-361681Y183271D01*
X-361592Y183224D01*
X-361505Y183174D01*
X-361419Y183120D01*
X-361336Y183063D01*
X-361256Y183003D01*
X-361177Y182940D01*
X-361101Y182873D01*
X-361028Y182804D01*
X-360958Y182732D01*
X-360890Y182658D01*
X-360825Y182581D01*
X-360764Y182501D01*
X-360705Y182419D01*
X-360650Y182335D01*
X-360598Y182249D01*
X-360549Y182161D01*
X-360504Y182071D01*
X-360462Y181979D01*
X-360424Y181886D01*
X-360390Y181791D01*
X-360359Y181696D01*
X-360332Y181599D01*
X-360309Y181501D01*
X-360289Y181402D01*
X-360274Y181302D01*
X-360262Y181202D01*
X-360254Y181102D01*
X-360250Y181001D01*
X-360250Y180901D01*
X-360254Y180800D01*
X-360262Y180700D01*
X-360274Y180600D01*
X-360289Y180500D01*
X-360309Y180401D01*
X-360332Y180303D01*
X-360359Y180206D01*
X-360390Y180111D01*
X-360424Y180016D01*
X-360462Y179923D01*
X-360504Y179831D01*
X-360549Y179741D01*
X-360598Y179653D01*
X-360650Y179567D01*
X-360705Y179483D01*
X-360764Y179401D01*
X-360825Y179321D01*
X-360890Y179244D01*
X-360958Y179170D01*
X-361028Y179098D01*
X-361101Y179029D01*
X-361177Y178962D01*
X-361256Y178899D01*
X-361336Y178839D01*
X-361419Y178782D01*
X-361505Y178728D01*
X-361592Y178678D01*
X-361681Y178631D01*
X-361772Y178588D01*
X-361864Y178548D01*
X-361958Y178512D01*
X-362053Y178479D01*
X-362150Y178450D01*
X-362247Y178425D01*
X-362346Y178404D01*
X-362445Y178386D01*
X-362545Y178373D01*
X-362645Y178363D01*
X-362745Y178357D01*
X-362846Y178355D01*
X-364144Y189135D02*
X-365442Y189135D01*
X-365442Y195626D01*
X-353758Y192381D01*
X-358302Y206774D02*
X-358302Y214563D01*
X-365442Y229281D02*
X-365440Y229388D01*
X-365434Y229494D01*
X-365424Y229600D01*
X-365411Y229706D01*
X-365393Y229812D01*
X-365372Y229916D01*
X-365347Y230020D01*
X-365318Y230123D01*
X-365286Y230224D01*
X-365249Y230324D01*
X-365209Y230423D01*
X-365166Y230521D01*
X-365119Y230617D01*
X-365068Y230711D01*
X-365014Y230803D01*
X-364957Y230893D01*
X-364897Y230981D01*
X-364833Y231066D01*
X-364766Y231149D01*
X-364696Y231230D01*
X-364624Y231308D01*
X-364548Y231384D01*
X-364470Y231456D01*
X-364389Y231526D01*
X-364306Y231593D01*
X-364221Y231657D01*
X-364133Y231717D01*
X-364043Y231774D01*
X-363951Y231828D01*
X-363857Y231879D01*
X-363761Y231926D01*
X-363663Y231969D01*
X-363564Y232009D01*
X-363464Y232046D01*
X-363363Y232078D01*
X-363260Y232107D01*
X-363156Y232132D01*
X-363052Y232153D01*
X-362946Y232171D01*
X-362840Y232184D01*
X-362734Y232194D01*
X-362628Y232200D01*
X-362521Y232202D01*
X-365442Y229281D02*
X-365440Y229160D01*
X-365434Y229039D01*
X-365424Y228919D01*
X-365411Y228798D01*
X-365393Y228679D01*
X-365372Y228559D01*
X-365347Y228441D01*
X-365318Y228324D01*
X-365285Y228207D01*
X-365249Y228092D01*
X-365208Y227978D01*
X-365165Y227865D01*
X-365117Y227753D01*
X-365066Y227644D01*
X-365011Y227536D01*
X-364953Y227429D01*
X-364892Y227325D01*
X-364827Y227223D01*
X-364759Y227123D01*
X-364688Y227025D01*
X-364614Y226929D01*
X-364537Y226836D01*
X-364456Y226746D01*
X-364373Y226658D01*
X-364287Y226573D01*
X-364198Y226490D01*
X-364107Y226411D01*
X-364013Y226334D01*
X-363917Y226261D01*
X-363819Y226191D01*
X-363718Y226124D01*
X-363615Y226060D01*
X-363510Y226000D01*
X-363403Y225943D01*
X-363295Y225889D01*
X-363185Y225839D01*
X-363073Y225793D01*
X-362960Y225750D01*
X-362845Y225711D01*
X-360249Y231229D02*
X-360326Y231308D01*
X-360407Y231384D01*
X-360490Y231457D01*
X-360575Y231527D01*
X-360663Y231594D01*
X-360753Y231658D01*
X-360845Y231718D01*
X-360940Y231775D01*
X-361036Y231829D01*
X-361134Y231880D01*
X-361234Y231927D01*
X-361336Y231971D01*
X-361439Y232011D01*
X-361543Y232047D01*
X-361649Y232079D01*
X-361755Y232108D01*
X-361863Y232133D01*
X-361971Y232155D01*
X-362081Y232172D01*
X-362190Y232186D01*
X-362300Y232195D01*
X-362411Y232201D01*
X-362521Y232203D01*
X-360249Y231228D02*
X-353758Y225711D01*
X-353758Y232202D01*
X-359600Y237141D02*
X-359830Y237144D01*
X-360060Y237152D01*
X-360289Y237166D01*
X-360518Y237185D01*
X-360747Y237210D01*
X-360974Y237240D01*
X-361202Y237275D01*
X-361428Y237316D01*
X-361653Y237362D01*
X-361877Y237414D01*
X-362099Y237471D01*
X-362321Y237533D01*
X-362540Y237601D01*
X-362758Y237674D01*
X-362975Y237752D01*
X-363189Y237835D01*
X-363401Y237923D01*
X-363611Y238016D01*
X-363819Y238115D01*
X-363909Y238148D01*
X-363998Y238184D01*
X-364086Y238224D01*
X-364171Y238268D01*
X-364255Y238315D01*
X-364337Y238365D01*
X-364417Y238419D01*
X-364494Y238475D01*
X-364570Y238535D01*
X-364643Y238598D01*
X-364713Y238663D01*
X-364781Y238732D01*
X-364845Y238803D01*
X-364907Y238876D01*
X-364966Y238952D01*
X-365022Y239030D01*
X-365075Y239111D01*
X-365124Y239193D01*
X-365170Y239277D01*
X-365213Y239364D01*
X-365252Y239451D01*
X-365288Y239541D01*
X-365320Y239631D01*
X-365348Y239723D01*
X-365373Y239816D01*
X-365394Y239910D01*
X-365411Y240004D01*
X-365425Y240099D01*
X-365434Y240195D01*
X-365440Y240291D01*
X-365442Y240387D01*
X-365440Y240483D01*
X-365434Y240579D01*
X-365425Y240675D01*
X-365411Y240770D01*
X-365394Y240864D01*
X-365373Y240958D01*
X-365348Y241051D01*
X-365320Y241143D01*
X-365288Y241233D01*
X-365252Y241323D01*
X-365213Y241410D01*
X-365170Y241497D01*
X-365124Y241581D01*
X-365075Y241663D01*
X-365022Y241744D01*
X-364966Y241822D01*
X-364907Y241898D01*
X-364845Y241971D01*
X-364781Y242042D01*
X-364713Y242111D01*
X-364643Y242176D01*
X-364570Y242239D01*
X-364494Y242299D01*
X-364417Y242355D01*
X-364337Y242409D01*
X-364255Y242459D01*
X-364171Y242506D01*
X-364086Y242550D01*
X-363998Y242590D01*
X-363909Y242626D01*
X-363819Y242659D01*
X-363612Y242758D01*
X-363402Y242851D01*
X-363189Y242939D01*
X-362975Y243022D01*
X-362759Y243100D01*
X-362541Y243173D01*
X-362321Y243241D01*
X-362100Y243303D01*
X-361877Y243360D01*
X-361653Y243412D01*
X-361428Y243458D01*
X-361202Y243499D01*
X-360975Y243534D01*
X-360747Y243564D01*
X-360518Y243589D01*
X-360289Y243608D01*
X-360060Y243622D01*
X-359830Y243630D01*
X-359600Y243633D01*
X-359600Y237141D02*
X-359370Y237144D01*
X-359140Y237152D01*
X-358911Y237166D01*
X-358682Y237185D01*
X-358453Y237210D01*
X-358225Y237240D01*
X-357998Y237275D01*
X-357772Y237316D01*
X-357547Y237362D01*
X-357323Y237414D01*
X-357100Y237471D01*
X-356879Y237533D01*
X-356659Y237601D01*
X-356441Y237674D01*
X-356225Y237752D01*
X-356011Y237835D01*
X-355799Y237923D01*
X-355588Y238016D01*
X-355381Y238115D01*
X-355291Y238148D01*
X-355202Y238184D01*
X-355114Y238225D01*
X-355029Y238268D01*
X-354945Y238315D01*
X-354863Y238365D01*
X-354783Y238419D01*
X-354706Y238475D01*
X-354630Y238535D01*
X-354557Y238598D01*
X-354487Y238663D01*
X-354419Y238732D01*
X-354355Y238803D01*
X-354293Y238876D01*
X-354234Y238952D01*
X-354178Y239030D01*
X-354125Y239111D01*
X-354076Y239193D01*
X-354030Y239277D01*
X-353987Y239364D01*
X-353948Y239451D01*
X-353912Y239541D01*
X-353880Y239631D01*
X-353852Y239723D01*
X-353827Y239816D01*
X-353806Y239910D01*
X-353789Y240004D01*
X-353775Y240099D01*
X-353766Y240195D01*
X-353760Y240291D01*
X-353758Y240387D01*
X-355381Y242658D02*
X-355588Y242757D01*
X-355799Y242850D01*
X-356011Y242938D01*
X-356225Y243021D01*
X-356441Y243099D01*
X-356659Y243172D01*
X-356879Y243240D01*
X-357100Y243302D01*
X-357323Y243359D01*
X-357547Y243411D01*
X-357772Y243457D01*
X-357998Y243498D01*
X-358225Y243533D01*
X-358453Y243563D01*
X-358682Y243588D01*
X-358911Y243607D01*
X-359140Y243621D01*
X-359370Y243629D01*
X-359600Y243632D01*
X-355381Y242659D02*
X-355291Y242626D01*
X-355202Y242590D01*
X-355114Y242550D01*
X-355029Y242506D01*
X-354945Y242459D01*
X-354863Y242409D01*
X-354783Y242355D01*
X-354706Y242299D01*
X-354630Y242239D01*
X-354557Y242176D01*
X-354487Y242111D01*
X-354419Y242042D01*
X-354355Y241971D01*
X-354293Y241898D01*
X-354234Y241822D01*
X-354178Y241744D01*
X-354125Y241663D01*
X-354076Y241581D01*
X-354030Y241497D01*
X-353987Y241410D01*
X-353948Y241323D01*
X-353912Y241233D01*
X-353880Y241143D01*
X-353852Y241051D01*
X-353827Y240958D01*
X-353806Y240864D01*
X-353789Y240770D01*
X-353775Y240675D01*
X-353766Y240579D01*
X-353760Y240483D01*
X-353758Y240387D01*
X-356354Y237790D02*
X-362846Y242983D01*
X-362846Y248571D02*
X-365442Y251816D01*
X-353758Y251816D01*
X-353758Y248571D02*
X-353758Y255062D01*
X-357004Y260000D02*
X-357117Y260002D01*
X-357230Y260008D01*
X-357343Y260018D01*
X-357456Y260032D01*
X-357568Y260049D01*
X-357679Y260071D01*
X-357789Y260096D01*
X-357899Y260126D01*
X-358007Y260159D01*
X-358114Y260196D01*
X-358220Y260236D01*
X-358324Y260281D01*
X-358427Y260329D01*
X-358528Y260380D01*
X-358627Y260435D01*
X-358724Y260493D01*
X-358819Y260555D01*
X-358912Y260620D01*
X-359002Y260688D01*
X-359090Y260759D01*
X-359176Y260834D01*
X-359259Y260911D01*
X-359339Y260991D01*
X-359416Y261074D01*
X-359491Y261160D01*
X-359562Y261248D01*
X-359630Y261338D01*
X-359695Y261431D01*
X-359757Y261526D01*
X-359815Y261623D01*
X-359870Y261722D01*
X-359921Y261823D01*
X-359969Y261926D01*
X-360014Y262030D01*
X-360054Y262136D01*
X-360091Y262243D01*
X-360124Y262351D01*
X-360154Y262461D01*
X-360179Y262571D01*
X-360201Y262682D01*
X-360218Y262794D01*
X-360232Y262907D01*
X-360242Y263020D01*
X-360248Y263133D01*
X-360250Y263246D01*
X-360248Y263359D01*
X-360242Y263472D01*
X-360232Y263585D01*
X-360218Y263698D01*
X-360201Y263810D01*
X-360179Y263921D01*
X-360154Y264031D01*
X-360124Y264141D01*
X-360091Y264249D01*
X-360054Y264356D01*
X-360014Y264462D01*
X-359969Y264566D01*
X-359921Y264669D01*
X-359870Y264770D01*
X-359815Y264869D01*
X-359757Y264966D01*
X-359695Y265061D01*
X-359630Y265154D01*
X-359562Y265244D01*
X-359491Y265332D01*
X-359416Y265418D01*
X-359339Y265501D01*
X-359259Y265581D01*
X-359176Y265658D01*
X-359090Y265733D01*
X-359002Y265804D01*
X-358912Y265872D01*
X-358819Y265937D01*
X-358724Y265999D01*
X-358627Y266057D01*
X-358528Y266112D01*
X-358427Y266163D01*
X-358324Y266211D01*
X-358220Y266256D01*
X-358114Y266296D01*
X-358007Y266333D01*
X-357899Y266366D01*
X-357789Y266396D01*
X-357679Y266421D01*
X-357568Y266443D01*
X-357456Y266460D01*
X-357343Y266474D01*
X-357230Y266484D01*
X-357117Y266490D01*
X-357004Y266492D01*
X-356891Y266490D01*
X-356778Y266484D01*
X-356665Y266474D01*
X-356552Y266460D01*
X-356440Y266443D01*
X-356329Y266421D01*
X-356219Y266396D01*
X-356109Y266366D01*
X-356001Y266333D01*
X-355894Y266296D01*
X-355788Y266256D01*
X-355684Y266211D01*
X-355581Y266163D01*
X-355480Y266112D01*
X-355381Y266057D01*
X-355284Y265999D01*
X-355189Y265937D01*
X-355096Y265872D01*
X-355006Y265804D01*
X-354918Y265733D01*
X-354832Y265658D01*
X-354749Y265581D01*
X-354669Y265501D01*
X-354592Y265418D01*
X-354517Y265332D01*
X-354446Y265244D01*
X-354378Y265154D01*
X-354313Y265061D01*
X-354251Y264966D01*
X-354193Y264869D01*
X-354138Y264770D01*
X-354087Y264669D01*
X-354039Y264566D01*
X-353994Y264462D01*
X-353954Y264356D01*
X-353917Y264249D01*
X-353884Y264141D01*
X-353854Y264031D01*
X-353829Y263921D01*
X-353807Y263810D01*
X-353790Y263698D01*
X-353776Y263585D01*
X-353766Y263472D01*
X-353760Y263359D01*
X-353758Y263246D01*
X-353760Y263133D01*
X-353766Y263020D01*
X-353776Y262907D01*
X-353790Y262794D01*
X-353807Y262682D01*
X-353829Y262571D01*
X-353854Y262461D01*
X-353884Y262351D01*
X-353917Y262243D01*
X-353954Y262136D01*
X-353994Y262030D01*
X-354039Y261926D01*
X-354087Y261823D01*
X-354138Y261722D01*
X-354193Y261623D01*
X-354251Y261526D01*
X-354313Y261431D01*
X-354378Y261338D01*
X-354446Y261248D01*
X-354517Y261160D01*
X-354592Y261074D01*
X-354669Y260991D01*
X-354749Y260911D01*
X-354832Y260834D01*
X-354918Y260759D01*
X-355006Y260688D01*
X-355096Y260620D01*
X-355189Y260555D01*
X-355284Y260493D01*
X-355381Y260435D01*
X-355480Y260380D01*
X-355581Y260329D01*
X-355684Y260281D01*
X-355788Y260236D01*
X-355894Y260196D01*
X-356001Y260159D01*
X-356109Y260126D01*
X-356219Y260096D01*
X-356329Y260071D01*
X-356440Y260049D01*
X-356552Y260032D01*
X-356665Y260018D01*
X-356778Y260008D01*
X-356891Y260002D01*
X-357004Y260000D01*
X-362846Y260650D02*
X-362947Y260652D01*
X-363047Y260658D01*
X-363147Y260668D01*
X-363247Y260681D01*
X-363346Y260699D01*
X-363445Y260720D01*
X-363542Y260745D01*
X-363639Y260774D01*
X-363734Y260807D01*
X-363828Y260843D01*
X-363920Y260883D01*
X-364011Y260926D01*
X-364100Y260973D01*
X-364187Y261023D01*
X-364273Y261077D01*
X-364356Y261134D01*
X-364436Y261194D01*
X-364515Y261257D01*
X-364591Y261324D01*
X-364664Y261393D01*
X-364734Y261465D01*
X-364802Y261539D01*
X-364867Y261616D01*
X-364928Y261696D01*
X-364987Y261778D01*
X-365042Y261862D01*
X-365094Y261948D01*
X-365143Y262036D01*
X-365188Y262126D01*
X-365230Y262218D01*
X-365268Y262311D01*
X-365302Y262406D01*
X-365333Y262501D01*
X-365360Y262598D01*
X-365383Y262696D01*
X-365403Y262795D01*
X-365418Y262895D01*
X-365430Y262995D01*
X-365438Y263095D01*
X-365442Y263196D01*
X-365442Y263296D01*
X-365438Y263397D01*
X-365430Y263497D01*
X-365418Y263597D01*
X-365403Y263697D01*
X-365383Y263796D01*
X-365360Y263894D01*
X-365333Y263991D01*
X-365302Y264086D01*
X-365268Y264181D01*
X-365230Y264274D01*
X-365188Y264366D01*
X-365143Y264456D01*
X-365094Y264544D01*
X-365042Y264630D01*
X-364987Y264714D01*
X-364928Y264796D01*
X-364867Y264876D01*
X-364802Y264953D01*
X-364734Y265027D01*
X-364664Y265099D01*
X-364591Y265168D01*
X-364515Y265235D01*
X-364436Y265298D01*
X-364356Y265358D01*
X-364273Y265415D01*
X-364187Y265469D01*
X-364100Y265519D01*
X-364011Y265566D01*
X-363920Y265609D01*
X-363828Y265649D01*
X-363734Y265685D01*
X-363639Y265718D01*
X-363542Y265747D01*
X-363445Y265772D01*
X-363346Y265793D01*
X-363247Y265811D01*
X-363147Y265824D01*
X-363047Y265834D01*
X-362947Y265840D01*
X-362846Y265842D01*
X-362745Y265840D01*
X-362645Y265834D01*
X-362545Y265824D01*
X-362445Y265811D01*
X-362346Y265793D01*
X-362247Y265772D01*
X-362150Y265747D01*
X-362053Y265718D01*
X-361958Y265685D01*
X-361864Y265649D01*
X-361772Y265609D01*
X-361681Y265566D01*
X-361592Y265519D01*
X-361505Y265469D01*
X-361419Y265415D01*
X-361336Y265358D01*
X-361256Y265298D01*
X-361177Y265235D01*
X-361101Y265168D01*
X-361028Y265099D01*
X-360958Y265027D01*
X-360890Y264953D01*
X-360825Y264876D01*
X-360764Y264796D01*
X-360705Y264714D01*
X-360650Y264630D01*
X-360598Y264544D01*
X-360549Y264456D01*
X-360504Y264366D01*
X-360462Y264274D01*
X-360424Y264181D01*
X-360390Y264086D01*
X-360359Y263991D01*
X-360332Y263894D01*
X-360309Y263796D01*
X-360289Y263697D01*
X-360274Y263597D01*
X-360262Y263497D01*
X-360254Y263397D01*
X-360250Y263296D01*
X-360250Y263196D01*
X-360254Y263095D01*
X-360262Y262995D01*
X-360274Y262895D01*
X-360289Y262795D01*
X-360309Y262696D01*
X-360332Y262598D01*
X-360359Y262501D01*
X-360390Y262406D01*
X-360424Y262311D01*
X-360462Y262218D01*
X-360504Y262126D01*
X-360549Y262036D01*
X-360598Y261948D01*
X-360650Y261862D01*
X-360705Y261778D01*
X-360764Y261696D01*
X-360825Y261616D01*
X-360890Y261539D01*
X-360958Y261465D01*
X-361028Y261393D01*
X-361101Y261324D01*
X-361177Y261257D01*
X-361256Y261194D01*
X-361336Y261134D01*
X-361419Y261077D01*
X-361505Y261023D01*
X-361592Y260973D01*
X-361681Y260926D01*
X-361772Y260883D01*
X-361864Y260843D01*
X-361958Y260807D01*
X-362053Y260774D01*
X-362150Y260745D01*
X-362247Y260720D01*
X-362346Y260699D01*
X-362445Y260681D01*
X-362545Y260668D01*
X-362645Y260658D01*
X-362745Y260652D01*
X-362846Y260650D01*
D11*
X-137221Y185029D02*
X-137221Y182941D01*
X-137223Y182852D01*
X-137229Y182764D01*
X-137238Y182676D01*
X-137251Y182588D01*
X-137268Y182501D01*
X-137288Y182415D01*
X-137313Y182330D01*
X-137340Y182245D01*
X-137372Y182162D01*
X-137406Y182081D01*
X-137445Y182001D01*
X-137486Y181923D01*
X-137531Y181846D01*
X-137579Y181772D01*
X-137630Y181699D01*
X-137684Y181629D01*
X-137742Y181562D01*
X-137802Y181496D01*
X-137864Y181434D01*
X-137930Y181374D01*
X-137997Y181316D01*
X-138067Y181262D01*
X-138140Y181211D01*
X-138214Y181163D01*
X-138291Y181118D01*
X-138369Y181077D01*
X-138449Y181038D01*
X-138530Y181004D01*
X-138613Y180972D01*
X-138698Y180945D01*
X-138783Y180920D01*
X-138869Y180900D01*
X-138956Y180883D01*
X-139044Y180870D01*
X-139132Y180861D01*
X-139220Y180855D01*
X-139309Y180853D01*
X-139309Y180852D02*
X-144531Y180852D01*
X-144531Y180853D02*
X-144622Y180855D01*
X-144713Y180861D01*
X-144804Y180871D01*
X-144894Y180885D01*
X-144983Y180902D01*
X-145071Y180924D01*
X-145159Y180950D01*
X-145245Y180979D01*
X-145330Y181012D01*
X-145413Y181049D01*
X-145495Y181089D01*
X-145575Y181133D01*
X-145653Y181180D01*
X-145729Y181231D01*
X-145802Y181284D01*
X-145873Y181341D01*
X-145942Y181402D01*
X-146007Y181465D01*
X-146070Y181530D01*
X-146130Y181599D01*
X-146188Y181670D01*
X-146241Y181743D01*
X-146292Y181819D01*
X-146339Y181897D01*
X-146383Y181977D01*
X-146423Y182059D01*
X-146460Y182142D01*
X-146493Y182227D01*
X-146522Y182313D01*
X-146548Y182401D01*
X-146570Y182489D01*
X-146587Y182578D01*
X-146601Y182668D01*
X-146611Y182759D01*
X-146617Y182850D01*
X-146619Y182941D01*
X-146619Y185029D01*
X-144531Y188498D02*
X-146619Y191108D01*
X-137221Y191108D01*
X-137221Y188498D02*
X-137221Y193719D01*
D12*
X-282676Y87024D02*
X-282676Y78896D01*
X-288264Y78896D01*
X-311124Y78896D02*
X-311124Y87024D01*
X-311124Y78896D02*
X-305536Y78896D01*
D11*
X-311951Y105821D02*
X-311951Y115219D01*
X-309340Y115219D01*
X-309240Y115217D01*
X-309140Y115211D01*
X-309041Y115202D01*
X-308941Y115188D01*
X-308843Y115171D01*
X-308745Y115150D01*
X-308648Y115126D01*
X-308552Y115097D01*
X-308457Y115065D01*
X-308364Y115030D01*
X-308272Y114991D01*
X-308181Y114948D01*
X-308093Y114902D01*
X-308006Y114852D01*
X-307921Y114800D01*
X-307838Y114744D01*
X-307757Y114685D01*
X-307679Y114622D01*
X-307603Y114557D01*
X-307529Y114489D01*
X-307459Y114419D01*
X-307391Y114345D01*
X-307326Y114269D01*
X-307263Y114191D01*
X-307204Y114110D01*
X-307148Y114027D01*
X-307096Y113942D01*
X-307046Y113855D01*
X-307000Y113767D01*
X-306957Y113676D01*
X-306918Y113584D01*
X-306883Y113491D01*
X-306851Y113396D01*
X-306822Y113300D01*
X-306798Y113203D01*
X-306777Y113105D01*
X-306760Y113007D01*
X-306746Y112907D01*
X-306737Y112808D01*
X-306731Y112708D01*
X-306729Y112608D01*
X-306730Y112608D02*
X-306730Y108432D01*
X-306729Y108432D02*
X-306731Y108332D01*
X-306737Y108232D01*
X-306746Y108133D01*
X-306760Y108033D01*
X-306777Y107935D01*
X-306798Y107837D01*
X-306822Y107740D01*
X-306851Y107644D01*
X-306883Y107549D01*
X-306918Y107456D01*
X-306957Y107364D01*
X-307000Y107273D01*
X-307046Y107185D01*
X-307096Y107098D01*
X-307148Y107013D01*
X-307204Y106930D01*
X-307263Y106849D01*
X-307326Y106771D01*
X-307391Y106695D01*
X-307459Y106621D01*
X-307529Y106551D01*
X-307603Y106483D01*
X-307679Y106418D01*
X-307757Y106355D01*
X-307838Y106296D01*
X-307921Y106240D01*
X-308006Y106188D01*
X-308093Y106138D01*
X-308181Y106092D01*
X-308272Y106049D01*
X-308364Y106010D01*
X-308457Y105975D01*
X-308552Y105943D01*
X-308648Y105914D01*
X-308745Y105890D01*
X-308843Y105869D01*
X-308941Y105852D01*
X-309041Y105838D01*
X-309140Y105829D01*
X-309240Y105823D01*
X-309340Y105821D01*
X-311951Y105821D01*
X-302502Y113131D02*
X-299892Y115219D01*
X-299892Y105821D01*
X-302502Y105821D02*
X-297281Y105821D01*
D12*
X-282076Y132596D02*
X-282076Y140724D01*
X-282076Y132596D02*
X-287664Y132596D01*
X-310524Y132596D02*
X-310524Y140724D01*
X-310524Y132596D02*
X-304936Y132596D01*
D11*
X-312351Y159521D02*
X-312351Y168919D01*
X-309740Y168919D01*
X-309640Y168917D01*
X-309540Y168911D01*
X-309441Y168902D01*
X-309341Y168888D01*
X-309243Y168871D01*
X-309145Y168850D01*
X-309048Y168826D01*
X-308952Y168797D01*
X-308857Y168765D01*
X-308764Y168730D01*
X-308672Y168691D01*
X-308581Y168648D01*
X-308493Y168602D01*
X-308406Y168552D01*
X-308321Y168500D01*
X-308238Y168444D01*
X-308157Y168385D01*
X-308079Y168322D01*
X-308003Y168257D01*
X-307929Y168189D01*
X-307859Y168119D01*
X-307791Y168045D01*
X-307726Y167969D01*
X-307663Y167891D01*
X-307604Y167810D01*
X-307548Y167727D01*
X-307496Y167642D01*
X-307446Y167555D01*
X-307400Y167467D01*
X-307357Y167376D01*
X-307318Y167284D01*
X-307283Y167191D01*
X-307251Y167096D01*
X-307222Y167000D01*
X-307198Y166903D01*
X-307177Y166805D01*
X-307160Y166707D01*
X-307146Y166607D01*
X-307137Y166508D01*
X-307131Y166408D01*
X-307129Y166308D01*
X-307130Y166308D02*
X-307130Y162132D01*
X-307129Y162132D02*
X-307131Y162032D01*
X-307137Y161932D01*
X-307146Y161833D01*
X-307160Y161733D01*
X-307177Y161635D01*
X-307198Y161537D01*
X-307222Y161440D01*
X-307251Y161344D01*
X-307283Y161249D01*
X-307318Y161156D01*
X-307357Y161064D01*
X-307400Y160973D01*
X-307446Y160885D01*
X-307496Y160798D01*
X-307548Y160713D01*
X-307604Y160630D01*
X-307663Y160549D01*
X-307726Y160471D01*
X-307791Y160395D01*
X-307859Y160321D01*
X-307929Y160251D01*
X-308003Y160183D01*
X-308079Y160118D01*
X-308157Y160055D01*
X-308238Y159996D01*
X-308321Y159940D01*
X-308406Y159888D01*
X-308493Y159838D01*
X-308581Y159792D01*
X-308672Y159749D01*
X-308764Y159710D01*
X-308857Y159675D01*
X-308952Y159643D01*
X-309048Y159614D01*
X-309145Y159590D01*
X-309243Y159569D01*
X-309341Y159552D01*
X-309441Y159538D01*
X-309540Y159529D01*
X-309640Y159523D01*
X-309740Y159521D01*
X-312351Y159521D01*
X-300031Y168920D02*
X-299936Y168918D01*
X-299842Y168912D01*
X-299748Y168903D01*
X-299654Y168890D01*
X-299561Y168873D01*
X-299469Y168852D01*
X-299377Y168827D01*
X-299287Y168799D01*
X-299198Y168767D01*
X-299110Y168732D01*
X-299024Y168693D01*
X-298939Y168651D01*
X-298856Y168605D01*
X-298775Y168556D01*
X-298696Y168504D01*
X-298619Y168449D01*
X-298545Y168390D01*
X-298473Y168329D01*
X-298403Y168265D01*
X-298336Y168198D01*
X-298272Y168128D01*
X-298211Y168056D01*
X-298152Y167982D01*
X-298097Y167905D01*
X-298045Y167826D01*
X-297996Y167745D01*
X-297950Y167662D01*
X-297908Y167577D01*
X-297869Y167491D01*
X-297834Y167403D01*
X-297802Y167314D01*
X-297774Y167224D01*
X-297749Y167132D01*
X-297728Y167040D01*
X-297711Y166947D01*
X-297698Y166853D01*
X-297689Y166759D01*
X-297683Y166665D01*
X-297681Y166570D01*
X-300031Y168919D02*
X-300139Y168917D01*
X-300248Y168911D01*
X-300356Y168901D01*
X-300463Y168888D01*
X-300570Y168870D01*
X-300677Y168849D01*
X-300782Y168824D01*
X-300887Y168795D01*
X-300990Y168763D01*
X-301092Y168726D01*
X-301193Y168686D01*
X-301292Y168643D01*
X-301390Y168596D01*
X-301486Y168545D01*
X-301580Y168491D01*
X-301672Y168434D01*
X-301762Y168373D01*
X-301850Y168309D01*
X-301935Y168243D01*
X-302018Y168173D01*
X-302098Y168100D01*
X-302176Y168024D01*
X-302251Y167946D01*
X-302323Y167865D01*
X-302392Y167781D01*
X-302458Y167695D01*
X-302521Y167607D01*
X-302580Y167516D01*
X-302637Y167424D01*
X-302690Y167329D01*
X-302739Y167232D01*
X-302785Y167134D01*
X-302828Y167035D01*
X-302867Y166933D01*
X-302902Y166831D01*
X-298464Y164742D02*
X-298395Y164811D01*
X-298329Y164882D01*
X-298265Y164955D01*
X-298204Y165031D01*
X-298146Y165110D01*
X-298092Y165190D01*
X-298040Y165273D01*
X-297992Y165357D01*
X-297946Y165443D01*
X-297905Y165531D01*
X-297866Y165621D01*
X-297831Y165712D01*
X-297800Y165804D01*
X-297772Y165897D01*
X-297748Y165991D01*
X-297728Y166086D01*
X-297711Y166182D01*
X-297698Y166279D01*
X-297689Y166376D01*
X-297683Y166473D01*
X-297681Y166570D01*
X-298464Y164742D02*
X-302902Y159521D01*
X-297681Y159521D01*
D12*
X-282176Y186596D02*
X-282176Y194724D01*
X-282176Y186596D02*
X-287764Y186596D01*
X-310624Y186596D02*
X-310624Y194724D01*
X-310624Y186596D02*
X-305036Y186596D01*
D11*
X-312451Y212521D02*
X-312451Y221919D01*
X-309840Y221919D01*
X-309740Y221917D01*
X-309640Y221911D01*
X-309541Y221902D01*
X-309441Y221888D01*
X-309343Y221871D01*
X-309245Y221850D01*
X-309148Y221826D01*
X-309052Y221797D01*
X-308957Y221765D01*
X-308864Y221730D01*
X-308772Y221691D01*
X-308681Y221648D01*
X-308593Y221602D01*
X-308506Y221552D01*
X-308421Y221500D01*
X-308338Y221444D01*
X-308257Y221385D01*
X-308179Y221322D01*
X-308103Y221257D01*
X-308029Y221189D01*
X-307959Y221119D01*
X-307891Y221045D01*
X-307826Y220969D01*
X-307763Y220891D01*
X-307704Y220810D01*
X-307648Y220727D01*
X-307596Y220642D01*
X-307546Y220555D01*
X-307500Y220467D01*
X-307457Y220376D01*
X-307418Y220284D01*
X-307383Y220191D01*
X-307351Y220096D01*
X-307322Y220000D01*
X-307298Y219903D01*
X-307277Y219805D01*
X-307260Y219707D01*
X-307246Y219607D01*
X-307237Y219508D01*
X-307231Y219408D01*
X-307229Y219308D01*
X-307230Y219308D02*
X-307230Y215132D01*
X-307229Y215132D02*
X-307231Y215032D01*
X-307237Y214932D01*
X-307246Y214833D01*
X-307260Y214733D01*
X-307277Y214635D01*
X-307298Y214537D01*
X-307322Y214440D01*
X-307351Y214344D01*
X-307383Y214249D01*
X-307418Y214156D01*
X-307457Y214064D01*
X-307500Y213973D01*
X-307546Y213885D01*
X-307596Y213798D01*
X-307648Y213713D01*
X-307704Y213630D01*
X-307763Y213549D01*
X-307826Y213471D01*
X-307891Y213395D01*
X-307959Y213321D01*
X-308029Y213251D01*
X-308103Y213183D01*
X-308179Y213118D01*
X-308257Y213055D01*
X-308338Y212996D01*
X-308421Y212940D01*
X-308506Y212888D01*
X-308593Y212838D01*
X-308681Y212792D01*
X-308772Y212749D01*
X-308864Y212710D01*
X-308957Y212675D01*
X-309052Y212643D01*
X-309148Y212614D01*
X-309245Y212590D01*
X-309343Y212569D01*
X-309441Y212552D01*
X-309541Y212538D01*
X-309640Y212529D01*
X-309740Y212523D01*
X-309840Y212521D01*
X-312451Y212521D01*
X-303002Y212521D02*
X-300392Y212521D01*
X-300291Y212523D01*
X-300190Y212529D01*
X-300089Y212539D01*
X-299989Y212552D01*
X-299889Y212570D01*
X-299790Y212591D01*
X-299692Y212617D01*
X-299595Y212646D01*
X-299499Y212678D01*
X-299405Y212715D01*
X-299312Y212755D01*
X-299220Y212799D01*
X-299131Y212846D01*
X-299043Y212897D01*
X-298957Y212951D01*
X-298874Y213008D01*
X-298792Y213068D01*
X-298714Y213132D01*
X-298637Y213198D01*
X-298564Y213268D01*
X-298493Y213340D01*
X-298425Y213415D01*
X-298360Y213493D01*
X-298298Y213573D01*
X-298239Y213655D01*
X-298183Y213740D01*
X-298131Y213826D01*
X-298082Y213915D01*
X-298036Y214006D01*
X-297995Y214098D01*
X-297956Y214192D01*
X-297922Y214287D01*
X-297891Y214383D01*
X-297864Y214481D01*
X-297840Y214579D01*
X-297821Y214679D01*
X-297805Y214779D01*
X-297793Y214879D01*
X-297785Y214980D01*
X-297781Y215081D01*
X-297781Y215183D01*
X-297785Y215284D01*
X-297793Y215385D01*
X-297805Y215485D01*
X-297821Y215585D01*
X-297840Y215685D01*
X-297864Y215783D01*
X-297891Y215881D01*
X-297922Y215977D01*
X-297956Y216072D01*
X-297995Y216166D01*
X-298036Y216258D01*
X-298082Y216349D01*
X-298131Y216437D01*
X-298183Y216524D01*
X-298239Y216609D01*
X-298298Y216691D01*
X-298360Y216771D01*
X-298425Y216849D01*
X-298493Y216924D01*
X-298564Y216996D01*
X-298637Y217066D01*
X-298714Y217132D01*
X-298792Y217196D01*
X-298874Y217256D01*
X-298957Y217313D01*
X-299043Y217367D01*
X-299131Y217418D01*
X-299220Y217465D01*
X-299312Y217509D01*
X-299405Y217549D01*
X-299499Y217586D01*
X-299595Y217618D01*
X-299692Y217647D01*
X-299790Y217673D01*
X-299889Y217694D01*
X-299989Y217712D01*
X-300089Y217725D01*
X-300190Y217735D01*
X-300291Y217741D01*
X-300392Y217743D01*
X-299869Y221919D02*
X-303002Y221919D01*
X-299869Y221919D02*
X-299779Y221917D01*
X-299690Y221911D01*
X-299600Y221902D01*
X-299511Y221888D01*
X-299423Y221871D01*
X-299336Y221850D01*
X-299249Y221825D01*
X-299164Y221796D01*
X-299080Y221764D01*
X-298998Y221729D01*
X-298917Y221689D01*
X-298838Y221647D01*
X-298761Y221601D01*
X-298686Y221551D01*
X-298613Y221499D01*
X-298542Y221443D01*
X-298474Y221385D01*
X-298409Y221323D01*
X-298346Y221259D01*
X-298286Y221192D01*
X-298229Y221123D01*
X-298175Y221051D01*
X-298124Y220977D01*
X-298076Y220901D01*
X-298032Y220823D01*
X-297991Y220743D01*
X-297953Y220661D01*
X-297919Y220578D01*
X-297889Y220493D01*
X-297862Y220407D01*
X-297839Y220321D01*
X-297820Y220233D01*
X-297805Y220144D01*
X-297793Y220055D01*
X-297785Y219966D01*
X-297781Y219876D01*
X-297781Y219786D01*
X-297785Y219696D01*
X-297793Y219607D01*
X-297805Y219518D01*
X-297820Y219429D01*
X-297839Y219341D01*
X-297862Y219255D01*
X-297889Y219169D01*
X-297919Y219084D01*
X-297953Y219001D01*
X-297991Y218919D01*
X-298032Y218839D01*
X-298076Y218761D01*
X-298124Y218685D01*
X-298175Y218611D01*
X-298229Y218539D01*
X-298286Y218470D01*
X-298346Y218403D01*
X-298409Y218339D01*
X-298474Y218277D01*
X-298542Y218219D01*
X-298613Y218163D01*
X-298686Y218111D01*
X-298761Y218061D01*
X-298838Y218015D01*
X-298917Y217973D01*
X-298998Y217933D01*
X-299080Y217898D01*
X-299164Y217866D01*
X-299249Y217837D01*
X-299336Y217812D01*
X-299423Y217791D01*
X-299511Y217774D01*
X-299600Y217760D01*
X-299690Y217751D01*
X-299779Y217745D01*
X-299869Y217743D01*
X-299869Y217742D02*
X-301958Y217742D01*
D12*
X-282276Y240596D02*
X-282276Y248724D01*
X-282276Y240596D02*
X-287864Y240596D01*
X-310724Y240596D02*
X-310724Y248724D01*
X-310724Y240596D02*
X-305136Y240596D01*
D11*
X-312551Y267521D02*
X-312551Y276919D01*
X-309940Y276919D01*
X-309840Y276917D01*
X-309740Y276911D01*
X-309641Y276902D01*
X-309541Y276888D01*
X-309443Y276871D01*
X-309345Y276850D01*
X-309248Y276826D01*
X-309152Y276797D01*
X-309057Y276765D01*
X-308964Y276730D01*
X-308872Y276691D01*
X-308781Y276648D01*
X-308693Y276602D01*
X-308606Y276552D01*
X-308521Y276500D01*
X-308438Y276444D01*
X-308357Y276385D01*
X-308279Y276322D01*
X-308203Y276257D01*
X-308129Y276189D01*
X-308059Y276119D01*
X-307991Y276045D01*
X-307926Y275969D01*
X-307863Y275891D01*
X-307804Y275810D01*
X-307748Y275727D01*
X-307696Y275642D01*
X-307646Y275555D01*
X-307600Y275467D01*
X-307557Y275376D01*
X-307518Y275284D01*
X-307483Y275191D01*
X-307451Y275096D01*
X-307422Y275000D01*
X-307398Y274903D01*
X-307377Y274805D01*
X-307360Y274707D01*
X-307346Y274607D01*
X-307337Y274508D01*
X-307331Y274408D01*
X-307329Y274308D01*
X-307330Y274308D02*
X-307330Y270132D01*
X-307329Y270132D02*
X-307331Y270032D01*
X-307337Y269932D01*
X-307346Y269833D01*
X-307360Y269733D01*
X-307377Y269635D01*
X-307398Y269537D01*
X-307422Y269440D01*
X-307451Y269344D01*
X-307483Y269249D01*
X-307518Y269156D01*
X-307557Y269064D01*
X-307600Y268973D01*
X-307646Y268885D01*
X-307696Y268798D01*
X-307748Y268713D01*
X-307804Y268630D01*
X-307863Y268549D01*
X-307926Y268471D01*
X-307991Y268395D01*
X-308059Y268321D01*
X-308129Y268251D01*
X-308203Y268183D01*
X-308279Y268118D01*
X-308357Y268055D01*
X-308438Y267996D01*
X-308521Y267940D01*
X-308606Y267888D01*
X-308693Y267838D01*
X-308781Y267792D01*
X-308872Y267749D01*
X-308964Y267710D01*
X-309057Y267675D01*
X-309152Y267643D01*
X-309248Y267614D01*
X-309345Y267590D01*
X-309443Y267569D01*
X-309541Y267552D01*
X-309641Y267538D01*
X-309740Y267529D01*
X-309840Y267523D01*
X-309940Y267521D01*
X-312551Y267521D01*
X-303102Y269609D02*
X-301014Y276919D01*
X-303102Y269609D02*
X-297881Y269609D01*
X-299447Y271698D02*
X-299447Y267521D01*
X-278569Y115579D02*
X-278569Y106181D01*
X-278569Y115579D02*
X-275958Y115579D01*
X-275857Y115577D01*
X-275756Y115571D01*
X-275655Y115561D01*
X-275555Y115548D01*
X-275455Y115530D01*
X-275356Y115509D01*
X-275258Y115483D01*
X-275161Y115454D01*
X-275065Y115422D01*
X-274971Y115385D01*
X-274878Y115345D01*
X-274786Y115301D01*
X-274697Y115254D01*
X-274609Y115203D01*
X-274523Y115149D01*
X-274440Y115092D01*
X-274358Y115032D01*
X-274280Y114968D01*
X-274203Y114902D01*
X-274130Y114832D01*
X-274059Y114760D01*
X-273991Y114685D01*
X-273926Y114607D01*
X-273864Y114527D01*
X-273805Y114445D01*
X-273749Y114360D01*
X-273697Y114273D01*
X-273648Y114185D01*
X-273602Y114094D01*
X-273561Y114002D01*
X-273522Y113908D01*
X-273488Y113813D01*
X-273457Y113717D01*
X-273430Y113619D01*
X-273406Y113521D01*
X-273387Y113421D01*
X-273371Y113321D01*
X-273359Y113221D01*
X-273351Y113120D01*
X-273347Y113019D01*
X-273347Y112917D01*
X-273351Y112816D01*
X-273359Y112715D01*
X-273371Y112615D01*
X-273387Y112515D01*
X-273406Y112415D01*
X-273430Y112317D01*
X-273457Y112219D01*
X-273488Y112123D01*
X-273522Y112028D01*
X-273561Y111934D01*
X-273602Y111842D01*
X-273648Y111751D01*
X-273697Y111662D01*
X-273749Y111576D01*
X-273805Y111491D01*
X-273864Y111409D01*
X-273926Y111329D01*
X-273991Y111251D01*
X-274059Y111176D01*
X-274130Y111104D01*
X-274203Y111034D01*
X-274280Y110968D01*
X-274358Y110904D01*
X-274440Y110844D01*
X-274523Y110787D01*
X-274609Y110733D01*
X-274697Y110682D01*
X-274786Y110635D01*
X-274878Y110591D01*
X-274971Y110551D01*
X-275065Y110514D01*
X-275161Y110482D01*
X-275258Y110453D01*
X-275356Y110427D01*
X-275455Y110406D01*
X-275555Y110388D01*
X-275655Y110375D01*
X-275756Y110365D01*
X-275857Y110359D01*
X-275958Y110357D01*
X-275958Y110358D02*
X-278569Y110358D01*
X-275436Y110358D02*
X-273348Y106181D01*
X-269482Y113491D02*
X-266872Y115579D01*
X-266872Y106181D01*
X-269482Y106181D02*
X-264261Y106181D01*
X-277569Y160081D02*
X-277569Y169479D01*
X-274958Y169479D01*
X-274857Y169477D01*
X-274756Y169471D01*
X-274655Y169461D01*
X-274555Y169448D01*
X-274455Y169430D01*
X-274356Y169409D01*
X-274258Y169383D01*
X-274161Y169354D01*
X-274065Y169322D01*
X-273971Y169285D01*
X-273878Y169245D01*
X-273786Y169201D01*
X-273697Y169154D01*
X-273609Y169103D01*
X-273523Y169049D01*
X-273440Y168992D01*
X-273358Y168932D01*
X-273280Y168868D01*
X-273203Y168802D01*
X-273130Y168732D01*
X-273059Y168660D01*
X-272991Y168585D01*
X-272926Y168507D01*
X-272864Y168427D01*
X-272805Y168345D01*
X-272749Y168260D01*
X-272697Y168173D01*
X-272648Y168085D01*
X-272602Y167994D01*
X-272561Y167902D01*
X-272522Y167808D01*
X-272488Y167713D01*
X-272457Y167617D01*
X-272430Y167519D01*
X-272406Y167421D01*
X-272387Y167321D01*
X-272371Y167221D01*
X-272359Y167121D01*
X-272351Y167020D01*
X-272347Y166919D01*
X-272347Y166817D01*
X-272351Y166716D01*
X-272359Y166615D01*
X-272371Y166515D01*
X-272387Y166415D01*
X-272406Y166315D01*
X-272430Y166217D01*
X-272457Y166119D01*
X-272488Y166023D01*
X-272522Y165928D01*
X-272561Y165834D01*
X-272602Y165742D01*
X-272648Y165651D01*
X-272697Y165562D01*
X-272749Y165476D01*
X-272805Y165391D01*
X-272864Y165309D01*
X-272926Y165229D01*
X-272991Y165151D01*
X-273059Y165076D01*
X-273130Y165004D01*
X-273203Y164934D01*
X-273280Y164868D01*
X-273358Y164804D01*
X-273440Y164744D01*
X-273523Y164687D01*
X-273609Y164633D01*
X-273697Y164582D01*
X-273786Y164535D01*
X-273878Y164491D01*
X-273971Y164451D01*
X-274065Y164414D01*
X-274161Y164382D01*
X-274258Y164353D01*
X-274356Y164327D01*
X-274455Y164306D01*
X-274555Y164288D01*
X-274655Y164275D01*
X-274756Y164265D01*
X-274857Y164259D01*
X-274958Y164257D01*
X-274958Y164258D02*
X-277569Y164258D01*
X-274436Y164258D02*
X-272348Y160081D01*
X-263261Y167130D02*
X-263263Y167225D01*
X-263269Y167319D01*
X-263278Y167413D01*
X-263291Y167507D01*
X-263308Y167600D01*
X-263329Y167692D01*
X-263354Y167784D01*
X-263382Y167874D01*
X-263414Y167963D01*
X-263449Y168051D01*
X-263488Y168137D01*
X-263530Y168222D01*
X-263576Y168305D01*
X-263625Y168386D01*
X-263677Y168465D01*
X-263732Y168542D01*
X-263791Y168616D01*
X-263852Y168688D01*
X-263916Y168758D01*
X-263983Y168825D01*
X-264053Y168889D01*
X-264125Y168950D01*
X-264199Y169009D01*
X-264276Y169064D01*
X-264355Y169116D01*
X-264436Y169165D01*
X-264519Y169211D01*
X-264604Y169253D01*
X-264690Y169292D01*
X-264778Y169327D01*
X-264867Y169359D01*
X-264957Y169387D01*
X-265049Y169412D01*
X-265141Y169433D01*
X-265234Y169450D01*
X-265328Y169463D01*
X-265422Y169472D01*
X-265516Y169478D01*
X-265611Y169480D01*
X-265611Y169479D02*
X-265719Y169477D01*
X-265828Y169471D01*
X-265936Y169461D01*
X-266043Y169448D01*
X-266150Y169430D01*
X-266257Y169409D01*
X-266362Y169384D01*
X-266467Y169355D01*
X-266570Y169323D01*
X-266672Y169286D01*
X-266773Y169246D01*
X-266872Y169203D01*
X-266970Y169156D01*
X-267066Y169105D01*
X-267160Y169051D01*
X-267252Y168994D01*
X-267342Y168933D01*
X-267430Y168869D01*
X-267515Y168803D01*
X-267598Y168733D01*
X-267678Y168660D01*
X-267756Y168584D01*
X-267831Y168506D01*
X-267903Y168425D01*
X-267972Y168341D01*
X-268038Y168255D01*
X-268101Y168167D01*
X-268160Y168076D01*
X-268217Y167984D01*
X-268270Y167889D01*
X-268319Y167792D01*
X-268365Y167694D01*
X-268408Y167595D01*
X-268447Y167493D01*
X-268482Y167391D01*
X-264044Y165302D02*
X-263975Y165371D01*
X-263909Y165442D01*
X-263845Y165515D01*
X-263784Y165591D01*
X-263726Y165670D01*
X-263672Y165750D01*
X-263620Y165833D01*
X-263572Y165917D01*
X-263526Y166003D01*
X-263485Y166091D01*
X-263446Y166181D01*
X-263411Y166272D01*
X-263380Y166364D01*
X-263352Y166457D01*
X-263328Y166551D01*
X-263308Y166646D01*
X-263291Y166742D01*
X-263278Y166839D01*
X-263269Y166936D01*
X-263263Y167033D01*
X-263261Y167130D01*
X-264044Y165302D02*
X-268482Y160081D01*
X-263261Y160081D01*
X-278569Y213981D02*
X-278569Y223379D01*
X-275958Y223379D01*
X-275857Y223377D01*
X-275756Y223371D01*
X-275655Y223361D01*
X-275555Y223348D01*
X-275455Y223330D01*
X-275356Y223309D01*
X-275258Y223283D01*
X-275161Y223254D01*
X-275065Y223222D01*
X-274971Y223185D01*
X-274878Y223145D01*
X-274786Y223101D01*
X-274697Y223054D01*
X-274609Y223003D01*
X-274523Y222949D01*
X-274440Y222892D01*
X-274358Y222832D01*
X-274280Y222768D01*
X-274203Y222702D01*
X-274130Y222632D01*
X-274059Y222560D01*
X-273991Y222485D01*
X-273926Y222407D01*
X-273864Y222327D01*
X-273805Y222245D01*
X-273749Y222160D01*
X-273697Y222073D01*
X-273648Y221985D01*
X-273602Y221894D01*
X-273561Y221802D01*
X-273522Y221708D01*
X-273488Y221613D01*
X-273457Y221517D01*
X-273430Y221419D01*
X-273406Y221321D01*
X-273387Y221221D01*
X-273371Y221121D01*
X-273359Y221021D01*
X-273351Y220920D01*
X-273347Y220819D01*
X-273347Y220717D01*
X-273351Y220616D01*
X-273359Y220515D01*
X-273371Y220415D01*
X-273387Y220315D01*
X-273406Y220215D01*
X-273430Y220117D01*
X-273457Y220019D01*
X-273488Y219923D01*
X-273522Y219828D01*
X-273561Y219734D01*
X-273602Y219642D01*
X-273648Y219551D01*
X-273697Y219462D01*
X-273749Y219376D01*
X-273805Y219291D01*
X-273864Y219209D01*
X-273926Y219129D01*
X-273991Y219051D01*
X-274059Y218976D01*
X-274130Y218904D01*
X-274203Y218834D01*
X-274280Y218768D01*
X-274358Y218704D01*
X-274440Y218644D01*
X-274523Y218587D01*
X-274609Y218533D01*
X-274697Y218482D01*
X-274786Y218435D01*
X-274878Y218391D01*
X-274971Y218351D01*
X-275065Y218314D01*
X-275161Y218282D01*
X-275258Y218253D01*
X-275356Y218227D01*
X-275455Y218206D01*
X-275555Y218188D01*
X-275655Y218175D01*
X-275756Y218165D01*
X-275857Y218159D01*
X-275958Y218157D01*
X-275958Y218158D02*
X-278569Y218158D01*
X-275436Y218158D02*
X-273348Y213981D01*
X-269482Y213981D02*
X-266872Y213981D01*
X-266771Y213983D01*
X-266670Y213989D01*
X-266569Y213999D01*
X-266469Y214012D01*
X-266369Y214030D01*
X-266270Y214051D01*
X-266172Y214077D01*
X-266075Y214106D01*
X-265979Y214138D01*
X-265885Y214175D01*
X-265792Y214215D01*
X-265700Y214259D01*
X-265611Y214306D01*
X-265523Y214357D01*
X-265437Y214411D01*
X-265354Y214468D01*
X-265272Y214528D01*
X-265194Y214592D01*
X-265117Y214658D01*
X-265044Y214728D01*
X-264973Y214800D01*
X-264905Y214875D01*
X-264840Y214953D01*
X-264778Y215033D01*
X-264719Y215115D01*
X-264663Y215200D01*
X-264611Y215286D01*
X-264562Y215375D01*
X-264516Y215466D01*
X-264475Y215558D01*
X-264436Y215652D01*
X-264402Y215747D01*
X-264371Y215843D01*
X-264344Y215941D01*
X-264320Y216039D01*
X-264301Y216139D01*
X-264285Y216239D01*
X-264273Y216339D01*
X-264265Y216440D01*
X-264261Y216541D01*
X-264261Y216643D01*
X-264265Y216744D01*
X-264273Y216845D01*
X-264285Y216945D01*
X-264301Y217045D01*
X-264320Y217145D01*
X-264344Y217243D01*
X-264371Y217341D01*
X-264402Y217437D01*
X-264436Y217532D01*
X-264475Y217626D01*
X-264516Y217718D01*
X-264562Y217809D01*
X-264611Y217897D01*
X-264663Y217984D01*
X-264719Y218069D01*
X-264778Y218151D01*
X-264840Y218231D01*
X-264905Y218309D01*
X-264973Y218384D01*
X-265044Y218456D01*
X-265117Y218526D01*
X-265194Y218592D01*
X-265272Y218656D01*
X-265354Y218716D01*
X-265437Y218773D01*
X-265523Y218827D01*
X-265611Y218878D01*
X-265700Y218925D01*
X-265792Y218969D01*
X-265885Y219009D01*
X-265979Y219046D01*
X-266075Y219078D01*
X-266172Y219107D01*
X-266270Y219133D01*
X-266369Y219154D01*
X-266469Y219172D01*
X-266569Y219185D01*
X-266670Y219195D01*
X-266771Y219201D01*
X-266872Y219203D01*
X-266349Y223379D02*
X-269482Y223379D01*
X-266349Y223379D02*
X-266259Y223377D01*
X-266170Y223371D01*
X-266080Y223362D01*
X-265991Y223348D01*
X-265903Y223331D01*
X-265816Y223310D01*
X-265729Y223285D01*
X-265644Y223256D01*
X-265560Y223224D01*
X-265478Y223189D01*
X-265397Y223149D01*
X-265318Y223107D01*
X-265241Y223061D01*
X-265166Y223011D01*
X-265093Y222959D01*
X-265022Y222903D01*
X-264954Y222845D01*
X-264889Y222783D01*
X-264826Y222719D01*
X-264766Y222652D01*
X-264709Y222583D01*
X-264655Y222511D01*
X-264604Y222437D01*
X-264556Y222361D01*
X-264512Y222283D01*
X-264471Y222203D01*
X-264433Y222121D01*
X-264399Y222038D01*
X-264369Y221953D01*
X-264342Y221867D01*
X-264319Y221781D01*
X-264300Y221693D01*
X-264285Y221604D01*
X-264273Y221515D01*
X-264265Y221426D01*
X-264261Y221336D01*
X-264261Y221246D01*
X-264265Y221156D01*
X-264273Y221067D01*
X-264285Y220978D01*
X-264300Y220889D01*
X-264319Y220801D01*
X-264342Y220715D01*
X-264369Y220629D01*
X-264399Y220544D01*
X-264433Y220461D01*
X-264471Y220379D01*
X-264512Y220299D01*
X-264556Y220221D01*
X-264604Y220145D01*
X-264655Y220071D01*
X-264709Y219999D01*
X-264766Y219930D01*
X-264826Y219863D01*
X-264889Y219799D01*
X-264954Y219737D01*
X-265022Y219679D01*
X-265093Y219623D01*
X-265166Y219571D01*
X-265241Y219521D01*
X-265318Y219475D01*
X-265397Y219433D01*
X-265478Y219393D01*
X-265560Y219358D01*
X-265644Y219326D01*
X-265729Y219297D01*
X-265816Y219272D01*
X-265903Y219251D01*
X-265991Y219234D01*
X-266080Y219220D01*
X-266170Y219211D01*
X-266259Y219205D01*
X-266349Y219203D01*
X-266349Y219202D02*
X-268438Y219202D01*
X-277569Y267881D02*
X-277569Y277279D01*
X-274958Y277279D01*
X-274857Y277277D01*
X-274756Y277271D01*
X-274655Y277261D01*
X-274555Y277248D01*
X-274455Y277230D01*
X-274356Y277209D01*
X-274258Y277183D01*
X-274161Y277154D01*
X-274065Y277122D01*
X-273971Y277085D01*
X-273878Y277045D01*
X-273786Y277001D01*
X-273697Y276954D01*
X-273609Y276903D01*
X-273523Y276849D01*
X-273440Y276792D01*
X-273358Y276732D01*
X-273280Y276668D01*
X-273203Y276602D01*
X-273130Y276532D01*
X-273059Y276460D01*
X-272991Y276385D01*
X-272926Y276307D01*
X-272864Y276227D01*
X-272805Y276145D01*
X-272749Y276060D01*
X-272697Y275973D01*
X-272648Y275885D01*
X-272602Y275794D01*
X-272561Y275702D01*
X-272522Y275608D01*
X-272488Y275513D01*
X-272457Y275417D01*
X-272430Y275319D01*
X-272406Y275221D01*
X-272387Y275121D01*
X-272371Y275021D01*
X-272359Y274921D01*
X-272351Y274820D01*
X-272347Y274719D01*
X-272347Y274617D01*
X-272351Y274516D01*
X-272359Y274415D01*
X-272371Y274315D01*
X-272387Y274215D01*
X-272406Y274115D01*
X-272430Y274017D01*
X-272457Y273919D01*
X-272488Y273823D01*
X-272522Y273728D01*
X-272561Y273634D01*
X-272602Y273542D01*
X-272648Y273451D01*
X-272697Y273363D01*
X-272749Y273276D01*
X-272805Y273191D01*
X-272864Y273109D01*
X-272926Y273029D01*
X-272991Y272951D01*
X-273059Y272876D01*
X-273130Y272804D01*
X-273203Y272734D01*
X-273280Y272668D01*
X-273358Y272604D01*
X-273440Y272544D01*
X-273523Y272487D01*
X-273609Y272433D01*
X-273697Y272382D01*
X-273786Y272335D01*
X-273878Y272291D01*
X-273971Y272251D01*
X-274065Y272214D01*
X-274161Y272182D01*
X-274258Y272153D01*
X-274356Y272127D01*
X-274455Y272106D01*
X-274555Y272088D01*
X-274655Y272075D01*
X-274756Y272065D01*
X-274857Y272059D01*
X-274958Y272057D01*
X-274958Y272058D02*
X-277569Y272058D01*
X-274436Y272058D02*
X-272348Y267881D01*
X-268482Y269969D02*
X-266394Y277279D01*
X-268482Y269969D02*
X-263261Y269969D01*
X-264827Y272058D02*
X-264827Y267881D01*
X-173919Y70661D02*
X-164521Y70661D01*
X-173919Y70661D02*
X-173919Y73272D01*
X-173917Y73373D01*
X-173911Y73474D01*
X-173901Y73575D01*
X-173888Y73675D01*
X-173870Y73775D01*
X-173849Y73874D01*
X-173823Y73972D01*
X-173794Y74069D01*
X-173762Y74165D01*
X-173725Y74259D01*
X-173685Y74352D01*
X-173641Y74444D01*
X-173594Y74533D01*
X-173543Y74621D01*
X-173489Y74707D01*
X-173432Y74790D01*
X-173372Y74872D01*
X-173308Y74950D01*
X-173242Y75027D01*
X-173172Y75100D01*
X-173100Y75171D01*
X-173025Y75239D01*
X-172947Y75304D01*
X-172867Y75366D01*
X-172785Y75425D01*
X-172700Y75481D01*
X-172614Y75533D01*
X-172525Y75582D01*
X-172434Y75628D01*
X-172342Y75669D01*
X-172248Y75708D01*
X-172153Y75742D01*
X-172057Y75773D01*
X-171959Y75800D01*
X-171861Y75824D01*
X-171761Y75843D01*
X-171661Y75859D01*
X-171561Y75871D01*
X-171460Y75879D01*
X-171359Y75883D01*
X-171257Y75883D01*
X-171156Y75879D01*
X-171055Y75871D01*
X-170955Y75859D01*
X-170855Y75843D01*
X-170755Y75824D01*
X-170657Y75800D01*
X-170559Y75773D01*
X-170463Y75742D01*
X-170368Y75708D01*
X-170274Y75669D01*
X-170182Y75628D01*
X-170091Y75582D01*
X-170003Y75533D01*
X-169916Y75481D01*
X-169831Y75425D01*
X-169749Y75366D01*
X-169669Y75304D01*
X-169591Y75239D01*
X-169516Y75171D01*
X-169444Y75100D01*
X-169374Y75027D01*
X-169308Y74950D01*
X-169244Y74872D01*
X-169184Y74790D01*
X-169127Y74707D01*
X-169073Y74621D01*
X-169022Y74533D01*
X-168975Y74444D01*
X-168931Y74352D01*
X-168891Y74259D01*
X-168854Y74165D01*
X-168822Y74069D01*
X-168793Y73972D01*
X-168767Y73874D01*
X-168746Y73775D01*
X-168728Y73675D01*
X-168715Y73575D01*
X-168705Y73474D01*
X-168699Y73373D01*
X-168697Y73272D01*
X-168698Y73272D02*
X-168698Y70661D01*
X-168698Y73794D02*
X-164521Y75882D01*
X-168698Y81836D02*
X-168698Y84969D01*
X-168698Y81836D02*
X-168700Y81747D01*
X-168706Y81659D01*
X-168715Y81571D01*
X-168728Y81483D01*
X-168745Y81396D01*
X-168765Y81310D01*
X-168790Y81225D01*
X-168817Y81140D01*
X-168849Y81057D01*
X-168883Y80976D01*
X-168922Y80896D01*
X-168963Y80818D01*
X-169008Y80741D01*
X-169056Y80667D01*
X-169107Y80594D01*
X-169161Y80524D01*
X-169219Y80457D01*
X-169279Y80391D01*
X-169341Y80329D01*
X-169407Y80269D01*
X-169474Y80211D01*
X-169544Y80157D01*
X-169617Y80106D01*
X-169691Y80058D01*
X-169768Y80013D01*
X-169846Y79972D01*
X-169926Y79933D01*
X-170007Y79899D01*
X-170090Y79867D01*
X-170175Y79840D01*
X-170260Y79815D01*
X-170346Y79795D01*
X-170433Y79778D01*
X-170521Y79765D01*
X-170609Y79756D01*
X-170697Y79750D01*
X-170786Y79748D01*
X-171308Y79748D01*
X-171308Y79747D02*
X-171409Y79749D01*
X-171510Y79755D01*
X-171611Y79765D01*
X-171711Y79778D01*
X-171811Y79796D01*
X-171910Y79817D01*
X-172008Y79843D01*
X-172105Y79872D01*
X-172201Y79904D01*
X-172295Y79941D01*
X-172388Y79981D01*
X-172480Y80025D01*
X-172569Y80072D01*
X-172657Y80123D01*
X-172743Y80177D01*
X-172826Y80234D01*
X-172908Y80294D01*
X-172986Y80358D01*
X-173063Y80424D01*
X-173136Y80494D01*
X-173207Y80566D01*
X-173275Y80641D01*
X-173340Y80719D01*
X-173402Y80799D01*
X-173461Y80881D01*
X-173517Y80966D01*
X-173569Y81053D01*
X-173618Y81141D01*
X-173664Y81232D01*
X-173705Y81324D01*
X-173744Y81418D01*
X-173778Y81513D01*
X-173809Y81609D01*
X-173836Y81707D01*
X-173860Y81805D01*
X-173879Y81905D01*
X-173895Y82005D01*
X-173907Y82105D01*
X-173915Y82206D01*
X-173919Y82307D01*
X-173919Y82409D01*
X-173915Y82510D01*
X-173907Y82611D01*
X-173895Y82711D01*
X-173879Y82811D01*
X-173860Y82911D01*
X-173836Y83009D01*
X-173809Y83107D01*
X-173778Y83203D01*
X-173744Y83298D01*
X-173705Y83392D01*
X-173664Y83484D01*
X-173618Y83575D01*
X-173569Y83664D01*
X-173517Y83750D01*
X-173461Y83835D01*
X-173402Y83917D01*
X-173340Y83997D01*
X-173275Y84075D01*
X-173207Y84150D01*
X-173136Y84222D01*
X-173063Y84292D01*
X-172986Y84358D01*
X-172908Y84422D01*
X-172826Y84482D01*
X-172743Y84539D01*
X-172657Y84593D01*
X-172569Y84644D01*
X-172480Y84691D01*
X-172388Y84735D01*
X-172295Y84775D01*
X-172201Y84812D01*
X-172105Y84844D01*
X-172008Y84873D01*
X-171910Y84899D01*
X-171811Y84920D01*
X-171711Y84938D01*
X-171611Y84951D01*
X-171510Y84961D01*
X-171409Y84967D01*
X-171308Y84969D01*
X-168698Y84969D01*
X-168572Y84967D01*
X-168446Y84961D01*
X-168320Y84952D01*
X-168195Y84939D01*
X-168070Y84921D01*
X-167945Y84901D01*
X-167821Y84876D01*
X-167698Y84848D01*
X-167576Y84816D01*
X-167455Y84780D01*
X-167335Y84741D01*
X-167217Y84698D01*
X-167100Y84651D01*
X-166984Y84601D01*
X-166869Y84547D01*
X-166757Y84491D01*
X-166646Y84430D01*
X-166537Y84367D01*
X-166430Y84300D01*
X-166325Y84230D01*
X-166222Y84156D01*
X-166122Y84080D01*
X-166024Y84001D01*
X-165928Y83919D01*
X-165835Y83833D01*
X-165744Y83746D01*
X-165657Y83655D01*
X-165571Y83562D01*
X-165489Y83466D01*
X-165410Y83368D01*
X-165334Y83268D01*
X-165260Y83165D01*
X-165190Y83060D01*
X-165123Y82953D01*
X-165060Y82844D01*
X-164999Y82733D01*
X-164943Y82621D01*
X-164889Y82506D01*
X-164839Y82390D01*
X-164792Y82273D01*
X-164749Y82155D01*
X-164710Y82035D01*
X-164674Y81914D01*
X-164642Y81792D01*
X-164614Y81669D01*
X-164589Y81545D01*
X-164569Y81420D01*
X-164551Y81295D01*
X-164538Y81170D01*
X-164529Y81044D01*
X-164523Y80918D01*
X-164521Y80792D01*
D13*
X-77669Y98894D02*
X-77669Y100475D01*
X-77668Y100475D02*
X-77666Y100554D01*
X-77660Y100632D01*
X-77650Y100710D01*
X-77637Y100788D01*
X-77619Y100865D01*
X-77598Y100941D01*
X-77573Y101015D01*
X-77544Y101089D01*
X-77512Y101161D01*
X-77476Y101231D01*
X-77436Y101299D01*
X-77393Y101365D01*
X-77347Y101429D01*
X-77298Y101491D01*
X-77246Y101550D01*
X-77191Y101606D01*
X-77133Y101660D01*
X-77073Y101710D01*
X-77010Y101758D01*
X-76945Y101802D01*
X-76878Y101843D01*
X-76809Y101881D01*
X-76738Y101915D01*
X-76665Y101946D01*
X-76591Y101973D01*
X-76516Y101996D01*
X-76440Y102015D01*
X-76362Y102031D01*
X-76284Y102043D01*
X-76206Y102051D01*
X-76127Y102055D01*
X-76049Y102055D01*
X-75970Y102051D01*
X-75892Y102043D01*
X-75814Y102031D01*
X-75736Y102015D01*
X-75660Y101996D01*
X-75585Y101973D01*
X-75511Y101946D01*
X-75438Y101915D01*
X-75367Y101881D01*
X-75298Y101843D01*
X-75231Y101802D01*
X-75166Y101758D01*
X-75103Y101710D01*
X-75043Y101660D01*
X-74985Y101606D01*
X-74930Y101550D01*
X-74878Y101491D01*
X-74829Y101429D01*
X-74783Y101365D01*
X-74740Y101299D01*
X-74700Y101231D01*
X-74664Y101161D01*
X-74632Y101089D01*
X-74603Y101015D01*
X-74578Y100941D01*
X-74557Y100865D01*
X-74539Y100788D01*
X-74526Y100710D01*
X-74516Y100632D01*
X-74510Y100554D01*
X-74508Y100475D01*
X-74508Y98894D01*
X-74510Y98815D01*
X-74516Y98737D01*
X-74526Y98659D01*
X-74539Y98581D01*
X-74557Y98504D01*
X-74578Y98428D01*
X-74603Y98354D01*
X-74632Y98280D01*
X-74664Y98208D01*
X-74700Y98138D01*
X-74740Y98070D01*
X-74783Y98004D01*
X-74829Y97940D01*
X-74878Y97878D01*
X-74930Y97819D01*
X-74985Y97763D01*
X-75043Y97709D01*
X-75103Y97659D01*
X-75166Y97611D01*
X-75231Y97567D01*
X-75298Y97526D01*
X-75367Y97488D01*
X-75438Y97454D01*
X-75511Y97423D01*
X-75585Y97396D01*
X-75660Y97373D01*
X-75736Y97354D01*
X-75814Y97338D01*
X-75892Y97326D01*
X-75970Y97318D01*
X-76049Y97314D01*
X-76127Y97314D01*
X-76206Y97318D01*
X-76284Y97326D01*
X-76362Y97338D01*
X-76440Y97354D01*
X-76516Y97373D01*
X-76591Y97396D01*
X-76665Y97423D01*
X-76738Y97454D01*
X-76809Y97488D01*
X-76878Y97526D01*
X-76945Y97567D01*
X-77010Y97611D01*
X-77073Y97659D01*
X-77133Y97709D01*
X-77191Y97763D01*
X-77246Y97819D01*
X-77298Y97878D01*
X-77347Y97940D01*
X-77393Y98004D01*
X-77436Y98070D01*
X-77476Y98138D01*
X-77512Y98208D01*
X-77544Y98280D01*
X-77573Y98354D01*
X-77598Y98428D01*
X-77619Y98504D01*
X-77637Y98581D01*
X-77650Y98659D01*
X-77660Y98737D01*
X-77666Y98815D01*
X-77668Y98894D01*
X-71464Y102055D02*
X-71464Y94943D01*
X-71464Y102055D02*
X-69489Y102055D01*
X-69423Y102053D01*
X-69356Y102048D01*
X-69291Y102038D01*
X-69225Y102025D01*
X-69161Y102009D01*
X-69098Y101989D01*
X-69036Y101965D01*
X-68975Y101938D01*
X-68916Y101907D01*
X-68859Y101873D01*
X-68803Y101836D01*
X-68750Y101796D01*
X-68699Y101754D01*
X-68651Y101708D01*
X-68605Y101660D01*
X-68563Y101609D01*
X-68523Y101556D01*
X-68486Y101500D01*
X-68452Y101443D01*
X-68421Y101384D01*
X-68394Y101324D01*
X-68371Y101261D01*
X-68350Y101198D01*
X-68334Y101134D01*
X-68321Y101069D01*
X-68311Y101003D01*
X-68306Y100937D01*
X-68304Y100870D01*
X-68303Y100870D02*
X-68303Y98499D01*
X-68304Y98499D02*
X-68306Y98433D01*
X-68311Y98366D01*
X-68321Y98301D01*
X-68334Y98235D01*
X-68350Y98171D01*
X-68371Y98108D01*
X-68394Y98046D01*
X-68421Y97985D01*
X-68452Y97926D01*
X-68486Y97869D01*
X-68523Y97813D01*
X-68563Y97760D01*
X-68605Y97709D01*
X-68651Y97661D01*
X-68699Y97615D01*
X-68750Y97573D01*
X-68803Y97533D01*
X-68859Y97496D01*
X-68916Y97462D01*
X-68975Y97431D01*
X-69036Y97404D01*
X-69098Y97380D01*
X-69161Y97360D01*
X-69225Y97344D01*
X-69291Y97331D01*
X-69356Y97321D01*
X-69423Y97316D01*
X-69489Y97314D01*
X-71464Y97314D01*
X-64368Y97314D02*
X-62392Y97314D01*
X-64368Y97314D02*
X-64434Y97316D01*
X-64501Y97321D01*
X-64566Y97331D01*
X-64632Y97344D01*
X-64696Y97360D01*
X-64759Y97380D01*
X-64821Y97404D01*
X-64882Y97431D01*
X-64941Y97462D01*
X-64998Y97496D01*
X-65054Y97533D01*
X-65107Y97573D01*
X-65158Y97615D01*
X-65206Y97661D01*
X-65252Y97709D01*
X-65294Y97760D01*
X-65334Y97813D01*
X-65371Y97869D01*
X-65405Y97926D01*
X-65436Y97985D01*
X-65463Y98046D01*
X-65487Y98108D01*
X-65507Y98171D01*
X-65523Y98235D01*
X-65536Y98301D01*
X-65546Y98366D01*
X-65551Y98433D01*
X-65553Y98499D01*
X-65553Y100475D01*
X-65551Y100554D01*
X-65545Y100632D01*
X-65535Y100710D01*
X-65522Y100788D01*
X-65504Y100865D01*
X-65483Y100941D01*
X-65458Y101015D01*
X-65429Y101089D01*
X-65397Y101161D01*
X-65361Y101231D01*
X-65321Y101299D01*
X-65278Y101365D01*
X-65232Y101429D01*
X-65183Y101491D01*
X-65131Y101550D01*
X-65076Y101606D01*
X-65018Y101660D01*
X-64958Y101710D01*
X-64895Y101758D01*
X-64830Y101802D01*
X-64763Y101843D01*
X-64694Y101881D01*
X-64623Y101915D01*
X-64550Y101946D01*
X-64476Y101973D01*
X-64401Y101996D01*
X-64325Y102015D01*
X-64247Y102031D01*
X-64169Y102043D01*
X-64091Y102051D01*
X-64012Y102055D01*
X-63934Y102055D01*
X-63855Y102051D01*
X-63777Y102043D01*
X-63699Y102031D01*
X-63621Y102015D01*
X-63545Y101996D01*
X-63470Y101973D01*
X-63396Y101946D01*
X-63323Y101915D01*
X-63252Y101881D01*
X-63183Y101843D01*
X-63116Y101802D01*
X-63051Y101758D01*
X-62988Y101710D01*
X-62928Y101660D01*
X-62870Y101606D01*
X-62815Y101550D01*
X-62763Y101491D01*
X-62714Y101429D01*
X-62668Y101365D01*
X-62625Y101299D01*
X-62585Y101231D01*
X-62549Y101161D01*
X-62517Y101089D01*
X-62488Y101015D01*
X-62463Y100941D01*
X-62442Y100865D01*
X-62424Y100788D01*
X-62411Y100710D01*
X-62401Y100632D01*
X-62395Y100554D01*
X-62393Y100475D01*
X-62392Y100475D02*
X-62392Y99685D01*
X-65553Y99685D01*
X-59381Y97314D02*
X-59381Y102055D01*
X-57405Y102055D01*
X-57339Y102053D01*
X-57272Y102048D01*
X-57207Y102038D01*
X-57141Y102025D01*
X-57077Y102009D01*
X-57014Y101989D01*
X-56952Y101965D01*
X-56891Y101938D01*
X-56832Y101907D01*
X-56775Y101873D01*
X-56719Y101836D01*
X-56666Y101796D01*
X-56615Y101754D01*
X-56567Y101708D01*
X-56521Y101660D01*
X-56479Y101609D01*
X-56439Y101556D01*
X-56402Y101500D01*
X-56368Y101443D01*
X-56337Y101384D01*
X-56310Y101324D01*
X-56287Y101261D01*
X-56266Y101198D01*
X-56250Y101134D01*
X-56237Y101069D01*
X-56227Y101003D01*
X-56222Y100937D01*
X-56220Y100870D01*
X-56220Y97314D01*
X-48958Y100080D02*
X-46983Y99290D01*
X-48958Y100080D02*
X-49016Y100105D01*
X-49072Y100134D01*
X-49127Y100166D01*
X-49179Y100202D01*
X-49229Y100241D01*
X-49276Y100282D01*
X-49321Y100327D01*
X-49363Y100374D01*
X-49402Y100423D01*
X-49438Y100475D01*
X-49471Y100529D01*
X-49500Y100585D01*
X-49526Y100643D01*
X-49548Y100702D01*
X-49566Y100763D01*
X-49581Y100824D01*
X-49592Y100886D01*
X-49599Y100949D01*
X-49602Y101012D01*
X-49601Y101075D01*
X-49596Y101138D01*
X-49588Y101201D01*
X-49575Y101263D01*
X-49559Y101324D01*
X-49539Y101384D01*
X-49516Y101442D01*
X-49489Y101499D01*
X-49458Y101554D01*
X-49424Y101608D01*
X-49387Y101659D01*
X-49347Y101707D01*
X-49304Y101754D01*
X-49258Y101797D01*
X-49209Y101837D01*
X-49158Y101875D01*
X-49105Y101909D01*
X-49050Y101940D01*
X-48993Y101967D01*
X-48935Y101991D01*
X-48875Y102011D01*
X-48814Y102027D01*
X-48752Y102040D01*
X-48689Y102049D01*
X-48627Y102054D01*
X-48563Y102055D01*
X-48563Y102056D02*
X-48432Y102052D01*
X-48301Y102044D01*
X-48171Y102033D01*
X-48041Y102018D01*
X-47911Y101998D01*
X-47782Y101976D01*
X-47654Y101949D01*
X-47526Y101919D01*
X-47400Y101885D01*
X-47274Y101847D01*
X-47150Y101806D01*
X-47027Y101761D01*
X-46905Y101712D01*
X-46785Y101660D01*
X-46983Y99289D02*
X-46925Y99264D01*
X-46869Y99235D01*
X-46814Y99203D01*
X-46762Y99167D01*
X-46712Y99128D01*
X-46665Y99087D01*
X-46620Y99042D01*
X-46578Y98995D01*
X-46539Y98946D01*
X-46503Y98894D01*
X-46470Y98840D01*
X-46441Y98784D01*
X-46415Y98726D01*
X-46393Y98667D01*
X-46375Y98606D01*
X-46360Y98545D01*
X-46349Y98483D01*
X-46342Y98420D01*
X-46339Y98357D01*
X-46340Y98294D01*
X-46345Y98231D01*
X-46353Y98168D01*
X-46366Y98106D01*
X-46382Y98045D01*
X-46402Y97985D01*
X-46425Y97927D01*
X-46452Y97870D01*
X-46483Y97815D01*
X-46517Y97761D01*
X-46554Y97710D01*
X-46594Y97662D01*
X-46637Y97615D01*
X-46683Y97572D01*
X-46732Y97532D01*
X-46783Y97494D01*
X-46836Y97460D01*
X-46891Y97429D01*
X-46948Y97402D01*
X-47006Y97378D01*
X-47066Y97358D01*
X-47127Y97342D01*
X-47189Y97329D01*
X-47252Y97320D01*
X-47314Y97315D01*
X-47378Y97314D01*
X-47536Y97318D01*
X-47694Y97326D01*
X-47852Y97337D01*
X-48010Y97353D01*
X-48168Y97372D01*
X-48324Y97395D01*
X-48481Y97421D01*
X-48636Y97451D01*
X-48791Y97485D01*
X-48945Y97523D01*
X-49098Y97564D01*
X-49250Y97609D01*
X-49401Y97657D01*
X-49551Y97709D01*
X-43608Y98894D02*
X-43608Y100475D01*
X-43607Y100475D02*
X-43605Y100554D01*
X-43599Y100632D01*
X-43589Y100710D01*
X-43576Y100788D01*
X-43558Y100865D01*
X-43537Y100941D01*
X-43512Y101015D01*
X-43483Y101089D01*
X-43451Y101161D01*
X-43415Y101231D01*
X-43375Y101299D01*
X-43332Y101365D01*
X-43286Y101429D01*
X-43237Y101491D01*
X-43185Y101550D01*
X-43130Y101606D01*
X-43072Y101660D01*
X-43012Y101710D01*
X-42949Y101758D01*
X-42884Y101802D01*
X-42817Y101843D01*
X-42748Y101881D01*
X-42677Y101915D01*
X-42604Y101946D01*
X-42530Y101973D01*
X-42455Y101996D01*
X-42379Y102015D01*
X-42301Y102031D01*
X-42223Y102043D01*
X-42145Y102051D01*
X-42066Y102055D01*
X-41988Y102055D01*
X-41909Y102051D01*
X-41831Y102043D01*
X-41753Y102031D01*
X-41675Y102015D01*
X-41599Y101996D01*
X-41524Y101973D01*
X-41450Y101946D01*
X-41377Y101915D01*
X-41306Y101881D01*
X-41237Y101843D01*
X-41170Y101802D01*
X-41105Y101758D01*
X-41042Y101710D01*
X-40982Y101660D01*
X-40924Y101606D01*
X-40869Y101550D01*
X-40817Y101491D01*
X-40768Y101429D01*
X-40722Y101365D01*
X-40679Y101299D01*
X-40639Y101231D01*
X-40603Y101161D01*
X-40571Y101089D01*
X-40542Y101015D01*
X-40517Y100941D01*
X-40496Y100865D01*
X-40478Y100788D01*
X-40465Y100710D01*
X-40455Y100632D01*
X-40449Y100554D01*
X-40447Y100475D01*
X-40447Y98894D01*
X-40449Y98815D01*
X-40455Y98737D01*
X-40465Y98659D01*
X-40478Y98581D01*
X-40496Y98504D01*
X-40517Y98428D01*
X-40542Y98354D01*
X-40571Y98280D01*
X-40603Y98208D01*
X-40639Y98138D01*
X-40679Y98070D01*
X-40722Y98004D01*
X-40768Y97940D01*
X-40817Y97878D01*
X-40869Y97819D01*
X-40924Y97763D01*
X-40982Y97709D01*
X-41042Y97659D01*
X-41105Y97611D01*
X-41170Y97567D01*
X-41237Y97526D01*
X-41306Y97488D01*
X-41377Y97454D01*
X-41450Y97423D01*
X-41524Y97396D01*
X-41599Y97373D01*
X-41675Y97354D01*
X-41753Y97338D01*
X-41831Y97326D01*
X-41909Y97318D01*
X-41988Y97314D01*
X-42066Y97314D01*
X-42145Y97318D01*
X-42223Y97326D01*
X-42301Y97338D01*
X-42379Y97354D01*
X-42455Y97373D01*
X-42530Y97396D01*
X-42604Y97423D01*
X-42677Y97454D01*
X-42748Y97488D01*
X-42817Y97526D01*
X-42884Y97567D01*
X-42949Y97611D01*
X-43012Y97659D01*
X-43072Y97709D01*
X-43130Y97763D01*
X-43185Y97819D01*
X-43237Y97878D01*
X-43286Y97940D01*
X-43332Y98004D01*
X-43375Y98070D01*
X-43415Y98138D01*
X-43451Y98208D01*
X-43483Y98280D01*
X-43512Y98354D01*
X-43537Y98428D01*
X-43558Y98504D01*
X-43576Y98581D01*
X-43589Y98659D01*
X-43599Y98737D01*
X-43605Y98815D01*
X-43607Y98894D01*
X-37435Y98499D02*
X-37435Y102055D01*
X-37435Y98499D02*
X-37433Y98433D01*
X-37428Y98366D01*
X-37418Y98301D01*
X-37405Y98235D01*
X-37389Y98171D01*
X-37369Y98108D01*
X-37345Y98046D01*
X-37318Y97985D01*
X-37287Y97926D01*
X-37253Y97869D01*
X-37216Y97813D01*
X-37176Y97760D01*
X-37134Y97709D01*
X-37088Y97661D01*
X-37040Y97615D01*
X-36989Y97573D01*
X-36936Y97533D01*
X-36880Y97496D01*
X-36823Y97462D01*
X-36764Y97431D01*
X-36703Y97404D01*
X-36641Y97380D01*
X-36578Y97360D01*
X-36514Y97344D01*
X-36448Y97331D01*
X-36383Y97321D01*
X-36316Y97316D01*
X-36250Y97314D01*
X-34274Y97314D01*
X-34274Y102055D01*
X-30998Y102055D02*
X-30998Y97314D01*
X-30998Y102055D02*
X-28627Y102055D01*
X-28627Y101265D01*
X-25270Y97314D02*
X-23690Y97314D01*
X-25270Y97314D02*
X-25336Y97316D01*
X-25403Y97321D01*
X-25468Y97331D01*
X-25534Y97344D01*
X-25598Y97360D01*
X-25661Y97380D01*
X-25723Y97404D01*
X-25784Y97431D01*
X-25843Y97462D01*
X-25900Y97496D01*
X-25956Y97533D01*
X-26009Y97573D01*
X-26060Y97615D01*
X-26108Y97661D01*
X-26154Y97709D01*
X-26196Y97760D01*
X-26236Y97813D01*
X-26273Y97869D01*
X-26307Y97926D01*
X-26338Y97985D01*
X-26365Y98046D01*
X-26389Y98108D01*
X-26409Y98171D01*
X-26425Y98235D01*
X-26438Y98301D01*
X-26448Y98366D01*
X-26453Y98433D01*
X-26455Y98499D01*
X-26455Y100870D01*
X-26453Y100936D01*
X-26448Y101003D01*
X-26438Y101068D01*
X-26425Y101134D01*
X-26409Y101198D01*
X-26389Y101261D01*
X-26365Y101323D01*
X-26338Y101384D01*
X-26307Y101443D01*
X-26273Y101500D01*
X-26236Y101556D01*
X-26196Y101609D01*
X-26154Y101660D01*
X-26108Y101708D01*
X-26060Y101754D01*
X-26009Y101796D01*
X-25956Y101836D01*
X-25900Y101873D01*
X-25843Y101907D01*
X-25784Y101938D01*
X-25723Y101965D01*
X-25661Y101989D01*
X-25598Y102009D01*
X-25534Y102025D01*
X-25468Y102038D01*
X-25403Y102048D01*
X-25336Y102053D01*
X-25270Y102055D01*
X-23690Y102055D01*
X-20020Y97314D02*
X-18044Y97314D01*
X-20020Y97314D02*
X-20086Y97316D01*
X-20153Y97321D01*
X-20218Y97331D01*
X-20284Y97344D01*
X-20348Y97360D01*
X-20411Y97380D01*
X-20473Y97404D01*
X-20534Y97431D01*
X-20593Y97462D01*
X-20650Y97496D01*
X-20706Y97533D01*
X-20759Y97573D01*
X-20810Y97615D01*
X-20858Y97661D01*
X-20904Y97709D01*
X-20946Y97760D01*
X-20986Y97813D01*
X-21023Y97869D01*
X-21057Y97926D01*
X-21088Y97985D01*
X-21115Y98046D01*
X-21139Y98108D01*
X-21159Y98171D01*
X-21175Y98235D01*
X-21188Y98301D01*
X-21198Y98366D01*
X-21203Y98433D01*
X-21205Y98499D01*
X-21205Y100475D01*
X-21204Y100475D02*
X-21202Y100554D01*
X-21196Y100632D01*
X-21186Y100710D01*
X-21173Y100788D01*
X-21155Y100865D01*
X-21134Y100941D01*
X-21109Y101015D01*
X-21080Y101089D01*
X-21048Y101161D01*
X-21012Y101231D01*
X-20972Y101299D01*
X-20929Y101365D01*
X-20883Y101429D01*
X-20834Y101491D01*
X-20782Y101550D01*
X-20727Y101606D01*
X-20669Y101660D01*
X-20609Y101710D01*
X-20546Y101758D01*
X-20481Y101802D01*
X-20414Y101843D01*
X-20345Y101881D01*
X-20274Y101915D01*
X-20201Y101946D01*
X-20127Y101973D01*
X-20052Y101996D01*
X-19976Y102015D01*
X-19898Y102031D01*
X-19820Y102043D01*
X-19742Y102051D01*
X-19663Y102055D01*
X-19585Y102055D01*
X-19506Y102051D01*
X-19428Y102043D01*
X-19350Y102031D01*
X-19272Y102015D01*
X-19196Y101996D01*
X-19121Y101973D01*
X-19047Y101946D01*
X-18974Y101915D01*
X-18903Y101881D01*
X-18834Y101843D01*
X-18767Y101802D01*
X-18702Y101758D01*
X-18639Y101710D01*
X-18579Y101660D01*
X-18521Y101606D01*
X-18466Y101550D01*
X-18414Y101491D01*
X-18365Y101429D01*
X-18319Y101365D01*
X-18276Y101299D01*
X-18236Y101231D01*
X-18200Y101161D01*
X-18168Y101089D01*
X-18139Y101015D01*
X-18114Y100941D01*
X-18093Y100865D01*
X-18075Y100788D01*
X-18062Y100710D01*
X-18052Y100632D01*
X-18046Y100554D01*
X-18044Y100475D01*
X-18044Y99685D01*
X-21205Y99685D01*
X-68982Y92996D02*
X-68982Y85884D01*
X-68982Y90625D02*
X-67006Y90625D01*
X-66940Y90623D01*
X-66873Y90618D01*
X-66808Y90608D01*
X-66742Y90595D01*
X-66678Y90579D01*
X-66615Y90559D01*
X-66553Y90535D01*
X-66492Y90508D01*
X-66433Y90477D01*
X-66376Y90443D01*
X-66320Y90406D01*
X-66267Y90366D01*
X-66216Y90324D01*
X-66168Y90278D01*
X-66122Y90230D01*
X-66080Y90179D01*
X-66040Y90126D01*
X-66003Y90070D01*
X-65969Y90013D01*
X-65938Y89954D01*
X-65911Y89894D01*
X-65888Y89831D01*
X-65867Y89768D01*
X-65851Y89704D01*
X-65838Y89639D01*
X-65828Y89573D01*
X-65823Y89507D01*
X-65821Y89440D01*
X-65821Y85884D01*
X-61459Y88650D02*
X-59681Y88650D01*
X-61459Y88650D02*
X-61533Y88648D01*
X-61606Y88642D01*
X-61679Y88632D01*
X-61751Y88619D01*
X-61823Y88601D01*
X-61893Y88580D01*
X-61963Y88555D01*
X-62030Y88526D01*
X-62097Y88494D01*
X-62161Y88459D01*
X-62224Y88419D01*
X-62284Y88377D01*
X-62342Y88332D01*
X-62397Y88283D01*
X-62450Y88232D01*
X-62500Y88178D01*
X-62547Y88121D01*
X-62591Y88062D01*
X-62631Y88001D01*
X-62669Y87937D01*
X-62703Y87872D01*
X-62733Y87805D01*
X-62760Y87736D01*
X-62783Y87666D01*
X-62802Y87595D01*
X-62818Y87523D01*
X-62830Y87451D01*
X-62838Y87377D01*
X-62842Y87304D01*
X-62842Y87230D01*
X-62838Y87157D01*
X-62830Y87083D01*
X-62818Y87011D01*
X-62802Y86939D01*
X-62783Y86868D01*
X-62760Y86798D01*
X-62733Y86729D01*
X-62703Y86662D01*
X-62669Y86597D01*
X-62631Y86533D01*
X-62591Y86472D01*
X-62547Y86413D01*
X-62500Y86356D01*
X-62450Y86302D01*
X-62397Y86251D01*
X-62342Y86202D01*
X-62284Y86157D01*
X-62224Y86115D01*
X-62161Y86075D01*
X-62097Y86040D01*
X-62030Y86008D01*
X-61963Y85979D01*
X-61893Y85954D01*
X-61823Y85933D01*
X-61751Y85915D01*
X-61679Y85902D01*
X-61606Y85892D01*
X-61533Y85886D01*
X-61459Y85884D01*
X-59681Y85884D01*
X-59681Y89440D01*
X-59682Y89440D02*
X-59684Y89506D01*
X-59689Y89573D01*
X-59699Y89638D01*
X-59712Y89704D01*
X-59728Y89768D01*
X-59749Y89831D01*
X-59772Y89893D01*
X-59799Y89954D01*
X-59830Y90013D01*
X-59864Y90070D01*
X-59901Y90126D01*
X-59941Y90179D01*
X-59983Y90230D01*
X-60029Y90278D01*
X-60077Y90324D01*
X-60128Y90366D01*
X-60181Y90406D01*
X-60237Y90443D01*
X-60294Y90477D01*
X-60353Y90508D01*
X-60414Y90535D01*
X-60476Y90559D01*
X-60539Y90579D01*
X-60603Y90595D01*
X-60669Y90608D01*
X-60734Y90618D01*
X-60801Y90623D01*
X-60867Y90625D01*
X-62447Y90625D01*
X-56373Y90625D02*
X-56373Y85884D01*
X-56373Y90625D02*
X-54002Y90625D01*
X-54002Y89835D01*
X-48709Y92996D02*
X-48709Y85884D01*
X-50684Y85884D01*
X-50750Y85886D01*
X-50817Y85891D01*
X-50882Y85901D01*
X-50948Y85914D01*
X-51012Y85930D01*
X-51075Y85950D01*
X-51137Y85974D01*
X-51198Y86001D01*
X-51257Y86032D01*
X-51314Y86066D01*
X-51370Y86103D01*
X-51423Y86143D01*
X-51474Y86185D01*
X-51522Y86231D01*
X-51568Y86279D01*
X-51610Y86330D01*
X-51650Y86383D01*
X-51687Y86439D01*
X-51721Y86496D01*
X-51752Y86555D01*
X-51779Y86616D01*
X-51803Y86678D01*
X-51823Y86741D01*
X-51839Y86805D01*
X-51852Y86871D01*
X-51862Y86936D01*
X-51867Y87003D01*
X-51869Y87069D01*
X-51869Y89440D01*
X-51867Y89506D01*
X-51862Y89573D01*
X-51852Y89638D01*
X-51839Y89704D01*
X-51823Y89768D01*
X-51803Y89831D01*
X-51779Y89893D01*
X-51752Y89954D01*
X-51721Y90013D01*
X-51687Y90070D01*
X-51650Y90126D01*
X-51610Y90179D01*
X-51568Y90230D01*
X-51522Y90278D01*
X-51474Y90324D01*
X-51423Y90366D01*
X-51370Y90406D01*
X-51314Y90443D01*
X-51257Y90477D01*
X-51198Y90508D01*
X-51137Y90535D01*
X-51075Y90559D01*
X-51012Y90579D01*
X-50948Y90595D01*
X-50882Y90608D01*
X-50817Y90618D01*
X-50750Y90623D01*
X-50684Y90625D01*
X-48709Y90625D01*
X-45769Y90625D02*
X-44584Y85884D01*
X-43399Y89045D01*
X-42213Y85884D01*
X-41028Y90625D01*
X-36999Y88650D02*
X-35221Y88650D01*
X-36999Y88650D02*
X-37073Y88648D01*
X-37146Y88642D01*
X-37219Y88632D01*
X-37291Y88619D01*
X-37363Y88601D01*
X-37433Y88580D01*
X-37503Y88555D01*
X-37570Y88526D01*
X-37637Y88494D01*
X-37701Y88459D01*
X-37764Y88419D01*
X-37824Y88377D01*
X-37882Y88332D01*
X-37937Y88283D01*
X-37990Y88232D01*
X-38040Y88178D01*
X-38087Y88121D01*
X-38131Y88062D01*
X-38171Y88001D01*
X-38209Y87937D01*
X-38243Y87872D01*
X-38273Y87805D01*
X-38300Y87736D01*
X-38323Y87666D01*
X-38342Y87595D01*
X-38358Y87523D01*
X-38370Y87451D01*
X-38378Y87377D01*
X-38382Y87304D01*
X-38382Y87230D01*
X-38378Y87157D01*
X-38370Y87083D01*
X-38358Y87011D01*
X-38342Y86939D01*
X-38323Y86868D01*
X-38300Y86798D01*
X-38273Y86729D01*
X-38243Y86662D01*
X-38209Y86597D01*
X-38171Y86533D01*
X-38131Y86472D01*
X-38087Y86413D01*
X-38040Y86356D01*
X-37990Y86302D01*
X-37937Y86251D01*
X-37882Y86202D01*
X-37824Y86157D01*
X-37764Y86115D01*
X-37701Y86075D01*
X-37637Y86040D01*
X-37570Y86008D01*
X-37503Y85979D01*
X-37433Y85954D01*
X-37363Y85933D01*
X-37291Y85915D01*
X-37219Y85902D01*
X-37146Y85892D01*
X-37073Y85886D01*
X-36999Y85884D01*
X-35221Y85884D01*
X-35221Y89440D01*
X-35222Y89440D02*
X-35224Y89506D01*
X-35229Y89573D01*
X-35239Y89638D01*
X-35252Y89704D01*
X-35268Y89768D01*
X-35289Y89831D01*
X-35312Y89893D01*
X-35339Y89954D01*
X-35370Y90013D01*
X-35404Y90070D01*
X-35441Y90126D01*
X-35481Y90179D01*
X-35523Y90230D01*
X-35569Y90278D01*
X-35617Y90324D01*
X-35668Y90366D01*
X-35721Y90406D01*
X-35777Y90443D01*
X-35834Y90477D01*
X-35893Y90508D01*
X-35954Y90535D01*
X-36016Y90559D01*
X-36079Y90579D01*
X-36143Y90595D01*
X-36209Y90608D01*
X-36274Y90618D01*
X-36341Y90623D01*
X-36407Y90625D01*
X-37987Y90625D01*
X-31913Y90625D02*
X-31913Y85884D01*
X-31913Y90625D02*
X-29542Y90625D01*
X-29542Y89835D01*
X-26192Y85884D02*
X-24216Y85884D01*
X-26192Y85884D02*
X-26258Y85886D01*
X-26325Y85891D01*
X-26390Y85901D01*
X-26456Y85914D01*
X-26520Y85930D01*
X-26583Y85950D01*
X-26645Y85974D01*
X-26706Y86001D01*
X-26765Y86032D01*
X-26822Y86066D01*
X-26878Y86103D01*
X-26931Y86143D01*
X-26982Y86185D01*
X-27030Y86231D01*
X-27076Y86279D01*
X-27118Y86330D01*
X-27158Y86383D01*
X-27195Y86439D01*
X-27229Y86496D01*
X-27260Y86555D01*
X-27287Y86616D01*
X-27311Y86678D01*
X-27331Y86741D01*
X-27347Y86805D01*
X-27360Y86871D01*
X-27370Y86936D01*
X-27375Y87003D01*
X-27377Y87069D01*
X-27377Y89045D01*
X-27375Y89124D01*
X-27369Y89202D01*
X-27359Y89280D01*
X-27346Y89358D01*
X-27328Y89435D01*
X-27307Y89511D01*
X-27282Y89585D01*
X-27253Y89659D01*
X-27221Y89731D01*
X-27185Y89801D01*
X-27145Y89869D01*
X-27102Y89935D01*
X-27056Y89999D01*
X-27007Y90061D01*
X-26955Y90120D01*
X-26900Y90176D01*
X-26842Y90230D01*
X-26782Y90280D01*
X-26719Y90328D01*
X-26654Y90372D01*
X-26587Y90413D01*
X-26518Y90451D01*
X-26447Y90485D01*
X-26374Y90516D01*
X-26300Y90543D01*
X-26225Y90566D01*
X-26149Y90585D01*
X-26071Y90601D01*
X-25993Y90613D01*
X-25915Y90621D01*
X-25836Y90625D01*
X-25758Y90625D01*
X-25679Y90621D01*
X-25601Y90613D01*
X-25523Y90601D01*
X-25445Y90585D01*
X-25369Y90566D01*
X-25294Y90543D01*
X-25220Y90516D01*
X-25147Y90485D01*
X-25076Y90451D01*
X-25007Y90413D01*
X-24940Y90372D01*
X-24875Y90328D01*
X-24812Y90280D01*
X-24752Y90230D01*
X-24694Y90176D01*
X-24639Y90120D01*
X-24587Y90061D01*
X-24538Y89999D01*
X-24492Y89935D01*
X-24449Y89869D01*
X-24409Y89801D01*
X-24373Y89731D01*
X-24341Y89659D01*
X-24312Y89585D01*
X-24287Y89511D01*
X-24266Y89435D01*
X-24248Y89358D01*
X-24235Y89280D01*
X-24225Y89202D01*
X-24219Y89124D01*
X-24217Y89045D01*
X-24216Y89045D02*
X-24216Y88255D01*
X-27377Y88255D01*
M02*
