G04 EAGLE Gerber X2 export*
G75*
%MOMM*%
%FSLAX34Y34*%
%LPD*%
%AMOC8*
5,1,8,0,0,1.08239X$1,22.5*%
G01*
%ADD10C,3.103200*%
%ADD11R,1.703200X1.503200*%
%ADD12R,1.203200X1.603200*%
%ADD13C,1.524000*%
%ADD14R,1.711200X1.711200*%
%ADD15C,1.711200*%
%ADD16C,1.727200*%
%ADD17C,0.959600*%


D10*
X-120000Y262500D03*
X-320000Y27500D03*
D11*
X-160700Y200900D03*
X-160700Y181900D03*
D12*
X-287400Y96500D03*
X-306400Y96500D03*
X-296900Y74500D03*
X-286800Y150200D03*
X-305800Y150200D03*
X-296300Y128200D03*
X-286900Y204200D03*
X-305900Y204200D03*
X-296400Y182200D03*
X-287000Y258200D03*
X-306000Y258200D03*
X-296500Y236200D03*
D11*
X-268100Y75900D03*
X-268100Y94900D03*
X-268000Y129900D03*
X-268000Y148900D03*
X-267900Y183900D03*
X-267900Y202900D03*
X-267800Y237900D03*
X-267800Y256900D03*
D13*
X-246300Y98600D02*
X-233092Y98600D01*
X-233092Y73200D02*
X-246300Y73200D01*
X-322500Y73200D02*
X-335708Y73200D01*
X-335708Y98600D02*
X-322500Y98600D01*
X-246300Y152500D02*
X-233092Y152500D01*
X-233092Y127100D02*
X-246300Y127100D01*
X-322500Y127100D02*
X-335708Y127100D01*
X-335708Y152500D02*
X-322500Y152500D01*
X-246300Y206400D02*
X-233092Y206400D01*
X-233092Y181000D02*
X-246300Y181000D01*
X-322500Y181000D02*
X-335708Y181000D01*
X-335708Y206400D02*
X-322500Y206400D01*
X-246300Y260300D02*
X-233092Y260300D01*
X-233092Y234900D02*
X-246300Y234900D01*
X-322500Y234900D02*
X-335708Y234900D01*
X-335708Y260300D02*
X-322500Y260300D01*
D14*
X-32200Y256900D03*
D15*
X-57600Y180700D03*
X-57600Y206100D03*
X-57600Y231500D03*
X-57600Y256900D03*
X-32200Y231500D03*
X-32200Y206100D03*
X-32200Y180700D03*
D16*
X-144400Y40520D02*
X-144400Y25280D01*
X-169800Y25280D02*
X-169800Y40520D01*
X-195200Y40520D02*
X-195200Y25280D01*
X-220600Y25280D02*
X-220600Y40520D01*
X-246000Y40520D02*
X-246000Y25280D01*
X-271400Y25280D02*
X-271400Y40520D01*
X-406380Y26100D02*
X-421620Y26100D01*
X-421620Y51500D02*
X-406380Y51500D01*
X-406380Y76900D02*
X-421620Y76900D01*
X-421620Y102300D02*
X-406380Y102300D01*
X-406380Y127700D02*
X-421620Y127700D01*
X-421620Y153100D02*
X-406380Y153100D01*
X-406380Y178500D02*
X-421620Y178500D01*
X-421620Y203900D02*
X-406380Y203900D01*
D11*
X-187000Y88500D03*
X-187000Y69500D03*
D16*
X-88300Y40620D02*
X-88300Y25380D01*
X-113700Y25380D02*
X-113700Y40620D01*
D17*
X-145000Y201000D03*
X-87000Y163000D03*
X-86000Y184000D03*
X-132000Y155000D03*
X-216000Y140000D03*
X-217000Y173000D03*
X-209000Y184000D03*
X-215000Y195000D03*
X-180000Y107000D03*
X-158000Y93000D03*
X-153000Y236000D03*
M02*
