G04 EAGLE Gerber X2 export*
G75*
%MOMM*%
%FSLAX34Y34*%
%LPD*%
%AMOC8*
5,1,8,0,0,1.08239X$1,22.5*%
G01*
%ADD10R,1.300000X1.500000*%
%ADD11R,1.500000X1.300000*%
%ADD12R,1.400000X0.800000*%
%ADD13R,0.540000X0.850000*%
%ADD14R,0.850000X0.540000*%
%ADD15R,0.558800X1.320800*%
%ADD16R,1.000000X2.300000*%


D10*
X47700Y85700D03*
X28700Y85700D03*
D11*
X29500Y136700D03*
X29500Y117700D03*
D12*
X50000Y119400D03*
X50000Y104400D03*
X50000Y134400D03*
D13*
X177000Y222750D03*
X169000Y222750D03*
X161000Y222750D03*
X153000Y222750D03*
X145000Y222750D03*
X137100Y222750D03*
X129100Y222750D03*
X121100Y222750D03*
D14*
X106250Y208000D03*
X106250Y200000D03*
X106250Y192000D03*
X106250Y184000D03*
X106250Y176000D03*
X106250Y168000D03*
X106250Y160000D03*
X106250Y152000D03*
D13*
X121000Y137250D03*
X129000Y137250D03*
X137000Y137250D03*
X145000Y137250D03*
X153000Y137250D03*
X161000Y137250D03*
X169000Y137250D03*
X177000Y137250D03*
D14*
X191750Y152000D03*
X191750Y160000D03*
X191750Y168000D03*
X191750Y176000D03*
X191750Y184000D03*
X191750Y192000D03*
X191750Y200000D03*
X191750Y208000D03*
D11*
X87000Y234500D03*
X87000Y215500D03*
D10*
X364500Y51000D03*
X383500Y51000D03*
X364500Y102000D03*
X383500Y102000D03*
X364500Y153000D03*
X383500Y153000D03*
X363500Y204000D03*
X382500Y204000D03*
D15*
X70348Y65840D03*
X89652Y65840D03*
X80000Y86160D03*
D10*
X184500Y89000D03*
X203500Y89000D03*
D16*
X130000Y73000D03*
X130000Y107250D03*
M02*
