<?xml version="1.0" encoding="iso-8859-1"?>
<!-- Generator: Adobe Illustrator 19.0.0, SVG Export Plug-In . SVG Version: 6.00 Build 0)  -->
<svg version="1.1" id="Layer_1" xmlns="http://www.w3.org/2000/svg" xmlns:xlink="http://www.w3.org/1999/xlink" x="0px" y="0px"
	 viewBox="0 0 512 512" style="enable-background:new 0 0 512 512;" xml:space="preserve">
<g>
	<g>
		<path d="M407.74,163.88c-29.459,0-57.938,10.37-80.459,28.89c-8.196-9.23-18.152-16.861-29.338-22.365
			c4.165-6.902,10.396-12.723,16.127-18.061c1.899-1.77,3.693-3.44,5.368-5.114c1.397-1.398,3.075-2.963,4.851-4.62
			c12.049-11.241,30.257-28.229,30.257-56.201c0-22.795-8.975-44.386-25.272-60.795C312.872,9.097,291.16,0,268.139,0
			c-57.489,0-104.26,46.771-104.26,104.261c0,29.458,10.371,57.938,28.89,80.459c-9.229,8.196-16.861,18.151-22.364,29.337
			c-6.9-4.164-12.719-10.393-18.057-16.122c-1.772-1.901-3.445-3.698-5.12-5.373c-1.397-1.396-2.963-3.075-4.62-4.851
			c-11.241-12.049-28.227-30.257-56.2-30.257c-22.794,0-44.385,8.975-60.794,25.271C9.096,199.128,0,220.84,0,243.861
			c0,57.488,46.771,104.258,104.258,104.258c0.007,0,0.009,0,0.015,0c29.453,0,57.929-10.37,80.447-28.889
			c8.196,9.229,18.151,16.86,29.336,22.363c-4.165,6.903-10.395,12.725-16.127,18.063c-1.9,1.771-3.695,3.441-5.369,5.116
			c-1.397,1.397-3.076,2.964-4.854,4.622c-12.047,11.24-30.254,28.226-30.254,56.198c0,22.793,8.975,44.384,25.271,60.793
			C199.128,502.903,220.839,512,243.859,512c57.489,0,104.26-46.771,104.26-104.258c0.001-29.459-10.369-57.938-28.891-80.461
			c9.23-8.196,16.862-18.151,22.366-29.337c6.901,4.165,12.721,10.394,18.059,16.124c1.771,1.9,3.443,3.695,5.117,5.37
			c1.397,1.396,2.962,3.074,4.62,4.852c11.241,12.048,28.228,30.256,56.201,30.256c22.795,0,44.385-8.975,60.795-25.271
			C502.904,312.872,512,291.161,512,268.141C512,210.651,465.229,163.88,407.74,163.88z M104.271,318.119c-0.003,0-0.008,0-0.011,0
			c-40.947,0-74.26-33.312-74.26-74.258c0-30.576,25.832-56.408,56.407-56.408c14.932,0,24.759,10.534,34.263,20.722
			c1.841,1.973,3.579,3.836,5.344,5.601c1.298,1.299,2.796,2.906,4.382,4.608c7.19,7.719,17.163,18.416,31.122,24.88
			c-0.559,4.168-0.853,8.418-0.853,12.736c0,13.384,2.778,26.13,7.778,37.699C150.857,309.322,127.978,318.119,104.271,318.119z
			 M268.139,30c30.576,0,56.408,25.832,56.408,56.408c0,14.933-10.535,24.761-20.722,34.266c-1.972,1.84-3.835,3.578-5.597,5.341
			c-1.297,1.297-2.903,2.792-4.604,4.376c-7.72,7.191-18.422,17.164-24.887,31.129c-4.168-0.559-8.418-0.854-12.737-0.854
			c-13.384,0-26.13,2.777-37.7,7.778c-15.622-17.589-24.421-40.473-24.421-64.183C193.879,63.314,227.192,30,268.139,30z
			 M243.859,482c-30.575,0-56.406-25.831-56.406-56.406c0-14.933,10.533-24.76,20.719-34.263c1.973-1.841,3.837-3.58,5.601-5.345
			c1.298-1.297,2.904-2.794,4.605-4.378c7.719-7.191,18.419-17.165,24.885-31.13c4.168,0.56,8.418,0.854,12.737,0.854
			c13.383,0,26.128-2.777,37.696-7.776c15.625,17.591,24.425,40.475,24.423,64.185C318.119,448.687,284.806,482,243.859,482z
			 M256,321.332c-36.025,0-65.334-29.308-65.334-65.332c0-36.025,29.309-65.334,65.334-65.334c36.025,0,65.334,29.309,65.334,65.334
			C321.334,292.024,292.025,321.332,256,321.332z M425.592,324.546c-14.933,0-24.761-10.534-34.266-20.722
			c-1.84-1.973-3.578-3.835-5.342-5.6c-1.297-1.298-2.794-2.904-4.379-4.605c-7.19-7.719-17.163-18.417-31.125-24.881
			c0.559-4.168,0.854-8.42,0.854-12.738c0-13.384-2.777-26.13-7.778-37.698c17.589-15.623,40.474-24.422,64.184-24.422
			c40.947,0,74.26,33.314,74.26,74.261C482,298.716,456.168,324.546,425.592,324.546z"/>
	</g>
</g>
<g>
</g>
<g>
</g>
<g>
</g>
<g>
</g>
<g>
</g>
<g>
</g>
<g>
</g>
<g>
</g>
<g>
</g>
<g>
</g>
<g>
</g>
<g>
</g>
<g>
</g>
<g>
</g>
<g>
</g>
</svg>
